<?xml version="1.0" encoding="utf-8" standalone="no"?>
<!DOCTYPE svg PUBLIC "-//W3C//DTD SVG 1.1//EN"
  "http://www.w3.org/Graphics/SVG/1.1/DTD/svg11.dtd">
<!-- Created with matplotlib (http://matplotlib.org/) -->
<svg height="345pt" version="1.1" viewBox="0 0 460 345" width="460pt" xmlns="http://www.w3.org/2000/svg" xmlns:xlink="http://www.w3.org/1999/xlink">
 <defs>
  <style type="text/css">
*{stroke-linecap:butt;stroke-linejoin:round;}
  </style>
 </defs>
 <g id="figure_1">
  <g id="patch_1">
   <path d="M 0 345.6 
L 460.8 345.6 
L 460.8 0 
L 0 0 
z
" style="fill:#ffffff;"/>
  </g>
  <g id="axes_1">
   <g id="patch_2">
    <path d="M 24.88 139.12 
L 139.84 139.12 
L 139.84 25.44 
L 24.88 25.44 
z
" style="fill:#ffffff;"/>
   </g>
   <g id="matplotlib.axis_1">
    <g id="xtick_1">
     <g id="line2d_1">
      <defs>
       <path d="M 0 0 
L 0 3.5 
" id="m1133e0d19d" style="stroke:#000000;stroke-width:0.8;"/>
      </defs>
      <g>
       <use style="stroke:#000000;stroke-width:0.8;" x="26.007059" xlink:href="#m1133e0d19d" y="139.12"/>
      </g>
     </g>
     <g id="text_1">
      <!-- 0 -->
      <defs>
       <path d="M 31.78125 66.40625 
Q 24.171875 66.40625 20.328125 58.90625 
Q 16.5 51.421875 16.5 36.375 
Q 16.5 21.390625 20.328125 13.890625 
Q 24.171875 6.390625 31.78125 6.390625 
Q 39.453125 6.390625 43.28125 13.890625 
Q 47.125 21.390625 47.125 36.375 
Q 47.125 51.421875 43.28125 58.90625 
Q 39.453125 66.40625 31.78125 66.40625 
z
M 31.78125 74.21875 
Q 44.046875 74.21875 50.515625 64.515625 
Q 56.984375 54.828125 56.984375 36.375 
Q 56.984375 17.96875 50.515625 8.265625 
Q 44.046875 -1.421875 31.78125 -1.421875 
Q 19.53125 -1.421875 13.0625 8.265625 
Q 6.59375 17.96875 6.59375 36.375 
Q 6.59375 54.828125 13.0625 64.515625 
Q 19.53125 74.21875 31.78125 74.21875 
z
" id="DejaVuSans-30"/>
      </defs>
      <g transform="translate(24.098309 150.679062)scale(0.06 -0.06)">
       <use xlink:href="#DejaVuSans-30"/>
      </g>
     </g>
    </g>
    <g id="xtick_2">
     <g id="line2d_2">
      <g>
       <use style="stroke:#000000;stroke-width:0.8;" x="138.712941" xlink:href="#m1133e0d19d" y="139.12"/>
      </g>
     </g>
     <g id="text_2">
      <!-- 1 -->
      <defs>
       <path d="M 12.40625 8.296875 
L 28.515625 8.296875 
L 28.515625 63.921875 
L 10.984375 60.40625 
L 10.984375 69.390625 
L 28.421875 72.90625 
L 38.28125 72.90625 
L 38.28125 8.296875 
L 54.390625 8.296875 
L 54.390625 0 
L 12.40625 0 
z
" id="DejaVuSans-31"/>
      </defs>
      <g transform="translate(136.804191 150.679062)scale(0.06 -0.06)">
       <use xlink:href="#DejaVuSans-31"/>
      </g>
     </g>
    </g>
    <g id="text_3">
     <!-- $\theta$ -->
     <defs>
      <path d="M 45.515625 34.671875 
L 14.453125 34.671875 
Q 12.359375 20.0625 14.5 13.875 
Q 17.1875 6.25 24.46875 6.25 
Q 31.78125 6.25 37.359375 13.921875 
Q 42.234375 20.65625 45.515625 34.671875 
z
M 47.015625 42.96875 
Q 48.34375 56.84375 46.625 61.71875 
Q 43.953125 69.4375 36.765625 69.4375 
Q 29.296875 69.4375 23.828125 61.8125 
Q 19.53125 55.671875 16.15625 42.96875 
z
M 38.1875 76.765625 
Q 49.90625 76.765625 54.59375 66.40625 
Q 59.28125 56.109375 55.71875 37.84375 
Q 52.203125 19.625 43.453125 9.28125 
Q 34.765625 -1.125 23.046875 -1.125 
Q 11.28125 -1.125 6.640625 9.28125 
Q 2 19.625 5.515625 37.84375 
Q 9.078125 56.109375 17.71875 66.40625 
Q 26.421875 76.765625 38.1875 76.765625 
z
" id="DejaVuSans-Oblique-3b8"/>
     </defs>
     <g transform="translate(79.26 163.525312)scale(0.1 -0.1)">
      <use transform="translate(0 0.234375)" xlink:href="#DejaVuSans-Oblique-3b8"/>
     </g>
    </g>
   </g>
   <g id="matplotlib.axis_2">
    <g id="text_4">
     <!-- Density -->
     <defs>
      <path d="M 19.671875 64.796875 
L 19.671875 8.109375 
L 31.59375 8.109375 
Q 46.6875 8.109375 53.6875 14.9375 
Q 60.6875 21.78125 60.6875 36.53125 
Q 60.6875 51.171875 53.6875 57.984375 
Q 46.6875 64.796875 31.59375 64.796875 
z
M 9.8125 72.90625 
L 30.078125 72.90625 
Q 51.265625 72.90625 61.171875 64.09375 
Q 71.09375 55.28125 71.09375 36.53125 
Q 71.09375 17.671875 61.125 8.828125 
Q 51.171875 0 30.078125 0 
L 9.8125 0 
z
" id="DejaVuSans-44"/>
      <path d="M 56.203125 29.59375 
L 56.203125 25.203125 
L 14.890625 25.203125 
Q 15.484375 15.921875 20.484375 11.0625 
Q 25.484375 6.203125 34.421875 6.203125 
Q 39.59375 6.203125 44.453125 7.46875 
Q 49.3125 8.734375 54.109375 11.28125 
L 54.109375 2.78125 
Q 49.265625 0.734375 44.1875 -0.34375 
Q 39.109375 -1.421875 33.890625 -1.421875 
Q 20.796875 -1.421875 13.15625 6.1875 
Q 5.515625 13.8125 5.515625 26.8125 
Q 5.515625 40.234375 12.765625 48.109375 
Q 20.015625 56 32.328125 56 
Q 43.359375 56 49.78125 48.890625 
Q 56.203125 41.796875 56.203125 29.59375 
z
M 47.21875 32.234375 
Q 47.125 39.59375 43.09375 43.984375 
Q 39.0625 48.390625 32.421875 48.390625 
Q 24.90625 48.390625 20.390625 44.140625 
Q 15.875 39.890625 15.1875 32.171875 
z
" id="DejaVuSans-65"/>
      <path d="M 54.890625 33.015625 
L 54.890625 0 
L 45.90625 0 
L 45.90625 32.71875 
Q 45.90625 40.484375 42.875 44.328125 
Q 39.84375 48.1875 33.796875 48.1875 
Q 26.515625 48.1875 22.3125 43.546875 
Q 18.109375 38.921875 18.109375 30.90625 
L 18.109375 0 
L 9.078125 0 
L 9.078125 54.6875 
L 18.109375 54.6875 
L 18.109375 46.1875 
Q 21.34375 51.125 25.703125 53.5625 
Q 30.078125 56 35.796875 56 
Q 45.21875 56 50.046875 50.171875 
Q 54.890625 44.34375 54.890625 33.015625 
z
" id="DejaVuSans-6e"/>
      <path d="M 44.28125 53.078125 
L 44.28125 44.578125 
Q 40.484375 46.53125 36.375 47.5 
Q 32.28125 48.484375 27.875 48.484375 
Q 21.1875 48.484375 17.84375 46.4375 
Q 14.5 44.390625 14.5 40.28125 
Q 14.5 37.15625 16.890625 35.375 
Q 19.28125 33.59375 26.515625 31.984375 
L 29.59375 31.296875 
Q 39.15625 29.25 43.1875 25.515625 
Q 47.21875 21.78125 47.21875 15.09375 
Q 47.21875 7.46875 41.1875 3.015625 
Q 35.15625 -1.421875 24.609375 -1.421875 
Q 20.21875 -1.421875 15.453125 -0.5625 
Q 10.6875 0.296875 5.421875 2 
L 5.421875 11.28125 
Q 10.40625 8.6875 15.234375 7.390625 
Q 20.0625 6.109375 24.8125 6.109375 
Q 31.15625 6.109375 34.5625 8.28125 
Q 37.984375 10.453125 37.984375 14.40625 
Q 37.984375 18.0625 35.515625 20.015625 
Q 33.0625 21.96875 24.703125 23.78125 
L 21.578125 24.515625 
Q 13.234375 26.265625 9.515625 29.90625 
Q 5.8125 33.546875 5.8125 39.890625 
Q 5.8125 47.609375 11.28125 51.796875 
Q 16.75 56 26.8125 56 
Q 31.78125 56 36.171875 55.265625 
Q 40.578125 54.546875 44.28125 53.078125 
z
" id="DejaVuSans-73"/>
      <path d="M 9.421875 54.6875 
L 18.40625 54.6875 
L 18.40625 0 
L 9.421875 0 
z
M 9.421875 75.984375 
L 18.40625 75.984375 
L 18.40625 64.59375 
L 9.421875 64.59375 
z
" id="DejaVuSans-69"/>
      <path d="M 18.3125 70.21875 
L 18.3125 54.6875 
L 36.8125 54.6875 
L 36.8125 47.703125 
L 18.3125 47.703125 
L 18.3125 18.015625 
Q 18.3125 11.328125 20.140625 9.421875 
Q 21.96875 7.515625 27.59375 7.515625 
L 36.8125 7.515625 
L 36.8125 0 
L 27.59375 0 
Q 17.1875 0 13.234375 3.875 
Q 9.28125 7.765625 9.28125 18.015625 
L 9.28125 47.703125 
L 2.6875 47.703125 
L 2.6875 54.6875 
L 9.28125 54.6875 
L 9.28125 70.21875 
z
" id="DejaVuSans-74"/>
      <path d="M 32.171875 -5.078125 
Q 28.375 -14.84375 24.75 -17.8125 
Q 21.140625 -20.796875 15.09375 -20.796875 
L 7.90625 -20.796875 
L 7.90625 -13.28125 
L 13.1875 -13.28125 
Q 16.890625 -13.28125 18.9375 -11.515625 
Q 21 -9.765625 23.484375 -3.21875 
L 25.09375 0.875 
L 2.984375 54.6875 
L 12.5 54.6875 
L 29.59375 11.921875 
L 46.6875 54.6875 
L 56.203125 54.6875 
z
" id="DejaVuSans-79"/>
     </defs>
     <g transform="translate(18.800313 101.288594)rotate(-90)scale(0.1 -0.1)">
      <use xlink:href="#DejaVuSans-44"/>
      <use x="77.001953" xlink:href="#DejaVuSans-65"/>
      <use x="138.525391" xlink:href="#DejaVuSans-6e"/>
      <use x="201.904297" xlink:href="#DejaVuSans-73"/>
      <use x="254.003906" xlink:href="#DejaVuSans-69"/>
      <use x="281.787109" xlink:href="#DejaVuSans-74"/>
      <use x="320.996094" xlink:href="#DejaVuSans-79"/>
     </g>
    </g>
   </g>
   <g id="line2d_3">
    <path clip-path="url(#p0d84de27e0)" d="M 26.007059 137.788855 
L 62.109043 137.68248 
L 63.801324 137.444904 
L 64.929511 137.087894 
L 65.83206 136.597028 
L 66.621791 135.943755 
L 67.411522 135.002676 
L 68.201253 133.682724 
L 68.990984 131.879713 
L 69.780715 129.480814 
L 70.570446 126.371814 
L 71.472995 121.814727 
L 72.375545 116.071384 
L 73.390913 108.123841 
L 74.5191 97.52754 
L 76.098562 80.291282 
L 78.91903 49.014511 
L 79.934398 40.260062 
L 80.724129 35.201287 
L 81.288222 32.702828 
L 81.739497 31.431334 
L 82.077953 30.918526 
L 82.416409 30.789945 
L 82.642047 30.918526 
L 82.980503 31.431334 
L 83.431778 32.702828 
L 83.995871 35.201287 
L 84.672783 39.434248 
L 85.462514 45.853502 
L 86.590701 57.127611 
L 88.734257 81.583494 
L 90.426537 99.783419 
L 91.667543 110.947537 
L 92.79573 119.096774 
L 93.811098 124.795268 
L 94.713648 128.669863 
L 95.616197 131.576186 
L 96.405928 133.457291 
L 97.195659 134.839611 
L 97.98539 135.828901 
L 98.88794 136.597028 
L 99.903308 137.134461 
L 101.031495 137.469512 
L 102.610957 137.68248 
L 105.318606 137.776603 
L 117.390207 137.788855 
L 138.712941 137.788855 
L 138.712941 137.788855 
" style="fill:none;stroke:#1f77b4;stroke-dasharray:1,1.65;stroke-dashoffset:0;"/>
   </g>
   <g id="line2d_4">
    <path clip-path="url(#p0d84de27e0)" d="M 26.007059 124.477404 
L 138.712941 124.477404 
L 138.712941 124.477404 
" style="fill:none;stroke:#1f77b4;stroke-dasharray:3.7,1.6;stroke-dashoffset:0;"/>
   </g>
   <g id="line2d_5">
    <path clip-path="url(#p0d84de27e0)" d="M 26.007059 137.788855 
L 62.109043 137.68248 
L 63.801324 137.444904 
L 64.929511 137.087894 
L 65.83206 136.597028 
L 66.621791 135.943755 
L 67.411522 135.002676 
L 68.201253 133.682724 
L 68.990984 131.879713 
L 69.780715 129.480814 
L 70.570446 126.371814 
L 71.472995 121.814727 
L 72.375545 116.071384 
L 73.390913 108.123841 
L 74.5191 97.52754 
L 76.098562 80.291282 
L 78.91903 49.014511 
L 79.934398 40.260062 
L 80.724129 35.201287 
L 81.288222 32.702828 
L 81.739497 31.431334 
L 82.077953 30.918526 
L 82.416409 30.789945 
L 82.642047 30.918526 
L 82.980503 31.431334 
L 83.431778 32.702828 
L 83.995871 35.201287 
L 84.672783 39.434248 
L 85.462514 45.853502 
L 86.590701 57.127611 
L 88.734257 81.583494 
L 90.426537 99.783419 
L 91.667543 110.947537 
L 92.79573 119.096774 
L 93.811098 124.795268 
L 94.713648 128.669863 
L 95.616197 131.576186 
L 96.405928 133.457291 
L 97.195659 134.839611 
L 97.98539 135.828901 
L 98.88794 136.597028 
L 99.903308 137.134461 
L 101.031495 137.469512 
L 102.610957 137.68248 
L 105.318606 137.776603 
L 117.390207 137.788855 
L 138.712941 137.788855 
L 138.712941 137.788855 
" style="fill:none;stroke:#1f77b4;stroke-linecap:square;"/>
   </g>
   <g id="patch_3">
    <path d="M 24.88 139.12 
L 24.88 25.44 
" style="fill:none;stroke:#000000;stroke-linecap:square;stroke-linejoin:miter;stroke-width:0.8;"/>
   </g>
   <g id="patch_4">
    <path d="M 139.84 139.12 
L 139.84 25.44 
" style="fill:none;stroke:#000000;stroke-linecap:square;stroke-linejoin:miter;stroke-width:0.8;"/>
   </g>
   <g id="patch_5">
    <path d="M 24.88 139.12 
L 139.84 139.12 
" style="fill:none;stroke:#000000;stroke-linecap:square;stroke-linejoin:miter;stroke-width:0.8;"/>
   </g>
   <g id="patch_6">
    <path d="M 24.88 25.44 
L 139.84 25.44 
" style="fill:none;stroke:#000000;stroke-linecap:square;stroke-linejoin:miter;stroke-width:0.8;"/>
   </g>
   <g id="text_5">
    <!-- $\alpha=1,\/\/\beta=1$ -->
    <defs>
     <path d="M 40.921875 25.4375 
L 40.96875 36.71875 
Q 41.015625 48.25 32.328125 48.296875 
Q 25.828125 48.34375 21.78125 42.921875 
Q 16.703125 36.234375 14.984375 27.296875 
Q 12.890625 16.546875 15.53125 11.421875 
Q 18.265625 6.203125 24.171875 6.203125 
Q 30.71875 6.203125 36.234375 16.609375 
z
M 33.84375 55.90625 
Q 49.078125 56.15625 48.875 40.375 
Q 48.875 40.375 56.5 54.6875 
L 64.5 54.6875 
L 48.734375 25.046875 
L 48.578125 14.359375 
Q 48.578125 11.96875 49.90625 9.96875 
Q 51.421875 7.625 52.984375 7.625 
L 57.328125 7.625 
L 55.859375 0 
L 50.4375 0 
Q 45.84375 0 42.53125 4.109375 
Q 40.96875 6.15625 40.921875 10.453125 
Q 37.75 5.21875 32.28125 0.78125 
Q 29.6875 -1.265625 22.703125 -1.21875 
Q 11.28125 -1.125 7.125 6.203125 
Q 2.875 13.8125 5.515625 27.296875 
Q 8.34375 41.796875 15.765625 48.390625 
Q 24.125 55.765625 33.84375 55.90625 
z
" id="DejaVuSans-Oblique-3b1"/>
     <path d="M 10.59375 45.40625 
L 73.1875 45.40625 
L 73.1875 37.203125 
L 10.59375 37.203125 
z
M 10.59375 25.484375 
L 73.1875 25.484375 
L 73.1875 17.1875 
L 10.59375 17.1875 
z
" id="DejaVuSans-3d"/>
     <path d="M 11.71875 12.40625 
L 22.015625 12.40625 
L 22.015625 4 
L 14.015625 -11.625 
L 7.71875 -11.625 
L 11.71875 4 
z
" id="DejaVuSans-2c"/>
     <path d="M 13.625 3.375 
L 8.9375 -20.796875 
L -0.09375 -20.796875 
L 14.5 54.34375 
Q 18.84375 76.609375 39.65625 76.609375 
Q 60.75 76.609375 57.171875 57.8125 
Q 54.734375 44.4375 45.21875 39.546875 
Q 58.015625 35.15625 55.515625 22.125 
Q 51.125 -1.078125 27.484375 -1.03125 
Q 17.140625 -0.984375 13.625 3.375 
z
M 15.921875 15.09375 
Q 19.671875 6.59375 29.296875 6.640625 
Q 43.359375 6.640625 46.34375 21.96875 
Q 49.03125 35.75 26.171875 34.671875 
L 27.78125 42.96875 
Q 45.453125 42.671875 48.53125 58.59375 
Q 50.640625 69.34375 39.203125 69.28125 
Q 26.421875 69.28125 23.484375 54.046875 
z
" id="DejaVuSans-Oblique-3b2"/>
    </defs>
    <g transform="translate(96.9388 35.0776)scale(0.06 -0.06)">
     <use transform="translate(0 0.390625)" xlink:href="#DejaVuSans-Oblique-3b1"/>
     <use transform="translate(85.400391 0.390625)" xlink:href="#DejaVuSans-3d"/>
     <use transform="translate(188.671875 0.390625)" xlink:href="#DejaVuSans-31"/>
     <use transform="translate(252.294922 0.390625)" xlink:href="#DejaVuSans-2c"/>
     <use transform="translate(336.035806 0.390625)" xlink:href="#DejaVuSans-Oblique-3b2"/>
     <use transform="translate(419.336587 0.390625)" xlink:href="#DejaVuSans-3d"/>
     <use transform="translate(522.608071 0.390625)" xlink:href="#DejaVuSans-31"/>
    </g>
   </g>
   <g id="text_6">
    <!-- $M_1$ -->
    <defs>
     <path d="M 16.890625 72.90625 
L 31.6875 72.90625 
L 40.1875 23.78125 
L 68.40625 72.90625 
L 83.59375 72.90625 
L 69.390625 0 
L 59.8125 0 
L 72.21875 63.921875 
L 43.609375 14.015625 
L 33.984375 14.015625 
L 24.703125 64.109375 
L 12.3125 0 
L 2.6875 0 
z
" id="DejaVuSans-Oblique-4d"/>
    </defs>
    <g transform="translate(24.88 19.44)scale(0.1 -0.1)">
     <use transform="translate(0 0.09375)" xlink:href="#DejaVuSans-Oblique-4d"/>
     <use transform="translate(86.279297 -16.3125)scale(0.7)" xlink:href="#DejaVuSans-31"/>
    </g>
   </g>
  </g>
  <g id="axes_2">
   <g id="patch_7">
    <path d="M 176 139.12 
L 290.96 139.12 
L 290.96 25.44 
L 176 25.44 
z
" style="fill:#ffffff;"/>
   </g>
   <g id="matplotlib.axis_3">
    <g id="xtick_3">
     <g id="line2d_6">
      <g>
       <use style="stroke:#000000;stroke-width:0.8;" x="177.127059" xlink:href="#m1133e0d19d" y="139.12"/>
      </g>
     </g>
     <g id="text_7">
      <!-- 0 -->
      <g transform="translate(175.218309 150.679062)scale(0.06 -0.06)">
       <use xlink:href="#DejaVuSans-30"/>
      </g>
     </g>
    </g>
    <g id="xtick_4">
     <g id="line2d_7">
      <g>
       <use style="stroke:#000000;stroke-width:0.8;" x="289.832941" xlink:href="#m1133e0d19d" y="139.12"/>
      </g>
     </g>
     <g id="text_8">
      <!-- 1 -->
      <g transform="translate(287.924191 150.679062)scale(0.06 -0.06)">
       <use xlink:href="#DejaVuSans-31"/>
      </g>
     </g>
    </g>
    <g id="text_9">
     <!-- $\theta$ -->
     <g transform="translate(230.38 163.525312)scale(0.1 -0.1)">
      <use transform="translate(0 0.234375)" xlink:href="#DejaVuSans-Oblique-3b8"/>
     </g>
    </g>
   </g>
   <g id="matplotlib.axis_4">
    <g id="text_10">
     <!-- Density -->
     <g transform="translate(169.920312 101.288594)rotate(-90)scale(0.1 -0.1)">
      <use xlink:href="#DejaVuSans-44"/>
      <use x="77.001953" xlink:href="#DejaVuSans-65"/>
      <use x="138.525391" xlink:href="#DejaVuSans-6e"/>
      <use x="201.904297" xlink:href="#DejaVuSans-73"/>
      <use x="254.003906" xlink:href="#DejaVuSans-69"/>
      <use x="281.787109" xlink:href="#DejaVuSans-74"/>
      <use x="320.996094" xlink:href="#DejaVuSans-79"/>
     </g>
    </g>
   </g>
   <g id="line2d_8">
    <path clip-path="url(#p2eaca0a9a7)" d="M 177.127059 137.788855 
L 213.229043 137.68248 
L 214.921324 137.444904 
L 216.049511 137.087894 
L 216.95206 136.597028 
L 217.741791 135.943755 
L 218.531522 135.002676 
L 219.321253 133.682724 
L 220.110984 131.879713 
L 220.900715 129.480814 
L 221.690446 126.371814 
L 222.592995 121.814727 
L 223.495545 116.071384 
L 224.510913 108.123841 
L 225.6391 97.52754 
L 227.218562 80.291282 
L 230.03903 49.014511 
L 231.054398 40.260062 
L 231.844129 35.201287 
L 232.408222 32.702828 
L 232.859497 31.431334 
L 233.197953 30.918526 
L 233.536409 30.789945 
L 233.762047 30.918526 
L 234.100503 31.431334 
L 234.551778 32.702828 
L 235.115871 35.201287 
L 235.792783 39.434248 
L 236.582514 45.853502 
L 237.710701 57.127611 
L 239.854257 81.583494 
L 241.546537 99.783419 
L 242.787543 110.947537 
L 243.91573 119.096774 
L 244.931098 124.795268 
L 245.833648 128.669863 
L 246.736197 131.576186 
L 247.525928 133.457291 
L 248.315659 134.839611 
L 249.10539 135.828901 
L 250.00794 136.597028 
L 251.023308 137.134461 
L 252.151495 137.469512 
L 253.730957 137.68248 
L 256.438606 137.776603 
L 268.510207 137.788855 
L 289.832941 137.788855 
L 289.832941 137.788855 
" style="fill:none;stroke:#1f77b4;stroke-dasharray:1,1.65;stroke-dashoffset:0;"/>
   </g>
   <g id="line2d_9">
    <path clip-path="url(#p2eaca0a9a7)" d="M 177.239878 50.442148 
L 177.465515 81.457978 
L 177.803971 95.046489 
L 178.255246 102.889272 
L 178.706521 107.234505 
L 179.270614 110.692749 
L 179.947526 113.450055 
L 180.737257 115.674811 
L 181.639807 117.495805 
L 182.655175 119.007329 
L 183.783362 120.278022 
L 185.137187 121.444182 
L 186.716648 122.486696 
L 188.521748 123.405518 
L 190.665303 124.24848 
L 193.372952 125.060646 
L 196.644694 125.796947 
L 200.706167 126.470341 
L 205.67019 127.059959 
L 211.875219 127.563291 
L 219.434072 127.94393 
L 228.23393 128.159828 
L 237.710701 128.171575 
L 246.961835 127.964387 
L 254.971963 127.570624 
L 261.515447 127.037366 
L 266.817926 126.388987 
L 270.992218 125.661591 
L 274.26396 124.878272 
L 276.971609 124.005355 
L 279.115165 123.088022 
L 280.920264 122.073189 
L 282.386907 120.995846 
L 283.627913 119.809882 
L 284.643281 118.55092 
L 285.545831 117.0924 
L 286.335561 115.401441 
L 287.012474 113.450055 
L 287.576567 111.232181 
L 288.140661 108.054111 
L 288.591935 104.181146 
L 288.930392 99.661797 
L 289.268848 91.831376 
L 289.494485 81.457978 
L 289.607304 71.565879 
L 289.720122 50.442148 
L 289.720122 50.442148 
" style="fill:none;stroke:#1f77b4;stroke-dasharray:3.7,1.6;stroke-dashoffset:0;"/>
   </g>
   <g id="line2d_10">
    <path clip-path="url(#p2eaca0a9a7)" d="M 177.127059 137.788855 
L 213.116224 137.685716 
L 214.808505 137.455628 
L 216.049511 137.062004 
L 216.95206 136.558245 
L 217.741791 135.890364 
L 218.531522 134.931489 
L 219.321253 133.590856 
L 220.110984 131.765074 
L 220.900715 129.342689 
L 221.690446 126.21148 
L 222.592995 121.633862 
L 223.495545 115.879391 
L 224.510913 107.936158 
L 225.751919 96.22536 
L 227.331381 78.944761 
L 229.926211 50.321788 
L 230.941579 41.421364 
L 231.73131 36.180247 
L 232.408222 33.102621 
L 232.859497 31.846158 
L 233.197953 31.339446 
L 233.536409 31.212397 
L 233.762047 31.339446 
L 234.100503 31.846158 
L 234.551778 33.102621 
L 235.115871 35.5719 
L 235.792783 39.756528 
L 236.582514 46.105256 
L 237.710701 57.264258 
L 239.854257 81.516319 
L 241.659356 100.718424 
L 242.900362 111.658126 
L 244.028549 119.618389 
L 245.043917 125.171826 
L 245.946466 128.941325 
L 246.849016 131.765074 
L 247.638747 133.590856 
L 248.428478 134.931489 
L 249.218209 135.890364 
L 250.120758 136.634524 
L 251.136127 137.155013 
L 252.264314 137.479457 
L 253.843776 137.685716 
L 256.551424 137.77695 
L 268.961481 137.788855 
L 289.832941 137.788855 
L 289.832941 137.788855 
" style="fill:none;stroke:#1f77b4;stroke-linecap:square;"/>
   </g>
   <g id="patch_8">
    <path d="M 176 139.12 
L 176 25.44 
" style="fill:none;stroke:#000000;stroke-linecap:square;stroke-linejoin:miter;stroke-width:0.8;"/>
   </g>
   <g id="patch_9">
    <path d="M 290.96 139.12 
L 290.96 25.44 
" style="fill:none;stroke:#000000;stroke-linecap:square;stroke-linejoin:miter;stroke-width:0.8;"/>
   </g>
   <g id="patch_10">
    <path d="M 176 139.12 
L 290.96 139.12 
" style="fill:none;stroke:#000000;stroke-linecap:square;stroke-linejoin:miter;stroke-width:0.8;"/>
   </g>
   <g id="patch_11">
    <path d="M 176 25.44 
L 290.96 25.44 
" style="fill:none;stroke:#000000;stroke-linecap:square;stroke-linejoin:miter;stroke-width:0.8;"/>
   </g>
   <g id="text_11">
    <!-- $\alpha=0.6,\/\/\beta=0.6$ -->
    <defs>
     <path d="M 10.6875 12.40625 
L 21 12.40625 
L 21 0 
L 10.6875 0 
z
" id="DejaVuSans-2e"/>
     <path d="M 33.015625 40.375 
Q 26.375 40.375 22.484375 35.828125 
Q 18.609375 31.296875 18.609375 23.390625 
Q 18.609375 15.53125 22.484375 10.953125 
Q 26.375 6.390625 33.015625 6.390625 
Q 39.65625 6.390625 43.53125 10.953125 
Q 47.40625 15.53125 47.40625 23.390625 
Q 47.40625 31.296875 43.53125 35.828125 
Q 39.65625 40.375 33.015625 40.375 
z
M 52.59375 71.296875 
L 52.59375 62.3125 
Q 48.875 64.0625 45.09375 64.984375 
Q 41.3125 65.921875 37.59375 65.921875 
Q 27.828125 65.921875 22.671875 59.328125 
Q 17.53125 52.734375 16.796875 39.40625 
Q 19.671875 43.65625 24.015625 45.921875 
Q 28.375 48.1875 33.59375 48.1875 
Q 44.578125 48.1875 50.953125 41.515625 
Q 57.328125 34.859375 57.328125 23.390625 
Q 57.328125 12.15625 50.6875 5.359375 
Q 44.046875 -1.421875 33.015625 -1.421875 
Q 20.359375 -1.421875 13.671875 8.265625 
Q 6.984375 17.96875 6.984375 36.375 
Q 6.984375 53.65625 15.1875 63.9375 
Q 23.390625 74.21875 37.203125 74.21875 
Q 40.921875 74.21875 44.703125 73.484375 
Q 48.484375 72.75 52.59375 71.296875 
z
" id="DejaVuSans-36"/>
    </defs>
    <g transform="translate(242.3288 35.0776)scale(0.06 -0.06)">
     <use transform="translate(0 0.390625)" xlink:href="#DejaVuSans-Oblique-3b1"/>
     <use transform="translate(85.400391 0.390625)" xlink:href="#DejaVuSans-3d"/>
     <use transform="translate(188.671875 0.390625)" xlink:href="#DejaVuSans-30"/>
     <use transform="translate(252.294922 0.390625)" xlink:href="#DejaVuSans-2e"/>
     <use transform="translate(284.082031 0.390625)" xlink:href="#DejaVuSans-36"/>
     <use transform="translate(347.705078 0.390625)" xlink:href="#DejaVuSans-2c"/>
     <use transform="translate(431.445962 0.390625)" xlink:href="#DejaVuSans-Oblique-3b2"/>
     <use transform="translate(514.746743 0.390625)" xlink:href="#DejaVuSans-3d"/>
     <use transform="translate(618.018228 0.390625)" xlink:href="#DejaVuSans-30"/>
     <use transform="translate(681.641274 0.390625)" xlink:href="#DejaVuSans-2e"/>
     <use transform="translate(713.428384 0.390625)" xlink:href="#DejaVuSans-36"/>
    </g>
   </g>
   <g id="text_12">
    <!-- $M_2$ -->
    <defs>
     <path d="M 19.1875 8.296875 
L 53.609375 8.296875 
L 53.609375 0 
L 7.328125 0 
L 7.328125 8.296875 
Q 12.9375 14.109375 22.625 23.890625 
Q 32.328125 33.6875 34.8125 36.53125 
Q 39.546875 41.84375 41.421875 45.53125 
Q 43.3125 49.21875 43.3125 52.78125 
Q 43.3125 58.59375 39.234375 62.25 
Q 35.15625 65.921875 28.609375 65.921875 
Q 23.96875 65.921875 18.8125 64.3125 
Q 13.671875 62.703125 7.8125 59.421875 
L 7.8125 69.390625 
Q 13.765625 71.78125 18.9375 73 
Q 24.125 74.21875 28.421875 74.21875 
Q 39.75 74.21875 46.484375 68.546875 
Q 53.21875 62.890625 53.21875 53.421875 
Q 53.21875 48.921875 51.53125 44.890625 
Q 49.859375 40.875 45.40625 35.40625 
Q 44.1875 33.984375 37.640625 27.21875 
Q 31.109375 20.453125 19.1875 8.296875 
z
" id="DejaVuSans-32"/>
    </defs>
    <g transform="translate(176 19.44)scale(0.1 -0.1)">
     <use transform="translate(0 0.09375)" xlink:href="#DejaVuSans-Oblique-4d"/>
     <use transform="translate(86.279297 -16.3125)scale(0.7)" xlink:href="#DejaVuSans-32"/>
    </g>
   </g>
   <g id="legend_1">
    <g id="patch_12">
     <path d="M 298.708 73.44 
L 416.108 73.44 
Q 418.108 73.44 418.108 71.44 
L 418.108 27.44 
Q 418.108 25.44 416.108 25.44 
L 298.708 25.44 
Q 296.708 25.44 296.708 27.44 
L 296.708 71.44 
Q 296.708 73.44 298.708 73.44 
z
" style="fill:#ffffff;opacity:0.8;stroke:#cccccc;stroke-linejoin:miter;"/>
    </g>
    <g id="line2d_11">
     <path d="M 300.708 33.64 
L 320.708 33.64 
" style="fill:none;stroke:#1f77b4;stroke-dasharray:1,1.65;stroke-dashoffset:0;"/>
    </g>
    <g id="line2d_12"/>
    <g id="text_13">
     <!-- $Likelihood\/\/p(D|\theta$) -->
     <defs>
      <path d="M 16.796875 72.90625 
L 26.703125 72.90625 
L 14.203125 8.203125 
L 49.703125 8.203125 
L 48.09375 0 
L 2.6875 0 
z
" id="DejaVuSans-Oblique-4c"/>
      <path d="M 18.3125 75.984375 
L 27.296875 75.984375 
L 25.09375 64.59375 
L 16.109375 64.59375 
z
M 14.203125 54.6875 
L 23.1875 54.6875 
L 12.5 0 
L 3.515625 0 
z
" id="DejaVuSans-Oblique-69"/>
      <path d="M 18.3125 75.984375 
L 27.296875 75.984375 
L 18.703125 31.6875 
L 49.515625 54.6875 
L 61.1875 54.6875 
L 26.8125 28.515625 
L 51.90625 0 
L 41.015625 0 
L 17.671875 26.703125 
L 12.5 0 
L 3.515625 0 
z
" id="DejaVuSans-Oblique-6b"/>
      <path d="M 48.09375 32.234375 
Q 48.25 33.015625 48.3125 33.84375 
Q 48.390625 34.671875 48.390625 35.5 
Q 48.390625 41.453125 44.890625 44.921875 
Q 41.40625 48.390625 35.40625 48.390625 
Q 28.71875 48.390625 23.578125 44.15625 
Q 18.453125 39.9375 15.828125 32.171875 
z
M 55.90625 25.203125 
L 14.109375 25.203125 
Q 13.8125 23.34375 13.71875 22.265625 
Q 13.625 21.1875 13.625 20.40625 
Q 13.625 13.625 17.796875 9.90625 
Q 21.96875 6.203125 29.59375 6.203125 
Q 35.453125 6.203125 40.671875 7.515625 
Q 45.90625 8.84375 50.390625 11.375 
L 48.6875 2.484375 
Q 43.84375 0.53125 38.6875 -0.4375 
Q 33.546875 -1.421875 28.21875 -1.421875 
Q 16.84375 -1.421875 10.71875 4.015625 
Q 4.59375 9.46875 4.59375 19.484375 
Q 4.59375 28.03125 7.640625 35.375 
Q 10.6875 42.71875 16.609375 48.484375 
Q 20.40625 52.09375 25.65625 54.046875 
Q 30.90625 56 36.8125 56 
Q 46.09375 56 51.578125 50.4375 
Q 57.078125 44.875 57.078125 35.5 
Q 57.078125 33.25 56.78125 30.6875 
Q 56.5 28.125 55.90625 25.203125 
z
" id="DejaVuSans-Oblique-65"/>
      <path d="M 18.3125 75.984375 
L 27.296875 75.984375 
L 12.5 0 
L 3.515625 0 
z
" id="DejaVuSans-Oblique-6c"/>
      <path d="M 55.71875 33.015625 
L 49.3125 0 
L 40.28125 0 
L 46.6875 32.671875 
Q 47.125 34.96875 47.359375 36.71875 
Q 47.609375 38.484375 47.609375 39.5 
Q 47.609375 43.609375 45.015625 45.890625 
Q 42.4375 48.1875 37.796875 48.1875 
Q 30.5625 48.1875 25.265625 43.296875 
Q 19.96875 38.421875 18.40625 30.328125 
L 12.5 0 
L 3.515625 0 
L 18.3125 75.984375 
L 27.296875 75.984375 
L 21.484375 46.09375 
Q 24.90625 50.6875 30.21875 53.34375 
Q 35.546875 56 41.40625 56 
Q 48.640625 56 52.609375 52.09375 
Q 56.59375 48.1875 56.59375 41.109375 
Q 56.59375 39.359375 56.375 37.359375 
Q 56.15625 35.359375 55.71875 33.015625 
z
" id="DejaVuSans-Oblique-68"/>
      <path d="M 25.390625 -1.421875 
Q 15.765625 -1.421875 10.171875 4.515625 
Q 4.59375 10.453125 4.59375 20.703125 
Q 4.59375 26.65625 6.515625 32.828125 
Q 8.453125 39.015625 11.53125 43.21875 
Q 16.359375 49.75 22.3125 52.875 
Q 28.265625 56 35.796875 56 
Q 45.125 56 50.859375 50.1875 
Q 56.59375 44.390625 56.59375 35.015625 
Q 56.59375 28.515625 54.6875 22.0625 
Q 52.78125 15.625 49.703125 11.375 
Q 44.921875 4.828125 38.96875 1.703125 
Q 33.015625 -1.421875 25.390625 -1.421875 
z
M 13.921875 21 
Q 13.921875 13.578125 17.015625 9.890625 
Q 20.125 6.203125 26.421875 6.203125 
Q 35.453125 6.203125 41.375 14.078125 
Q 47.3125 21.96875 47.3125 34.078125 
Q 47.3125 41.15625 44.140625 44.765625 
Q 40.96875 48.390625 34.8125 48.390625 
Q 29.734375 48.390625 25.78125 46.015625 
Q 21.828125 43.65625 18.703125 38.8125 
Q 16.40625 35.203125 15.15625 30.5625 
Q 13.921875 25.921875 13.921875 21 
z
" id="DejaVuSans-Oblique-6f"/>
      <path d="M 41.796875 8.203125 
Q 38.1875 3.46875 33.25 1.015625 
Q 28.328125 -1.421875 22.3125 -1.421875 
Q 14.109375 -1.421875 9.34375 4.171875 
Q 4.59375 9.765625 4.59375 19.484375 
Q 4.59375 27.59375 7.46875 34.9375 
Q 10.359375 42.28125 15.828125 48.09375 
Q 19.4375 51.953125 23.96875 53.96875 
Q 28.515625 56 33.5 56 
Q 38.765625 56 42.796875 53.453125 
Q 46.828125 50.921875 49.03125 46.1875 
L 54.890625 75.984375 
L 63.921875 75.984375 
L 49.125 0 
L 40.09375 0 
z
M 13.921875 21.09375 
Q 13.921875 14.015625 17.109375 10.0625 
Q 20.3125 6.109375 25.984375 6.109375 
Q 30.171875 6.109375 33.765625 8.125 
Q 37.359375 10.15625 40.09375 14.109375 
Q 42.96875 18.21875 44.625 23.578125 
Q 46.296875 28.953125 46.296875 34.1875 
Q 46.296875 40.96875 43.09375 44.765625 
Q 39.890625 48.578125 34.28125 48.578125 
Q 30.03125 48.578125 26.359375 46.578125 
Q 22.703125 44.578125 20.125 40.828125 
Q 17.28125 36.765625 15.59375 31.390625 
Q 13.921875 26.03125 13.921875 21.09375 
z
" id="DejaVuSans-Oblique-64"/>
      <path d="M 49.609375 33.6875 
Q 49.609375 40.875 46.484375 44.671875 
Q 43.359375 48.484375 37.5 48.484375 
Q 33.5 48.484375 29.859375 46.4375 
Q 26.21875 44.390625 23.390625 40.484375 
Q 20.609375 36.625 18.9375 31.15625 
Q 17.28125 25.6875 17.28125 20.3125 
Q 17.28125 13.484375 20.40625 9.796875 
Q 23.53125 6.109375 29.296875 6.109375 
Q 33.546875 6.109375 37.1875 8.109375 
Q 40.828125 10.109375 43.40625 13.921875 
Q 46.1875 17.921875 47.890625 23.34375 
Q 49.609375 28.765625 49.609375 33.6875 
z
M 21.78125 46.390625 
Q 25.390625 51.125 30.296875 53.5625 
Q 35.203125 56 41.21875 56 
Q 49.609375 56 54.25 50.5 
Q 58.890625 45.015625 58.890625 35.109375 
Q 58.890625 27 56 19.65625 
Q 53.125 12.3125 47.703125 6.5 
Q 44.09375 2.640625 39.546875 0.609375 
Q 35.015625 -1.421875 29.984375 -1.421875 
Q 24.171875 -1.421875 20.21875 1 
Q 16.265625 3.421875 14.3125 8.203125 
L 8.6875 -20.796875 
L -0.296875 -20.796875 
L 14.40625 54.6875 
L 23.390625 54.6875 
z
" id="DejaVuSans-Oblique-70"/>
      <path d="M 31 75.875 
Q 24.46875 64.65625 21.28125 53.65625 
Q 18.109375 42.671875 18.109375 31.390625 
Q 18.109375 20.125 21.3125 9.0625 
Q 24.515625 -2 31 -13.1875 
L 23.1875 -13.1875 
Q 15.875 -1.703125 12.234375 9.375 
Q 8.59375 20.453125 8.59375 31.390625 
Q 8.59375 42.28125 12.203125 53.3125 
Q 15.828125 64.359375 23.1875 75.875 
z
" id="DejaVuSans-28"/>
      <path d="M 16.890625 72.90625 
L 38.09375 72.90625 
Q 54.984375 72.90625 63.59375 65.75 
Q 72.21875 58.59375 72.21875 44.484375 
Q 72.21875 35.15625 68.9375 26.53125 
Q 65.671875 17.921875 59.90625 12.015625 
Q 54.109375 5.953125 45.171875 2.96875 
Q 36.234375 0 24.03125 0 
L 2.6875 0 
z
M 25.203125 64.796875 
L 14.203125 8.109375 
L 27.09375 8.109375 
Q 43.65625 8.109375 52.734375 17.625 
Q 61.8125 27.15625 61.8125 44.484375 
Q 61.8125 54.984375 55.953125 59.890625 
Q 50.09375 64.796875 37.59375 64.796875 
z
" id="DejaVuSans-Oblique-44"/>
      <path d="M 21 76.421875 
L 21 -23.578125 
L 12.703125 -23.578125 
L 12.703125 76.421875 
z
" id="DejaVuSans-7c"/>
      <path d="M 8.015625 75.875 
L 15.828125 75.875 
Q 23.140625 64.359375 26.78125 53.3125 
Q 30.421875 42.28125 30.421875 31.390625 
Q 30.421875 20.453125 26.78125 9.375 
Q 23.140625 -1.703125 15.828125 -13.1875 
L 8.015625 -13.1875 
Q 14.5 -2 17.703125 9.0625 
Q 20.90625 20.125 20.90625 31.390625 
Q 20.90625 42.671875 17.703125 53.65625 
Q 14.5 64.65625 8.015625 75.875 
z
" id="DejaVuSans-29"/>
     </defs>
     <g transform="translate(328.708 37.14)scale(0.1 -0.1)">
      <use transform="translate(0 0.234375)" xlink:href="#DejaVuSans-Oblique-4c"/>
      <use transform="translate(55.712891 0.234375)" xlink:href="#DejaVuSans-Oblique-69"/>
      <use transform="translate(83.496094 0.234375)" xlink:href="#DejaVuSans-Oblique-6b"/>
      <use transform="translate(141.40625 0.234375)" xlink:href="#DejaVuSans-Oblique-65"/>
      <use transform="translate(202.929688 0.234375)" xlink:href="#DejaVuSans-Oblique-6c"/>
      <use transform="translate(230.712891 0.234375)" xlink:href="#DejaVuSans-Oblique-69"/>
      <use transform="translate(258.496094 0.234375)" xlink:href="#DejaVuSans-Oblique-68"/>
      <use transform="translate(321.875 0.234375)" xlink:href="#DejaVuSans-Oblique-6f"/>
      <use transform="translate(383.056641 0.234375)" xlink:href="#DejaVuSans-Oblique-6f"/>
      <use transform="translate(444.238281 0.234375)" xlink:href="#DejaVuSans-Oblique-64"/>
      <use transform="translate(540.186196 0.234375)" xlink:href="#DejaVuSans-Oblique-70"/>
      <use transform="translate(603.662759 0.234375)" xlink:href="#DejaVuSans-28"/>
      <use transform="translate(642.676431 0.234375)" xlink:href="#DejaVuSans-Oblique-44"/>
      <use transform="translate(719.678384 0.234375)" xlink:href="#DejaVuSans-7c"/>
      <use transform="translate(753.36979 0.234375)" xlink:href="#DejaVuSans-Oblique-3b8"/>
      <use transform="translate(814.551431 0.234375)" xlink:href="#DejaVuSans-29"/>
     </g>
    </g>
    <g id="line2d_13">
     <path d="M 300.708 48.74 
L 320.708 48.74 
" style="fill:none;stroke:#1f77b4;stroke-dasharray:3.7,1.6;stroke-dashoffset:0;"/>
    </g>
    <g id="line2d_14"/>
    <g id="text_14">
     <!-- $Prior\/\/p(\theta)$ -->
     <defs>
      <path d="M 16.890625 72.90625 
L 39.703125 72.90625 
Q 49.65625 72.90625 54.875 68.265625 
Q 60.109375 63.625 60.109375 54.6875 
Q 60.109375 42.671875 52.390625 35.984375 
Q 44.671875 29.296875 30.71875 29.296875 
L 18.3125 29.296875 
L 12.59375 0 
L 2.6875 0 
z
M 25.203125 64.796875 
L 19.921875 37.40625 
L 32.328125 37.40625 
Q 40.71875 37.40625 45.203125 41.703125 
Q 49.703125 46 49.703125 54 
Q 49.703125 59.125 46.65625 61.953125 
Q 43.609375 64.796875 38.09375 64.796875 
z
" id="DejaVuSans-Oblique-50"/>
      <path d="M 44.578125 46.390625 
Q 43.21875 47.125 41.453125 47.515625 
Q 39.703125 47.90625 37.703125 47.90625 
Q 30.515625 47.90625 25.140625 42.453125 
Q 19.78125 37.015625 18.015625 27.875 
L 12.5 0 
L 3.515625 0 
L 14.203125 54.6875 
L 23.1875 54.6875 
L 21.484375 46.1875 
Q 25.046875 50.921875 30 53.453125 
Q 34.96875 56 40.578125 56 
Q 42.046875 56 43.453125 55.828125 
Q 44.875 55.671875 46.296875 55.28125 
z
" id="DejaVuSans-Oblique-72"/>
     </defs>
     <g transform="translate(328.708 52.24)scale(0.1 -0.1)">
      <use transform="translate(0 0.234375)" xlink:href="#DejaVuSans-Oblique-50"/>
      <use transform="translate(60.302734 0.234375)" xlink:href="#DejaVuSans-Oblique-72"/>
      <use transform="translate(101.416016 0.234375)" xlink:href="#DejaVuSans-Oblique-69"/>
      <use transform="translate(129.199219 0.234375)" xlink:href="#DejaVuSans-Oblique-6f"/>
      <use transform="translate(190.380859 0.234375)" xlink:href="#DejaVuSans-Oblique-72"/>
      <use transform="translate(263.965493 0.234375)" xlink:href="#DejaVuSans-Oblique-70"/>
      <use transform="translate(327.442056 0.234375)" xlink:href="#DejaVuSans-28"/>
      <use transform="translate(366.455728 0.234375)" xlink:href="#DejaVuSans-Oblique-3b8"/>
      <use transform="translate(427.637368 0.234375)" xlink:href="#DejaVuSans-29"/>
     </g>
    </g>
    <g id="line2d_15">
     <path d="M 300.708 63.54 
L 320.708 63.54 
" style="fill:none;stroke:#1f77b4;stroke-linecap:square;"/>
    </g>
    <g id="line2d_16"/>
    <g id="text_15">
     <!-- $Posterior\/\/p(\theta|D)$ -->
     <defs>
      <path d="M 50 53.078125 
L 48.296875 44.578125 
Q 44.734375 46.53125 40.765625 47.5 
Q 36.8125 48.484375 32.625 48.484375 
Q 25.53125 48.484375 21.453125 46.0625 
Q 17.390625 43.65625 17.390625 39.5 
Q 17.390625 34.671875 26.859375 32.078125 
Q 27.59375 31.890625 27.9375 31.78125 
L 30.8125 30.90625 
Q 39.796875 28.421875 42.796875 25.6875 
Q 45.796875 22.953125 45.796875 18.21875 
Q 45.796875 9.515625 38.890625 4.046875 
Q 31.984375 -1.421875 20.796875 -1.421875 
Q 16.453125 -1.421875 11.671875 -0.578125 
Q 6.890625 0.25 1.125 2 
L 2.875 11.28125 
Q 7.8125 8.734375 12.59375 7.421875 
Q 17.390625 6.109375 21.78125 6.109375 
Q 28.375 6.109375 32.5 8.9375 
Q 36.625 11.765625 36.625 16.109375 
Q 36.625 20.796875 25.78125 23.6875 
L 24.859375 23.921875 
L 21.78125 24.703125 
Q 14.9375 26.515625 11.765625 29.46875 
Q 8.59375 32.421875 8.59375 37.015625 
Q 8.59375 45.75 15.15625 50.875 
Q 21.734375 56 33.015625 56 
Q 37.453125 56 41.671875 55.265625 
Q 45.90625 54.546875 50 53.078125 
z
" id="DejaVuSans-Oblique-73"/>
      <path d="M 42.28125 54.6875 
L 40.921875 47.703125 
L 23 47.703125 
L 17.1875 18.015625 
Q 16.890625 16.359375 16.75 15.234375 
Q 16.609375 14.109375 16.609375 13.484375 
Q 16.609375 10.359375 18.484375 8.9375 
Q 20.359375 7.515625 24.515625 7.515625 
L 33.59375 7.515625 
L 32.078125 0 
L 23.484375 0 
Q 15.484375 0 11.546875 3.125 
Q 7.625 6.25 7.625 12.59375 
Q 7.625 13.71875 7.765625 15.0625 
Q 7.90625 16.40625 8.203125 18.015625 
L 14.015625 47.703125 
L 6.390625 47.703125 
L 7.8125 54.6875 
L 15.28125 54.6875 
L 18.3125 70.21875 
L 27.296875 70.21875 
L 24.3125 54.6875 
z
" id="DejaVuSans-Oblique-74"/>
     </defs>
     <g transform="translate(328.708 67.04)scale(0.1 -0.1)">
      <use transform="translate(0 0.234375)" xlink:href="#DejaVuSans-Oblique-50"/>
      <use transform="translate(60.302734 0.234375)" xlink:href="#DejaVuSans-Oblique-6f"/>
      <use transform="translate(121.484375 0.234375)" xlink:href="#DejaVuSans-Oblique-73"/>
      <use transform="translate(173.583984 0.234375)" xlink:href="#DejaVuSans-Oblique-74"/>
      <use transform="translate(212.792969 0.234375)" xlink:href="#DejaVuSans-Oblique-65"/>
      <use transform="translate(274.316406 0.234375)" xlink:href="#DejaVuSans-Oblique-72"/>
      <use transform="translate(315.429688 0.234375)" xlink:href="#DejaVuSans-Oblique-69"/>
      <use transform="translate(343.212891 0.234375)" xlink:href="#DejaVuSans-Oblique-6f"/>
      <use transform="translate(404.394531 0.234375)" xlink:href="#DejaVuSans-Oblique-72"/>
      <use transform="translate(477.979165 0.234375)" xlink:href="#DejaVuSans-Oblique-70"/>
      <use transform="translate(541.455728 0.234375)" xlink:href="#DejaVuSans-28"/>
      <use transform="translate(580.469399 0.234375)" xlink:href="#DejaVuSans-Oblique-3b8"/>
      <use transform="translate(641.65104 0.234375)" xlink:href="#DejaVuSans-7c"/>
      <use transform="translate(675.342446 0.234375)" xlink:href="#DejaVuSans-Oblique-44"/>
      <use transform="translate(752.344399 0.234375)" xlink:href="#DejaVuSans-29"/>
     </g>
    </g>
   </g>
  </g>
  <g id="axes_3"/>
  <g id="axes_4">
   <g id="patch_13">
    <path d="M 24.88 306.52 
L 139.84 306.52 
L 139.84 192.84 
L 24.88 192.84 
z
" style="fill:#ffffff;"/>
   </g>
   <g id="matplotlib.axis_5">
    <g id="xtick_5">
     <g id="line2d_17">
      <g>
       <use style="stroke:#000000;stroke-width:0.8;" x="26.007059" xlink:href="#m1133e0d19d" y="306.52"/>
      </g>
     </g>
     <g id="text_16">
      <!-- 0 -->
      <g transform="translate(24.098309 318.079062)scale(0.06 -0.06)">
       <use xlink:href="#DejaVuSans-30"/>
      </g>
     </g>
    </g>
    <g id="xtick_6">
     <g id="line2d_18">
      <g>
       <use style="stroke:#000000;stroke-width:0.8;" x="138.712941" xlink:href="#m1133e0d19d" y="306.52"/>
      </g>
     </g>
     <g id="text_17">
      <!-- 1 -->
      <g transform="translate(136.804191 318.079062)scale(0.06 -0.06)">
       <use xlink:href="#DejaVuSans-31"/>
      </g>
     </g>
    </g>
    <g id="text_18">
     <!-- $\theta$ -->
     <g transform="translate(79.26 330.925312)scale(0.1 -0.1)">
      <use transform="translate(0 0.234375)" xlink:href="#DejaVuSans-Oblique-3b8"/>
     </g>
    </g>
   </g>
   <g id="matplotlib.axis_6">
    <g id="text_19">
     <!-- Density -->
     <g transform="translate(18.800313 268.688594)rotate(-90)scale(0.1 -0.1)">
      <use xlink:href="#DejaVuSans-44"/>
      <use x="77.001953" xlink:href="#DejaVuSans-65"/>
      <use x="138.525391" xlink:href="#DejaVuSans-6e"/>
      <use x="201.904297" xlink:href="#DejaVuSans-73"/>
      <use x="254.003906" xlink:href="#DejaVuSans-69"/>
      <use x="281.787109" xlink:href="#DejaVuSans-74"/>
      <use x="320.996094" xlink:href="#DejaVuSans-79"/>
     </g>
    </g>
   </g>
   <g id="line2d_19">
    <path clip-path="url(#pa5d43614f9)" d="M 26.007059 305.237838 
L 62.109043 305.135378 
L 63.801324 304.906544 
L 65.042329 304.515013 
L 65.944879 304.014017 
L 66.73461 303.350007 
L 67.524341 302.39712 
L 68.314072 301.065667 
L 69.103803 299.253783 
L 69.893534 296.852105 
L 70.683264 293.751169 
L 71.585814 289.224356 
L 72.488364 283.544065 
L 73.503732 275.721264 
L 74.744738 264.225973 
L 76.437018 246.095393 
L 78.806211 220.790116 
L 79.821579 212.124191 
L 80.61131 207.018101 
L 81.288222 204.018766 
L 81.739497 202.79406 
L 82.077953 202.300122 
L 82.416409 202.176273 
L 82.642047 202.300122 
L 82.980503 202.79406 
L 83.431778 204.018766 
L 83.995871 206.425287 
L 84.672783 210.502483 
L 85.462514 216.685522 
L 86.590701 227.544766 
L 88.734257 251.100721 
L 90.426537 268.630926 
L 91.667543 279.384227 
L 92.79573 287.233588 
L 93.811098 292.722389 
L 94.713648 296.454407 
L 95.616197 299.253783 
L 96.405928 301.065667 
L 97.195659 302.39712 
L 97.98539 303.350007 
L 98.88794 304.089869 
L 99.903308 304.607525 
L 101.031495 304.930247 
L 102.610957 305.135378 
L 105.318606 305.226037 
L 117.841481 305.237838 
L 138.712941 305.237838 
L 138.712941 305.237838 
" style="fill:none;stroke:#1f77b4;stroke-dasharray:1,1.65;stroke-dashoffset:0;"/>
   </g>
   <g id="line2d_20">
    <path clip-path="url(#pa5d43614f9)" d="M 26.007059 305.237838 
L 33.340274 305.127227 
L 36.386379 304.843072 
L 38.868391 304.394209 
L 41.124765 303.76809 
L 43.26832 302.952205 
L 45.411875 301.904378 
L 47.668249 300.544753 
L 50.037442 298.840961 
L 52.519454 296.777177 
L 55.339921 294.1402 
L 59.062938 290.328832 
L 67.411522 281.671507 
L 70.23199 279.13676 
L 72.601182 277.302748 
L 74.744738 275.927108 
L 76.662656 274.955072 
L 78.467755 274.28245 
L 80.160035 273.876557 
L 81.852316 273.694885 
L 83.544596 273.740377 
L 85.236877 274.012295 
L 86.929157 274.506236 
L 88.734257 275.268753 
L 90.652175 276.329954 
L 92.682911 277.711402 
L 94.939285 279.519011 
L 97.534115 281.887783 
L 100.918676 285.303081 
L 110.959541 295.650904 
L 113.780008 298.121659 
L 116.26202 300.007477 
L 118.631212 301.524094 
L 120.887586 302.69937 
L 123.14396 303.614951 
L 125.400334 304.286815 
L 127.769527 304.760669 
L 130.477176 305.06782 
L 133.861737 305.214586 
L 138.712941 305.237838 
L 138.712941 305.237838 
" style="fill:none;stroke:#1f77b4;stroke-dasharray:3.7,1.6;stroke-dashoffset:0;"/>
   </g>
   <g id="line2d_21">
    <path clip-path="url(#pa5d43614f9)" d="M 26.007059 305.237838 
L 62.785955 305.134485 
L 64.478236 304.890547 
L 65.606423 304.514413 
L 66.508973 303.988794 
L 67.298703 303.281077 
L 68.088434 302.252113 
L 68.878165 300.797989 
L 69.667896 298.800181 
L 70.457627 296.131471 
L 71.247358 292.665414 
L 72.149908 287.584525 
L 73.052457 281.197139 
L 74.067825 272.411163 
L 75.308831 259.579763 
L 77.226749 236.974718 
L 79.031848 216.59379 
L 80.047217 207.501235 
L 80.836948 202.328398 
L 81.401041 199.847694 
L 81.852316 198.654659 
L 82.190772 198.238605 
L 82.416409 198.192278 
L 82.642047 198.331199 
L 82.980503 198.885113 
L 83.431778 200.257606 
L 83.995871 202.950643 
L 84.672783 207.501235 
L 85.462514 214.37211 
L 86.590701 226.345093 
L 90.877812 274.506687 
L 92.005999 283.74993 
L 93.021367 290.282431 
L 93.923917 294.750703 
L 94.826466 298.111794 
L 95.616197 300.288132 
L 96.405928 301.88498 
L 97.195659 303.024099 
L 97.98539 303.813987 
L 98.88794 304.405789 
L 99.903308 304.802382 
L 101.257132 305.067226 
L 103.287869 305.202418 
L 108.477529 305.23761 
L 138.712941 305.237838 
L 138.712941 305.237838 
" style="fill:none;stroke:#1f77b4;stroke-linecap:square;"/>
   </g>
   <g id="patch_14">
    <path d="M 24.88 306.52 
L 24.88 192.84 
" style="fill:none;stroke:#000000;stroke-linecap:square;stroke-linejoin:miter;stroke-width:0.8;"/>
   </g>
   <g id="patch_15">
    <path d="M 139.84 306.52 
L 139.84 192.84 
" style="fill:none;stroke:#000000;stroke-linecap:square;stroke-linejoin:miter;stroke-width:0.8;"/>
   </g>
   <g id="patch_16">
    <path d="M 24.88 306.52 
L 139.84 306.52 
" style="fill:none;stroke:#000000;stroke-linecap:square;stroke-linejoin:miter;stroke-width:0.8;"/>
   </g>
   <g id="patch_17">
    <path d="M 24.88 192.84 
L 139.84 192.84 
" style="fill:none;stroke:#000000;stroke-linecap:square;stroke-linejoin:miter;stroke-width:0.8;"/>
   </g>
   <g id="text_20">
    <!-- $\alpha=5,\/\/\beta=5$ -->
    <defs>
     <path d="M 10.796875 72.90625 
L 49.515625 72.90625 
L 49.515625 64.59375 
L 19.828125 64.59375 
L 19.828125 46.734375 
Q 21.96875 47.46875 24.109375 47.828125 
Q 26.265625 48.1875 28.421875 48.1875 
Q 40.625 48.1875 47.75 41.5 
Q 54.890625 34.8125 54.890625 23.390625 
Q 54.890625 11.625 47.5625 5.09375 
Q 40.234375 -1.421875 26.90625 -1.421875 
Q 22.3125 -1.421875 17.546875 -0.640625 
Q 12.796875 0.140625 7.71875 1.703125 
L 7.71875 11.625 
Q 12.109375 9.234375 16.796875 8.0625 
Q 21.484375 6.890625 26.703125 6.890625 
Q 35.15625 6.890625 40.078125 11.328125 
Q 45.015625 15.765625 45.015625 23.390625 
Q 45.015625 31 40.078125 35.4375 
Q 35.15625 39.890625 26.703125 39.890625 
Q 22.75 39.890625 18.8125 39.015625 
Q 14.890625 38.140625 10.796875 36.28125 
z
" id="DejaVuSans-35"/>
    </defs>
    <g transform="translate(96.9388 202.4776)scale(0.06 -0.06)">
     <use transform="translate(0 0.390625)" xlink:href="#DejaVuSans-Oblique-3b1"/>
     <use transform="translate(85.400391 0.390625)" xlink:href="#DejaVuSans-3d"/>
     <use transform="translate(188.671875 0.390625)" xlink:href="#DejaVuSans-35"/>
     <use transform="translate(252.294922 0.390625)" xlink:href="#DejaVuSans-2c"/>
     <use transform="translate(336.035806 0.390625)" xlink:href="#DejaVuSans-Oblique-3b2"/>
     <use transform="translate(419.336587 0.390625)" xlink:href="#DejaVuSans-3d"/>
     <use transform="translate(522.608071 0.390625)" xlink:href="#DejaVuSans-35"/>
    </g>
   </g>
   <g id="text_21">
    <!-- $M_3$ -->
    <defs>
     <path d="M 40.578125 39.3125 
Q 47.65625 37.796875 51.625 33 
Q 55.609375 28.21875 55.609375 21.1875 
Q 55.609375 10.40625 48.1875 4.484375 
Q 40.765625 -1.421875 27.09375 -1.421875 
Q 22.515625 -1.421875 17.65625 -0.515625 
Q 12.796875 0.390625 7.625 2.203125 
L 7.625 11.71875 
Q 11.71875 9.328125 16.59375 8.109375 
Q 21.484375 6.890625 26.8125 6.890625 
Q 36.078125 6.890625 40.9375 10.546875 
Q 45.796875 14.203125 45.796875 21.1875 
Q 45.796875 27.640625 41.28125 31.265625 
Q 36.765625 34.90625 28.71875 34.90625 
L 20.21875 34.90625 
L 20.21875 43.015625 
L 29.109375 43.015625 
Q 36.375 43.015625 40.234375 45.921875 
Q 44.09375 48.828125 44.09375 54.296875 
Q 44.09375 59.90625 40.109375 62.90625 
Q 36.140625 65.921875 28.71875 65.921875 
Q 24.65625 65.921875 20.015625 65.03125 
Q 15.375 64.15625 9.8125 62.3125 
L 9.8125 71.09375 
Q 15.4375 72.65625 20.34375 73.4375 
Q 25.25 74.21875 29.59375 74.21875 
Q 40.828125 74.21875 47.359375 69.109375 
Q 53.90625 64.015625 53.90625 55.328125 
Q 53.90625 49.265625 50.4375 45.09375 
Q 46.96875 40.921875 40.578125 39.3125 
z
" id="DejaVuSans-33"/>
    </defs>
    <g transform="translate(24.88 186.84)scale(0.1 -0.1)">
     <use transform="translate(0 0.09375)" xlink:href="#DejaVuSans-Oblique-4d"/>
     <use transform="translate(86.279297 -16.3125)scale(0.7)" xlink:href="#DejaVuSans-33"/>
    </g>
   </g>
  </g>
  <g id="axes_5">
   <g id="patch_18">
    <path d="M 176 306.52 
L 290.96 306.52 
L 290.96 192.84 
L 176 192.84 
z
" style="fill:#ffffff;"/>
   </g>
   <g id="matplotlib.axis_7">
    <g id="xtick_7">
     <g id="line2d_22">
      <g>
       <use style="stroke:#000000;stroke-width:0.8;" x="177.127059" xlink:href="#m1133e0d19d" y="306.52"/>
      </g>
     </g>
     <g id="text_22">
      <!-- 0 -->
      <g transform="translate(175.218309 318.079062)scale(0.06 -0.06)">
       <use xlink:href="#DejaVuSans-30"/>
      </g>
     </g>
    </g>
    <g id="xtick_8">
     <g id="line2d_23">
      <g>
       <use style="stroke:#000000;stroke-width:0.8;" x="289.832941" xlink:href="#m1133e0d19d" y="306.52"/>
      </g>
     </g>
     <g id="text_23">
      <!-- 1 -->
      <g transform="translate(287.924191 318.079062)scale(0.06 -0.06)">
       <use xlink:href="#DejaVuSans-31"/>
      </g>
     </g>
    </g>
    <g id="text_24">
     <!-- $\theta$ -->
     <g transform="translate(230.38 330.925312)scale(0.1 -0.1)">
      <use transform="translate(0 0.234375)" xlink:href="#DejaVuSans-Oblique-3b8"/>
     </g>
    </g>
   </g>
   <g id="matplotlib.axis_8">
    <g id="text_25">
     <!-- Density -->
     <g transform="translate(169.920312 268.688594)rotate(-90)scale(0.1 -0.1)">
      <use xlink:href="#DejaVuSans-44"/>
      <use x="77.001953" xlink:href="#DejaVuSans-65"/>
      <use x="138.525391" xlink:href="#DejaVuSans-6e"/>
      <use x="201.904297" xlink:href="#DejaVuSans-73"/>
      <use x="254.003906" xlink:href="#DejaVuSans-69"/>
      <use x="281.787109" xlink:href="#DejaVuSans-74"/>
      <use x="320.996094" xlink:href="#DejaVuSans-79"/>
     </g>
    </g>
   </g>
   <g id="line2d_24">
    <path clip-path="url(#p4eecf8c250)" d="M 177.127059 305.215032 
L 213.229043 305.110749 
L 214.921324 304.877845 
L 216.049511 304.527855 
L 216.95206 304.046642 
L 217.741791 303.406216 
L 218.531522 302.483643 
L 219.321253 301.189647 
L 220.110984 299.422093 
L 220.900715 297.070367 
L 221.690446 294.022506 
L 222.592995 289.555034 
L 223.495545 283.924633 
L 224.510913 276.133377 
L 225.6391 265.745452 
L 227.218562 248.848143 
L 230.03903 218.186427 
L 231.054398 209.604133 
L 231.844129 204.644839 
L 232.408222 202.195512 
L 232.859497 200.949022 
L 233.197953 200.446298 
L 233.536409 200.320246 
L 233.762047 200.446298 
L 234.100503 200.949022 
L 234.551778 202.195512 
L 235.115871 204.644839 
L 235.792783 208.794559 
L 236.582514 215.087579 
L 237.710701 226.139983 
L 239.854257 250.114944 
L 241.546537 267.956969 
L 242.787543 278.901546 
L 243.91573 286.890529 
L 244.931098 292.476962 
L 245.833648 296.275364 
L 246.736197 299.124535 
L 247.525928 300.968648 
L 248.315659 302.323784 
L 249.10539 303.29362 
L 250.00794 304.046642 
L 251.023308 304.573507 
L 252.151495 304.901969 
L 253.730957 305.110749 
L 256.438606 305.203021 
L 268.735844 305.215032 
L 289.832941 305.215032 
L 289.832941 305.215032 
" style="fill:none;stroke:#1f77b4;stroke-dasharray:1,1.65;stroke-dashoffset:0;"/>
   </g>
   <g id="line2d_25">
    <path clip-path="url(#p4eecf8c250)" d="M 177.127059 239.96662 
L 180.173164 246.739652 
L 183.219269 252.971175 
L 186.265374 258.690853 
L 189.311479 263.927511 
L 192.244765 268.539837 
L 195.178051 272.754485 
L 198.111337 276.594996 
L 201.044623 280.084197 
L 204.090728 283.35945 
L 207.136833 286.303623 
L 210.182938 288.939814 
L 213.229043 291.290292 
L 216.387967 293.448948 
L 219.659709 295.409537 
L 222.931451 297.114253 
L 226.316012 298.633279 
L 229.926211 300.006851 
L 233.649228 301.185771 
L 237.597883 302.204578 
L 241.884993 303.07774 
L 246.51056 303.790629 
L 251.70022 304.360015 
L 257.679611 304.782829 
L 264.900008 305.058761 
L 274.715235 305.19391 
L 289.832941 305.215032 
L 289.832941 305.215032 
" style="fill:none;stroke:#1f77b4;stroke-dasharray:3.7,1.6;stroke-dashoffset:0;"/>
   </g>
   <g id="line2d_26">
    <path clip-path="url(#p4eecf8c250)" d="M 177.127059 305.215032 
L 211.649581 305.106877 
L 213.341862 304.851923 
L 214.470049 304.460444 
L 215.372598 303.915644 
L 216.162329 303.185022 
L 216.95206 302.127065 
L 217.741791 300.638329 
L 218.531522 298.601906 
L 219.321253 295.893605 
L 220.110984 292.391496 
L 221.013534 287.281225 
L 221.916083 280.886427 
L 222.931451 272.129627 
L 224.172457 259.398179 
L 226.203194 235.726074 
L 227.895474 216.924603 
L 228.910843 207.877878 
L 229.700574 202.662483 
L 230.264667 200.101529 
L 230.715942 198.812659 
L 231.054398 198.306288 
L 231.392854 198.200642 
L 231.618491 198.35341 
L 231.956948 198.915215 
L 232.408222 200.273939 
L 232.972316 202.911589 
L 233.649228 207.344457 
L 234.551778 215.087231 
L 235.679965 226.912456 
L 239.967075 274.030183 
L 241.095262 283.152436 
L 242.110631 289.659483 
L 243.01318 294.158449 
L 243.91573 297.584325 
L 244.818279 300.104334 
L 245.60801 301.705384 
L 246.397741 302.861721 
L 247.300291 303.768482 
L 248.20284 304.35437 
L 249.218209 304.75397 
L 250.572033 305.027657 
L 252.60277 305.173399 
L 257.341155 305.214471 
L 289.832941 305.215032 
L 289.832941 305.215032 
" style="fill:none;stroke:#1f77b4;stroke-linecap:square;"/>
   </g>
   <g id="patch_19">
    <path d="M 176 306.52 
L 176 192.84 
" style="fill:none;stroke:#000000;stroke-linecap:square;stroke-linejoin:miter;stroke-width:0.8;"/>
   </g>
   <g id="patch_20">
    <path d="M 290.96 306.52 
L 290.96 192.84 
" style="fill:none;stroke:#000000;stroke-linecap:square;stroke-linejoin:miter;stroke-width:0.8;"/>
   </g>
   <g id="patch_21">
    <path d="M 176 306.52 
L 290.96 306.52 
" style="fill:none;stroke:#000000;stroke-linecap:square;stroke-linejoin:miter;stroke-width:0.8;"/>
   </g>
   <g id="patch_22">
    <path d="M 176 192.84 
L 290.96 192.84 
" style="fill:none;stroke:#000000;stroke-linecap:square;stroke-linejoin:miter;stroke-width:0.8;"/>
   </g>
   <g id="text_26">
    <!-- $\alpha=1,\/\/\beta=5$ -->
    <g transform="translate(248.0588 202.4776)scale(0.06 -0.06)">
     <use transform="translate(0 0.390625)" xlink:href="#DejaVuSans-Oblique-3b1"/>
     <use transform="translate(85.400391 0.390625)" xlink:href="#DejaVuSans-3d"/>
     <use transform="translate(188.671875 0.390625)" xlink:href="#DejaVuSans-31"/>
     <use transform="translate(252.294922 0.390625)" xlink:href="#DejaVuSans-2c"/>
     <use transform="translate(336.035806 0.390625)" xlink:href="#DejaVuSans-Oblique-3b2"/>
     <use transform="translate(419.336587 0.390625)" xlink:href="#DejaVuSans-3d"/>
     <use transform="translate(522.608071 0.390625)" xlink:href="#DejaVuSans-35"/>
    </g>
   </g>
   <g id="text_27">
    <!-- $M_4$ -->
    <defs>
     <path d="M 37.796875 64.3125 
L 12.890625 25.390625 
L 37.796875 25.390625 
z
M 35.203125 72.90625 
L 47.609375 72.90625 
L 47.609375 25.390625 
L 58.015625 25.390625 
L 58.015625 17.1875 
L 47.609375 17.1875 
L 47.609375 0 
L 37.796875 0 
L 37.796875 17.1875 
L 4.890625 17.1875 
L 4.890625 26.703125 
z
" id="DejaVuSans-34"/>
    </defs>
    <g transform="translate(176 186.84)scale(0.1 -0.1)">
     <use transform="translate(0 0.09375)" xlink:href="#DejaVuSans-Oblique-4d"/>
     <use transform="translate(86.279297 -16.3125)scale(0.7)" xlink:href="#DejaVuSans-34"/>
    </g>
   </g>
  </g>
  <g id="axes_6">
   <g id="patch_23">
    <path d="M 327.12 306.52 
L 442.08 306.52 
L 442.08 192.84 
L 327.12 192.84 
z
" style="fill:#ffffff;"/>
   </g>
   <g id="patch_24">
    <path clip-path="url(#p7527931486)" d="M 332.345455 306.52 
L 354.347368 306.52 
L 354.347368 260.825088 
L 332.345455 260.825088 
z
" style="fill:#1f77b4;"/>
   </g>
   <g id="patch_25">
    <path clip-path="url(#p7527931486)" d="M 359.847847 306.52 
L 381.849761 306.52 
L 381.849761 273.450239 
L 359.847847 273.450239 
z
" style="fill:#1f77b4;"/>
   </g>
   <g id="patch_26">
    <path clip-path="url(#p7527931486)" d="M 387.350239 306.52 
L 409.352153 306.52 
L 409.352153 198.253333 
L 387.350239 198.253333 
z
" style="fill:#1f77b4;"/>
   </g>
   <g id="patch_27">
    <path clip-path="url(#p7527931486)" d="M 414.852632 306.52 
L 436.854545 306.52 
L 436.854545 291.404554 
L 414.852632 291.404554 
z
" style="fill:#1f77b4;"/>
   </g>
   <g id="matplotlib.axis_9">
    <g id="xtick_9">
     <g id="line2d_27">
      <g>
       <use style="stroke:#000000;stroke-width:0.8;" x="343.346411" xlink:href="#m1133e0d19d" y="306.52"/>
      </g>
     </g>
     <g id="text_28">
      <!-- $M_1$ -->
      <g transform="translate(336.646411 321.118437)scale(0.1 -0.1)">
       <use transform="translate(0 0.09375)" xlink:href="#DejaVuSans-Oblique-4d"/>
       <use transform="translate(86.279297 -16.3125)scale(0.7)" xlink:href="#DejaVuSans-31"/>
      </g>
     </g>
    </g>
    <g id="xtick_10">
     <g id="line2d_28">
      <g>
       <use style="stroke:#000000;stroke-width:0.8;" x="370.848804" xlink:href="#m1133e0d19d" y="306.52"/>
      </g>
     </g>
     <g id="text_29">
      <!-- $M_2$ -->
      <g transform="translate(364.148804 321.118437)scale(0.1 -0.1)">
       <use transform="translate(0 0.09375)" xlink:href="#DejaVuSans-Oblique-4d"/>
       <use transform="translate(86.279297 -16.3125)scale(0.7)" xlink:href="#DejaVuSans-32"/>
      </g>
     </g>
    </g>
    <g id="xtick_11">
     <g id="line2d_29">
      <g>
       <use style="stroke:#000000;stroke-width:0.8;" x="398.351196" xlink:href="#m1133e0d19d" y="306.52"/>
      </g>
     </g>
     <g id="text_30">
      <!-- $M_3$ -->
      <g transform="translate(391.651196 321.118437)scale(0.1 -0.1)">
       <use transform="translate(0 0.09375)" xlink:href="#DejaVuSans-Oblique-4d"/>
       <use transform="translate(86.279297 -16.3125)scale(0.7)" xlink:href="#DejaVuSans-33"/>
      </g>
     </g>
    </g>
    <g id="xtick_12">
     <g id="line2d_30">
      <g>
       <use style="stroke:#000000;stroke-width:0.8;" x="425.853589" xlink:href="#m1133e0d19d" y="306.52"/>
      </g>
     </g>
     <g id="text_31">
      <!-- $M_4$ -->
      <g transform="translate(419.153589 321.118437)scale(0.1 -0.1)">
       <use transform="translate(0 0.09375)" xlink:href="#DejaVuSans-Oblique-4d"/>
       <use transform="translate(86.279297 -16.3125)scale(0.7)" xlink:href="#DejaVuSans-34"/>
      </g>
     </g>
    </g>
   </g>
   <g id="matplotlib.axis_10">
    <g id="text_32">
     <!-- P(D) -->
     <defs>
      <path d="M 19.671875 64.796875 
L 19.671875 37.40625 
L 32.078125 37.40625 
Q 38.96875 37.40625 42.71875 40.96875 
Q 46.484375 44.53125 46.484375 51.125 
Q 46.484375 57.671875 42.71875 61.234375 
Q 38.96875 64.796875 32.078125 64.796875 
z
M 9.8125 72.90625 
L 32.078125 72.90625 
Q 44.34375 72.90625 50.609375 67.359375 
Q 56.890625 61.8125 56.890625 51.125 
Q 56.890625 40.328125 50.609375 34.8125 
Q 44.34375 29.296875 32.078125 29.296875 
L 19.671875 29.296875 
L 19.671875 0 
L 9.8125 0 
z
" id="DejaVuSans-50"/>
     </defs>
     <g transform="translate(321.040313 260.446406)rotate(-90)scale(0.1 -0.1)">
      <use xlink:href="#DejaVuSans-50"/>
      <use x="60.302734" xlink:href="#DejaVuSans-28"/>
      <use x="99.316406" xlink:href="#DejaVuSans-44"/>
      <use x="176.318359" xlink:href="#DejaVuSans-29"/>
     </g>
    </g>
   </g>
   <g id="patch_28">
    <path d="M 327.12 306.52 
L 327.12 192.84 
" style="fill:none;stroke:#000000;stroke-linecap:square;stroke-linejoin:miter;stroke-width:0.8;"/>
   </g>
   <g id="patch_29">
    <path d="M 442.08 306.52 
L 442.08 192.84 
" style="fill:none;stroke:#000000;stroke-linecap:square;stroke-linejoin:miter;stroke-width:0.8;"/>
   </g>
   <g id="patch_30">
    <path d="M 327.12 306.52 
L 442.08 306.52 
" style="fill:none;stroke:#000000;stroke-linecap:square;stroke-linejoin:miter;stroke-width:0.8;"/>
   </g>
   <g id="patch_31">
    <path d="M 327.12 192.84 
L 442.08 192.84 
" style="fill:none;stroke:#000000;stroke-linecap:square;stroke-linejoin:miter;stroke-width:0.8;"/>
   </g>
   <g id="text_33">
    <!-- Marginal Likelihoods -->
    <defs>
     <path d="M 9.8125 72.90625 
L 24.515625 72.90625 
L 43.109375 23.296875 
L 61.8125 72.90625 
L 76.515625 72.90625 
L 76.515625 0 
L 66.890625 0 
L 66.890625 64.015625 
L 48.09375 14.015625 
L 38.1875 14.015625 
L 19.390625 64.015625 
L 19.390625 0 
L 9.8125 0 
z
" id="DejaVuSans-4d"/>
     <path d="M 34.28125 27.484375 
Q 23.390625 27.484375 19.1875 25 
Q 14.984375 22.515625 14.984375 16.5 
Q 14.984375 11.71875 18.140625 8.90625 
Q 21.296875 6.109375 26.703125 6.109375 
Q 34.1875 6.109375 38.703125 11.40625 
Q 43.21875 16.703125 43.21875 25.484375 
L 43.21875 27.484375 
z
M 52.203125 31.203125 
L 52.203125 0 
L 43.21875 0 
L 43.21875 8.296875 
Q 40.140625 3.328125 35.546875 0.953125 
Q 30.953125 -1.421875 24.3125 -1.421875 
Q 15.921875 -1.421875 10.953125 3.296875 
Q 6 8.015625 6 15.921875 
Q 6 25.140625 12.171875 29.828125 
Q 18.359375 34.515625 30.609375 34.515625 
L 43.21875 34.515625 
L 43.21875 35.40625 
Q 43.21875 41.609375 39.140625 45 
Q 35.0625 48.390625 27.6875 48.390625 
Q 23 48.390625 18.546875 47.265625 
Q 14.109375 46.140625 10.015625 43.890625 
L 10.015625 52.203125 
Q 14.9375 54.109375 19.578125 55.046875 
Q 24.21875 56 28.609375 56 
Q 40.484375 56 46.34375 49.84375 
Q 52.203125 43.703125 52.203125 31.203125 
z
" id="DejaVuSans-61"/>
     <path d="M 41.109375 46.296875 
Q 39.59375 47.171875 37.8125 47.578125 
Q 36.03125 48 33.890625 48 
Q 26.265625 48 22.1875 43.046875 
Q 18.109375 38.09375 18.109375 28.8125 
L 18.109375 0 
L 9.078125 0 
L 9.078125 54.6875 
L 18.109375 54.6875 
L 18.109375 46.1875 
Q 20.953125 51.171875 25.484375 53.578125 
Q 30.03125 56 36.53125 56 
Q 37.453125 56 38.578125 55.875 
Q 39.703125 55.765625 41.0625 55.515625 
z
" id="DejaVuSans-72"/>
     <path d="M 45.40625 27.984375 
Q 45.40625 37.75 41.375 43.109375 
Q 37.359375 48.484375 30.078125 48.484375 
Q 22.859375 48.484375 18.828125 43.109375 
Q 14.796875 37.75 14.796875 27.984375 
Q 14.796875 18.265625 18.828125 12.890625 
Q 22.859375 7.515625 30.078125 7.515625 
Q 37.359375 7.515625 41.375 12.890625 
Q 45.40625 18.265625 45.40625 27.984375 
z
M 54.390625 6.78125 
Q 54.390625 -7.171875 48.1875 -13.984375 
Q 42 -20.796875 29.203125 -20.796875 
Q 24.46875 -20.796875 20.265625 -20.09375 
Q 16.0625 -19.390625 12.109375 -17.921875 
L 12.109375 -9.1875 
Q 16.0625 -11.328125 19.921875 -12.34375 
Q 23.78125 -13.375 27.78125 -13.375 
Q 36.625 -13.375 41.015625 -8.765625 
Q 45.40625 -4.15625 45.40625 5.171875 
L 45.40625 9.625 
Q 42.625 4.78125 38.28125 2.390625 
Q 33.9375 0 27.875 0 
Q 17.828125 0 11.671875 7.65625 
Q 5.515625 15.328125 5.515625 27.984375 
Q 5.515625 40.671875 11.671875 48.328125 
Q 17.828125 56 27.875 56 
Q 33.9375 56 38.28125 53.609375 
Q 42.625 51.21875 45.40625 46.390625 
L 45.40625 54.6875 
L 54.390625 54.6875 
z
" id="DejaVuSans-67"/>
     <path d="M 9.421875 75.984375 
L 18.40625 75.984375 
L 18.40625 0 
L 9.421875 0 
z
" id="DejaVuSans-6c"/>
     <path id="DejaVuSans-20"/>
     <path d="M 9.8125 72.90625 
L 19.671875 72.90625 
L 19.671875 8.296875 
L 55.171875 8.296875 
L 55.171875 0 
L 9.8125 0 
z
" id="DejaVuSans-4c"/>
     <path d="M 9.078125 75.984375 
L 18.109375 75.984375 
L 18.109375 31.109375 
L 44.921875 54.6875 
L 56.390625 54.6875 
L 27.390625 29.109375 
L 57.625 0 
L 45.90625 0 
L 18.109375 26.703125 
L 18.109375 0 
L 9.078125 0 
z
" id="DejaVuSans-6b"/>
     <path d="M 54.890625 33.015625 
L 54.890625 0 
L 45.90625 0 
L 45.90625 32.71875 
Q 45.90625 40.484375 42.875 44.328125 
Q 39.84375 48.1875 33.796875 48.1875 
Q 26.515625 48.1875 22.3125 43.546875 
Q 18.109375 38.921875 18.109375 30.90625 
L 18.109375 0 
L 9.078125 0 
L 9.078125 75.984375 
L 18.109375 75.984375 
L 18.109375 46.1875 
Q 21.34375 51.125 25.703125 53.5625 
Q 30.078125 56 35.796875 56 
Q 45.21875 56 50.046875 50.171875 
Q 54.890625 44.34375 54.890625 33.015625 
z
" id="DejaVuSans-68"/>
     <path d="M 30.609375 48.390625 
Q 23.390625 48.390625 19.1875 42.75 
Q 14.984375 37.109375 14.984375 27.296875 
Q 14.984375 17.484375 19.15625 11.84375 
Q 23.34375 6.203125 30.609375 6.203125 
Q 37.796875 6.203125 41.984375 11.859375 
Q 46.1875 17.53125 46.1875 27.296875 
Q 46.1875 37.015625 41.984375 42.703125 
Q 37.796875 48.390625 30.609375 48.390625 
z
M 30.609375 56 
Q 42.328125 56 49.015625 48.375 
Q 55.71875 40.765625 55.71875 27.296875 
Q 55.71875 13.875 49.015625 6.21875 
Q 42.328125 -1.421875 30.609375 -1.421875 
Q 18.84375 -1.421875 12.171875 6.21875 
Q 5.515625 13.875 5.515625 27.296875 
Q 5.515625 40.765625 12.171875 48.375 
Q 18.84375 56 30.609375 56 
z
" id="DejaVuSans-6f"/>
     <path d="M 45.40625 46.390625 
L 45.40625 75.984375 
L 54.390625 75.984375 
L 54.390625 0 
L 45.40625 0 
L 45.40625 8.203125 
Q 42.578125 3.328125 38.25 0.953125 
Q 33.9375 -1.421875 27.875 -1.421875 
Q 17.96875 -1.421875 11.734375 6.484375 
Q 5.515625 14.40625 5.515625 27.296875 
Q 5.515625 40.1875 11.734375 48.09375 
Q 17.96875 56 27.875 56 
Q 33.9375 56 38.25 53.625 
Q 42.578125 51.265625 45.40625 46.390625 
z
M 14.796875 27.296875 
Q 14.796875 17.390625 18.875 11.75 
Q 22.953125 6.109375 30.078125 6.109375 
Q 37.203125 6.109375 41.296875 11.75 
Q 45.40625 17.390625 45.40625 27.296875 
Q 45.40625 37.203125 41.296875 42.84375 
Q 37.203125 48.484375 30.078125 48.484375 
Q 22.953125 48.484375 18.875 42.84375 
Q 14.796875 37.203125 14.796875 27.296875 
z
" id="DejaVuSans-64"/>
    </defs>
    <g transform="translate(333.403906 186.84)scale(0.1 -0.1)">
     <use xlink:href="#DejaVuSans-4d"/>
     <use x="86.279297" xlink:href="#DejaVuSans-61"/>
     <use x="147.558594" xlink:href="#DejaVuSans-72"/>
     <use x="188.65625" xlink:href="#DejaVuSans-67"/>
     <use x="252.132812" xlink:href="#DejaVuSans-69"/>
     <use x="279.916016" xlink:href="#DejaVuSans-6e"/>
     <use x="343.294922" xlink:href="#DejaVuSans-61"/>
     <use x="404.574219" xlink:href="#DejaVuSans-6c"/>
     <use x="432.357422" xlink:href="#DejaVuSans-20"/>
     <use x="464.144531" xlink:href="#DejaVuSans-4c"/>
     <use x="519.857422" xlink:href="#DejaVuSans-69"/>
     <use x="547.640625" xlink:href="#DejaVuSans-6b"/>
     <use x="605.503906" xlink:href="#DejaVuSans-65"/>
     <use x="667.027344" xlink:href="#DejaVuSans-6c"/>
     <use x="694.810547" xlink:href="#DejaVuSans-69"/>
     <use x="722.59375" xlink:href="#DejaVuSans-68"/>
     <use x="785.972656" xlink:href="#DejaVuSans-6f"/>
     <use x="847.154297" xlink:href="#DejaVuSans-6f"/>
     <use x="908.335938" xlink:href="#DejaVuSans-64"/>
     <use x="971.8125" xlink:href="#DejaVuSans-73"/>
    </g>
   </g>
  </g>
 </g>
 <defs>
  <clipPath id="p0d84de27e0">
   <rect height="113.68" width="114.96" x="24.88" y="25.44"/>
  </clipPath>
  <clipPath id="p2eaca0a9a7">
   <rect height="113.68" width="114.96" x="176" y="25.44"/>
  </clipPath>
  <clipPath id="pa5d43614f9">
   <rect height="113.68" width="114.96" x="24.88" y="192.84"/>
  </clipPath>
  <clipPath id="p4eecf8c250">
   <rect height="113.68" width="114.96" x="176" y="192.84"/>
  </clipPath>
  <clipPath id="p7527931486">
   <rect height="113.68" width="114.96" x="327.12" y="192.84"/>
  </clipPath>
 </defs>
</svg>
