<?xml version="1.0" encoding="utf-8" standalone="no"?>
<!DOCTYPE svg PUBLIC "-//W3C//DTD SVG 1.1//EN"
  "http://www.w3.org/Graphics/SVG/1.1/DTD/svg11.dtd">
<!-- Created with matplotlib (http://matplotlib.org/) -->
<svg height="345pt" version="1.1" viewBox="0 0 460 345" width="460pt" xmlns="http://www.w3.org/2000/svg" xmlns:xlink="http://www.w3.org/1999/xlink">
 <defs>
  <style type="text/css">
*{stroke-linecap:butt;stroke-linejoin:round;}
  </style>
 </defs>
 <g id="figure_1">
  <g id="patch_1">
   <path d="M 0 345.6 
L 460.8 345.6 
L 460.8 0 
L 0 0 
z
" style="fill:#ffffff;"/>
  </g>
  <g id="axes_1">
   <g id="patch_2">
    <path d="M 34.95 144.52 
L 143.853333 144.52 
L 143.853333 26.8 
L 34.95 26.8 
z
" style="fill:#ffffff;"/>
   </g>
   <g id="matplotlib.axis_1">
    <g id="xtick_1">
     <g id="line2d_1">
      <defs>
       <path d="M 0 0 
L 0 3.5 
" id="md6047a3a59" style="stroke:#000000;stroke-width:0.8;"/>
      </defs>
      <g>
       <use style="stroke:#000000;stroke-width:0.8;" x="36.01768" xlink:href="#md6047a3a59" y="144.52"/>
      </g>
     </g>
     <g id="text_1">
      <!-- 0 -->
      <defs>
       <path d="M 31.78125 66.40625 
Q 24.171875 66.40625 20.328125 58.90625 
Q 16.5 51.421875 16.5 36.375 
Q 16.5 21.390625 20.328125 13.890625 
Q 24.171875 6.390625 31.78125 6.390625 
Q 39.453125 6.390625 43.28125 13.890625 
Q 47.125 21.390625 47.125 36.375 
Q 47.125 51.421875 43.28125 58.90625 
Q 39.453125 66.40625 31.78125 66.40625 
z
M 31.78125 74.21875 
Q 44.046875 74.21875 50.515625 64.515625 
Q 56.984375 54.828125 56.984375 36.375 
Q 56.984375 17.96875 50.515625 8.265625 
Q 44.046875 -1.421875 31.78125 -1.421875 
Q 19.53125 -1.421875 13.0625 8.265625 
Q 6.59375 17.96875 6.59375 36.375 
Q 6.59375 54.828125 13.0625 64.515625 
Q 19.53125 74.21875 31.78125 74.21875 
z
" id="DejaVuSans-30"/>
      </defs>
      <g transform="translate(34.10893 156.079063)scale(0.06 -0.06)">
       <use xlink:href="#DejaVuSans-30"/>
      </g>
     </g>
    </g>
    <g id="xtick_2">
     <g id="line2d_2">
      <g>
       <use style="stroke:#000000;stroke-width:0.8;" x="142.785654" xlink:href="#md6047a3a59" y="144.52"/>
      </g>
     </g>
     <g id="text_2">
      <!-- 1 -->
      <defs>
       <path d="M 12.40625 8.296875 
L 28.515625 8.296875 
L 28.515625 63.921875 
L 10.984375 60.40625 
L 10.984375 69.390625 
L 28.421875 72.90625 
L 38.28125 72.90625 
L 38.28125 8.296875 
L 54.390625 8.296875 
L 54.390625 0 
L 12.40625 0 
z
" id="DejaVuSans-31"/>
      </defs>
      <g transform="translate(140.876904 156.079063)scale(0.06 -0.06)">
       <use xlink:href="#DejaVuSans-31"/>
      </g>
     </g>
    </g>
    <g id="text_3">
     <!-- $\theta$ -->
     <defs>
      <path d="M 45.515625 34.671875 
L 14.453125 34.671875 
Q 12.359375 20.0625 14.5 13.875 
Q 17.1875 6.25 24.46875 6.25 
Q 31.78125 6.25 37.359375 13.921875 
Q 42.234375 20.65625 45.515625 34.671875 
z
M 47.015625 42.96875 
Q 48.34375 56.84375 46.625 61.71875 
Q 43.953125 69.4375 36.765625 69.4375 
Q 29.296875 69.4375 23.828125 61.8125 
Q 19.53125 55.671875 16.15625 42.96875 
z
M 38.1875 76.765625 
Q 49.90625 76.765625 54.59375 66.40625 
Q 59.28125 56.109375 55.71875 37.84375 
Q 52.203125 19.625 43.453125 9.28125 
Q 34.765625 -1.125 23.046875 -1.125 
Q 11.28125 -1.125 6.640625 9.28125 
Q 2 19.625 5.515625 37.84375 
Q 9.078125 56.109375 17.71875 66.40625 
Q 26.421875 76.765625 38.1875 76.765625 
z
" id="DejaVuSans-Oblique-3b8"/>
     </defs>
     <g transform="translate(86.301667 168.925312)scale(0.1 -0.1)">
      <use transform="translate(0 0.234375)" xlink:href="#DejaVuSans-Oblique-3b8"/>
     </g>
    </g>
   </g>
   <g id="matplotlib.axis_2">
    <g id="ytick_1">
     <g id="line2d_3">
      <defs>
       <path d="M 0 0 
L -3.5 0 
" id="mcb3522274b" style="stroke:#000000;stroke-width:0.8;"/>
      </defs>
      <g>
       <use style="stroke:#000000;stroke-width:0.8;" x="34.95" xlink:href="#mcb3522274b" y="143.141548"/>
      </g>
     </g>
     <g id="text_4">
      <!-- 0 -->
      <g transform="translate(24.1325 145.421079)scale(0.06 -0.06)">
       <use xlink:href="#DejaVuSans-30"/>
      </g>
     </g>
    </g>
    <g id="ytick_2">
     <g id="line2d_4">
      <g>
       <use style="stroke:#000000;stroke-width:0.8;" x="34.95" xlink:href="#mcb3522274b" y="129.35703"/>
      </g>
     </g>
     <g id="text_5">
      <!-- 1 -->
      <g transform="translate(24.1325 131.636562)scale(0.06 -0.06)">
       <use xlink:href="#DejaVuSans-31"/>
      </g>
     </g>
    </g>
    <g id="ytick_3">
     <g id="line2d_5">
      <g>
       <use style="stroke:#000000;stroke-width:0.8;" x="34.95" xlink:href="#mcb3522274b" y="115.572512"/>
      </g>
     </g>
     <g id="text_6">
      <!-- 2 -->
      <defs>
       <path d="M 19.1875 8.296875 
L 53.609375 8.296875 
L 53.609375 0 
L 7.328125 0 
L 7.328125 8.296875 
Q 12.9375 14.109375 22.625 23.890625 
Q 32.328125 33.6875 34.8125 36.53125 
Q 39.546875 41.84375 41.421875 45.53125 
Q 43.3125 49.21875 43.3125 52.78125 
Q 43.3125 58.59375 39.234375 62.25 
Q 35.15625 65.921875 28.609375 65.921875 
Q 23.96875 65.921875 18.8125 64.3125 
Q 13.671875 62.703125 7.8125 59.421875 
L 7.8125 69.390625 
Q 13.765625 71.78125 18.9375 73 
Q 24.125 74.21875 28.421875 74.21875 
Q 39.75 74.21875 46.484375 68.546875 
Q 53.21875 62.890625 53.21875 53.421875 
Q 53.21875 48.921875 51.53125 44.890625 
Q 49.859375 40.875 45.40625 35.40625 
Q 44.1875 33.984375 37.640625 27.21875 
Q 31.109375 20.453125 19.1875 8.296875 
z
" id="DejaVuSans-32"/>
      </defs>
      <g transform="translate(24.1325 117.852044)scale(0.06 -0.06)">
       <use xlink:href="#DejaVuSans-32"/>
      </g>
     </g>
    </g>
    <g id="ytick_4">
     <g id="line2d_6">
      <g>
       <use style="stroke:#000000;stroke-width:0.8;" x="34.95" xlink:href="#mcb3522274b" y="101.787995"/>
      </g>
     </g>
     <g id="text_7">
      <!-- 3 -->
      <defs>
       <path d="M 40.578125 39.3125 
Q 47.65625 37.796875 51.625 33 
Q 55.609375 28.21875 55.609375 21.1875 
Q 55.609375 10.40625 48.1875 4.484375 
Q 40.765625 -1.421875 27.09375 -1.421875 
Q 22.515625 -1.421875 17.65625 -0.515625 
Q 12.796875 0.390625 7.625 2.203125 
L 7.625 11.71875 
Q 11.71875 9.328125 16.59375 8.109375 
Q 21.484375 6.890625 26.8125 6.890625 
Q 36.078125 6.890625 40.9375 10.546875 
Q 45.796875 14.203125 45.796875 21.1875 
Q 45.796875 27.640625 41.28125 31.265625 
Q 36.765625 34.90625 28.71875 34.90625 
L 20.21875 34.90625 
L 20.21875 43.015625 
L 29.109375 43.015625 
Q 36.375 43.015625 40.234375 45.921875 
Q 44.09375 48.828125 44.09375 54.296875 
Q 44.09375 59.90625 40.109375 62.90625 
Q 36.140625 65.921875 28.71875 65.921875 
Q 24.65625 65.921875 20.015625 65.03125 
Q 15.375 64.15625 9.8125 62.3125 
L 9.8125 71.09375 
Q 15.4375 72.65625 20.34375 73.4375 
Q 25.25 74.21875 29.59375 74.21875 
Q 40.828125 74.21875 47.359375 69.109375 
Q 53.90625 64.015625 53.90625 55.328125 
Q 53.90625 49.265625 50.4375 45.09375 
Q 46.96875 40.921875 40.578125 39.3125 
z
" id="DejaVuSans-33"/>
      </defs>
      <g transform="translate(24.1325 104.067526)scale(0.06 -0.06)">
       <use xlink:href="#DejaVuSans-33"/>
      </g>
     </g>
    </g>
    <g id="ytick_5">
     <g id="line2d_7">
      <g>
       <use style="stroke:#000000;stroke-width:0.8;" x="34.95" xlink:href="#mcb3522274b" y="88.003477"/>
      </g>
     </g>
     <g id="text_8">
      <!-- 4 -->
      <defs>
       <path d="M 37.796875 64.3125 
L 12.890625 25.390625 
L 37.796875 25.390625 
z
M 35.203125 72.90625 
L 47.609375 72.90625 
L 47.609375 25.390625 
L 58.015625 25.390625 
L 58.015625 17.1875 
L 47.609375 17.1875 
L 47.609375 0 
L 37.796875 0 
L 37.796875 17.1875 
L 4.890625 17.1875 
L 4.890625 26.703125 
z
" id="DejaVuSans-34"/>
      </defs>
      <g transform="translate(24.1325 90.283008)scale(0.06 -0.06)">
       <use xlink:href="#DejaVuSans-34"/>
      </g>
     </g>
    </g>
    <g id="ytick_6">
     <g id="line2d_8">
      <g>
       <use style="stroke:#000000;stroke-width:0.8;" x="34.95" xlink:href="#mcb3522274b" y="74.218959"/>
      </g>
     </g>
     <g id="text_9">
      <!-- 5 -->
      <defs>
       <path d="M 10.796875 72.90625 
L 49.515625 72.90625 
L 49.515625 64.59375 
L 19.828125 64.59375 
L 19.828125 46.734375 
Q 21.96875 47.46875 24.109375 47.828125 
Q 26.265625 48.1875 28.421875 48.1875 
Q 40.625 48.1875 47.75 41.5 
Q 54.890625 34.8125 54.890625 23.390625 
Q 54.890625 11.625 47.5625 5.09375 
Q 40.234375 -1.421875 26.90625 -1.421875 
Q 22.3125 -1.421875 17.546875 -0.640625 
Q 12.796875 0.140625 7.71875 1.703125 
L 7.71875 11.625 
Q 12.109375 9.234375 16.796875 8.0625 
Q 21.484375 6.890625 26.703125 6.890625 
Q 35.15625 6.890625 40.078125 11.328125 
Q 45.015625 15.765625 45.015625 23.390625 
Q 45.015625 31 40.078125 35.4375 
Q 35.15625 39.890625 26.703125 39.890625 
Q 22.75 39.890625 18.8125 39.015625 
Q 14.890625 38.140625 10.796875 36.28125 
z
" id="DejaVuSans-35"/>
      </defs>
      <g transform="translate(24.1325 76.49849)scale(0.06 -0.06)">
       <use xlink:href="#DejaVuSans-35"/>
      </g>
     </g>
    </g>
    <g id="ytick_7">
     <g id="line2d_9">
      <g>
       <use style="stroke:#000000;stroke-width:0.8;" x="34.95" xlink:href="#mcb3522274b" y="60.434441"/>
      </g>
     </g>
     <g id="text_10">
      <!-- 6 -->
      <defs>
       <path d="M 33.015625 40.375 
Q 26.375 40.375 22.484375 35.828125 
Q 18.609375 31.296875 18.609375 23.390625 
Q 18.609375 15.53125 22.484375 10.953125 
Q 26.375 6.390625 33.015625 6.390625 
Q 39.65625 6.390625 43.53125 10.953125 
Q 47.40625 15.53125 47.40625 23.390625 
Q 47.40625 31.296875 43.53125 35.828125 
Q 39.65625 40.375 33.015625 40.375 
z
M 52.59375 71.296875 
L 52.59375 62.3125 
Q 48.875 64.0625 45.09375 64.984375 
Q 41.3125 65.921875 37.59375 65.921875 
Q 27.828125 65.921875 22.671875 59.328125 
Q 17.53125 52.734375 16.796875 39.40625 
Q 19.671875 43.65625 24.015625 45.921875 
Q 28.375 48.1875 33.59375 48.1875 
Q 44.578125 48.1875 50.953125 41.515625 
Q 57.328125 34.859375 57.328125 23.390625 
Q 57.328125 12.15625 50.6875 5.359375 
Q 44.046875 -1.421875 33.015625 -1.421875 
Q 20.359375 -1.421875 13.671875 8.265625 
Q 6.984375 17.96875 6.984375 36.375 
Q 6.984375 53.65625 15.1875 63.9375 
Q 23.390625 74.21875 37.203125 74.21875 
Q 40.921875 74.21875 44.703125 73.484375 
Q 48.484375 72.75 52.59375 71.296875 
z
" id="DejaVuSans-36"/>
      </defs>
      <g transform="translate(24.1325 62.713972)scale(0.06 -0.06)">
       <use xlink:href="#DejaVuSans-36"/>
      </g>
     </g>
    </g>
    <g id="ytick_8">
     <g id="line2d_10">
      <g>
       <use style="stroke:#000000;stroke-width:0.8;" x="34.95" xlink:href="#mcb3522274b" y="46.649923"/>
      </g>
     </g>
     <g id="text_11">
      <!-- 7 -->
      <defs>
       <path d="M 8.203125 72.90625 
L 55.078125 72.90625 
L 55.078125 68.703125 
L 28.609375 0 
L 18.3125 0 
L 43.21875 64.59375 
L 8.203125 64.59375 
z
" id="DejaVuSans-37"/>
      </defs>
      <g transform="translate(24.1325 48.929454)scale(0.06 -0.06)">
       <use xlink:href="#DejaVuSans-37"/>
      </g>
     </g>
    </g>
    <g id="ytick_9">
     <g id="line2d_11">
      <g>
       <use style="stroke:#000000;stroke-width:0.8;" x="34.95" xlink:href="#mcb3522274b" y="32.865405"/>
      </g>
     </g>
     <g id="text_12">
      <!-- 8 -->
      <defs>
       <path d="M 31.78125 34.625 
Q 24.75 34.625 20.71875 30.859375 
Q 16.703125 27.09375 16.703125 20.515625 
Q 16.703125 13.921875 20.71875 10.15625 
Q 24.75 6.390625 31.78125 6.390625 
Q 38.8125 6.390625 42.859375 10.171875 
Q 46.921875 13.96875 46.921875 20.515625 
Q 46.921875 27.09375 42.890625 30.859375 
Q 38.875 34.625 31.78125 34.625 
z
M 21.921875 38.8125 
Q 15.578125 40.375 12.03125 44.71875 
Q 8.5 49.078125 8.5 55.328125 
Q 8.5 64.0625 14.71875 69.140625 
Q 20.953125 74.21875 31.78125 74.21875 
Q 42.671875 74.21875 48.875 69.140625 
Q 55.078125 64.0625 55.078125 55.328125 
Q 55.078125 49.078125 51.53125 44.71875 
Q 48 40.375 41.703125 38.8125 
Q 48.828125 37.15625 52.796875 32.3125 
Q 56.78125 27.484375 56.78125 20.515625 
Q 56.78125 9.90625 50.3125 4.234375 
Q 43.84375 -1.421875 31.78125 -1.421875 
Q 19.734375 -1.421875 13.25 4.234375 
Q 6.78125 9.90625 6.78125 20.515625 
Q 6.78125 27.484375 10.78125 32.3125 
Q 14.796875 37.15625 21.921875 38.8125 
z
M 18.3125 54.390625 
Q 18.3125 48.734375 21.84375 45.5625 
Q 25.390625 42.390625 31.78125 42.390625 
Q 38.140625 42.390625 41.71875 45.5625 
Q 45.3125 48.734375 45.3125 54.390625 
Q 45.3125 60.0625 41.71875 63.234375 
Q 38.140625 66.40625 31.78125 66.40625 
Q 25.390625 66.40625 21.84375 63.234375 
Q 18.3125 60.0625 18.3125 54.390625 
z
" id="DejaVuSans-38"/>
      </defs>
      <g transform="translate(24.1325 35.144936)scale(0.06 -0.06)">
       <use xlink:href="#DejaVuSans-38"/>
      </g>
     </g>
    </g>
    <g id="text_13">
     <!-- Density -->
     <defs>
      <path d="M 19.671875 64.796875 
L 19.671875 8.109375 
L 31.59375 8.109375 
Q 46.6875 8.109375 53.6875 14.9375 
Q 60.6875 21.78125 60.6875 36.53125 
Q 60.6875 51.171875 53.6875 57.984375 
Q 46.6875 64.796875 31.59375 64.796875 
z
M 9.8125 72.90625 
L 30.078125 72.90625 
Q 51.265625 72.90625 61.171875 64.09375 
Q 71.09375 55.28125 71.09375 36.53125 
Q 71.09375 17.671875 61.125 8.828125 
Q 51.171875 0 30.078125 0 
L 9.8125 0 
z
" id="DejaVuSans-44"/>
      <path d="M 56.203125 29.59375 
L 56.203125 25.203125 
L 14.890625 25.203125 
Q 15.484375 15.921875 20.484375 11.0625 
Q 25.484375 6.203125 34.421875 6.203125 
Q 39.59375 6.203125 44.453125 7.46875 
Q 49.3125 8.734375 54.109375 11.28125 
L 54.109375 2.78125 
Q 49.265625 0.734375 44.1875 -0.34375 
Q 39.109375 -1.421875 33.890625 -1.421875 
Q 20.796875 -1.421875 13.15625 6.1875 
Q 5.515625 13.8125 5.515625 26.8125 
Q 5.515625 40.234375 12.765625 48.109375 
Q 20.015625 56 32.328125 56 
Q 43.359375 56 49.78125 48.890625 
Q 56.203125 41.796875 56.203125 29.59375 
z
M 47.21875 32.234375 
Q 47.125 39.59375 43.09375 43.984375 
Q 39.0625 48.390625 32.421875 48.390625 
Q 24.90625 48.390625 20.390625 44.140625 
Q 15.875 39.890625 15.1875 32.171875 
z
" id="DejaVuSans-65"/>
      <path d="M 54.890625 33.015625 
L 54.890625 0 
L 45.90625 0 
L 45.90625 32.71875 
Q 45.90625 40.484375 42.875 44.328125 
Q 39.84375 48.1875 33.796875 48.1875 
Q 26.515625 48.1875 22.3125 43.546875 
Q 18.109375 38.921875 18.109375 30.90625 
L 18.109375 0 
L 9.078125 0 
L 9.078125 54.6875 
L 18.109375 54.6875 
L 18.109375 46.1875 
Q 21.34375 51.125 25.703125 53.5625 
Q 30.078125 56 35.796875 56 
Q 45.21875 56 50.046875 50.171875 
Q 54.890625 44.34375 54.890625 33.015625 
z
" id="DejaVuSans-6e"/>
      <path d="M 44.28125 53.078125 
L 44.28125 44.578125 
Q 40.484375 46.53125 36.375 47.5 
Q 32.28125 48.484375 27.875 48.484375 
Q 21.1875 48.484375 17.84375 46.4375 
Q 14.5 44.390625 14.5 40.28125 
Q 14.5 37.15625 16.890625 35.375 
Q 19.28125 33.59375 26.515625 31.984375 
L 29.59375 31.296875 
Q 39.15625 29.25 43.1875 25.515625 
Q 47.21875 21.78125 47.21875 15.09375 
Q 47.21875 7.46875 41.1875 3.015625 
Q 35.15625 -1.421875 24.609375 -1.421875 
Q 20.21875 -1.421875 15.453125 -0.5625 
Q 10.6875 0.296875 5.421875 2 
L 5.421875 11.28125 
Q 10.40625 8.6875 15.234375 7.390625 
Q 20.0625 6.109375 24.8125 6.109375 
Q 31.15625 6.109375 34.5625 8.28125 
Q 37.984375 10.453125 37.984375 14.40625 
Q 37.984375 18.0625 35.515625 20.015625 
Q 33.0625 21.96875 24.703125 23.78125 
L 21.578125 24.515625 
Q 13.234375 26.265625 9.515625 29.90625 
Q 5.8125 33.546875 5.8125 39.890625 
Q 5.8125 47.609375 11.28125 51.796875 
Q 16.75 56 26.8125 56 
Q 31.78125 56 36.171875 55.265625 
Q 40.578125 54.546875 44.28125 53.078125 
z
" id="DejaVuSans-73"/>
      <path d="M 9.421875 54.6875 
L 18.40625 54.6875 
L 18.40625 0 
L 9.421875 0 
z
M 9.421875 75.984375 
L 18.40625 75.984375 
L 18.40625 64.59375 
L 9.421875 64.59375 
z
" id="DejaVuSans-69"/>
      <path d="M 18.3125 70.21875 
L 18.3125 54.6875 
L 36.8125 54.6875 
L 36.8125 47.703125 
L 18.3125 47.703125 
L 18.3125 18.015625 
Q 18.3125 11.328125 20.140625 9.421875 
Q 21.96875 7.515625 27.59375 7.515625 
L 36.8125 7.515625 
L 36.8125 0 
L 27.59375 0 
Q 17.1875 0 13.234375 3.875 
Q 9.28125 7.765625 9.28125 18.015625 
L 9.28125 47.703125 
L 2.6875 47.703125 
L 2.6875 54.6875 
L 9.28125 54.6875 
L 9.28125 70.21875 
z
" id="DejaVuSans-74"/>
      <path d="M 32.171875 -5.078125 
Q 28.375 -14.84375 24.75 -17.8125 
Q 21.140625 -20.796875 15.09375 -20.796875 
L 7.90625 -20.796875 
L 7.90625 -13.28125 
L 13.1875 -13.28125 
Q 16.890625 -13.28125 18.9375 -11.515625 
Q 21 -9.765625 23.484375 -3.21875 
L 25.09375 0.875 
L 2.984375 54.6875 
L 12.5 54.6875 
L 29.59375 11.921875 
L 46.6875 54.6875 
L 56.203125 54.6875 
z
" id="DejaVuSans-79"/>
     </defs>
     <g transform="translate(18.052813 104.668594)rotate(-90)scale(0.1 -0.1)">
      <use xlink:href="#DejaVuSans-44"/>
      <use x="77.001953" xlink:href="#DejaVuSans-65"/>
      <use x="138.525391" xlink:href="#DejaVuSans-6e"/>
      <use x="201.904297" xlink:href="#DejaVuSans-73"/>
      <use x="254.003906" xlink:href="#DejaVuSans-69"/>
      <use x="281.787109" xlink:href="#DejaVuSans-74"/>
      <use x="320.996094" xlink:href="#DejaVuSans-79"/>
     </g>
    </g>
   </g>
   <g id="line2d_12">
    <path clip-path="url(#p006e9b53d9)" d="M 36.01768 143.141548 
L 70.217631 143.031393 
L 71.820754 142.785374 
L 72.889503 142.415676 
L 73.744501 141.907366 
L 74.492625 141.230877 
L 75.240749 140.256353 
L 75.988873 138.889492 
L 76.736997 137.022406 
L 77.485121 134.538253 
L 78.233245 131.318764 
L 79.088244 126.599726 
L 79.943243 120.652274 
L 80.905116 112.422288 
L 82.08074 100.257247 
L 83.683862 80.909006 
L 86.141984 51.212311 
L 87.103857 42.146743 
L 87.851981 36.908187 
L 88.49323 33.927561 
L 88.92073 32.783297 
L 89.241354 32.384474 
L 89.455104 32.340074 
L 89.668854 32.473223 
L 89.989478 33.004256 
L 90.416978 34.320937 
L 90.951352 36.908187 
L 91.592601 41.291581 
L 92.4476 49.004728 
L 93.516348 60.883558 
L 97.898217 112.422288 
L 98.966966 121.465724 
L 99.928839 127.890634 
L 100.890713 132.795942 
L 101.745712 136.040294 
L 102.60071 138.412077 
L 103.455709 140.087493 
L 104.310708 141.230877 
L 105.165707 141.984463 
L 106.12758 142.509259 
L 107.196329 142.834688 
L 108.692577 143.040158 
L 111.257573 143.130047 
L 123.334431 143.141548 
L 142.785654 143.141548 
L 142.785654 143.141548 
" style="fill:none;stroke:#1f77b4;stroke-dasharray:1,1.65;stroke-dashoffset:0;"/>
   </g>
   <g id="line2d_13">
    <path clip-path="url(#p006e9b53d9)" d="M 36.01768 129.35703 
L 142.785654 129.35703 
L 142.785654 129.35703 
" style="fill:none;stroke:#1f77b4;stroke-dasharray:3.7,1.6;stroke-dashoffset:0;"/>
   </g>
   <g id="line2d_14">
    <path clip-path="url(#p006e9b53d9)" d="M 36.01768 143.141548 
L 70.217631 143.031393 
L 71.820754 142.785374 
L 72.889503 142.415676 
L 73.744501 141.907366 
L 74.492625 141.230877 
L 75.240749 140.256353 
L 75.988873 138.889492 
L 76.736997 137.022406 
L 77.485121 134.538253 
L 78.233245 131.318764 
L 79.088244 126.599726 
L 79.943243 120.652274 
L 80.905116 112.422288 
L 82.08074 100.257247 
L 83.683862 80.909006 
L 86.141984 51.212311 
L 87.103857 42.146743 
L 87.851981 36.908187 
L 88.49323 33.927561 
L 88.92073 32.783297 
L 89.241354 32.384474 
L 89.455104 32.340074 
L 89.668854 32.473223 
L 89.989478 33.004256 
L 90.416978 34.320937 
L 90.951352 36.908187 
L 91.592601 41.291581 
L 92.4476 49.004728 
L 93.516348 60.883558 
L 97.898217 112.422288 
L 98.966966 121.465724 
L 99.928839 127.890634 
L 100.890713 132.795942 
L 101.745712 136.040294 
L 102.60071 138.412077 
L 103.455709 140.087493 
L 104.310708 141.230877 
L 105.165707 141.984463 
L 106.12758 142.509259 
L 107.196329 142.834688 
L 108.692577 143.040158 
L 111.257573 143.130047 
L 123.334431 143.141548 
L 142.785654 143.141548 
L 142.785654 143.141548 
" style="fill:none;stroke:#1f77b4;stroke-linecap:square;"/>
   </g>
   <g id="patch_3">
    <path d="M 34.95 144.52 
L 34.95 26.8 
" style="fill:none;stroke:#000000;stroke-linecap:square;stroke-linejoin:miter;stroke-width:0.8;"/>
   </g>
   <g id="patch_4">
    <path d="M 143.853333 144.52 
L 143.853333 26.8 
" style="fill:none;stroke:#000000;stroke-linecap:square;stroke-linejoin:miter;stroke-width:0.8;"/>
   </g>
   <g id="patch_5">
    <path d="M 34.95 144.52 
L 143.853333 144.52 
" style="fill:none;stroke:#000000;stroke-linecap:square;stroke-linejoin:miter;stroke-width:0.8;"/>
   </g>
   <g id="patch_6">
    <path d="M 34.95 26.8 
L 143.853333 26.8 
" style="fill:none;stroke:#000000;stroke-linecap:square;stroke-linejoin:miter;stroke-width:0.8;"/>
   </g>
   <g id="text_14">
    <!-- $\alpha=1,\/\/\beta=1$ -->
    <defs>
     <path d="M 40.921875 25.4375 
L 40.96875 36.71875 
Q 41.015625 48.25 32.328125 48.296875 
Q 25.828125 48.34375 21.78125 42.921875 
Q 16.703125 36.234375 14.984375 27.296875 
Q 12.890625 16.546875 15.53125 11.421875 
Q 18.265625 6.203125 24.171875 6.203125 
Q 30.71875 6.203125 36.234375 16.609375 
z
M 33.84375 55.90625 
Q 49.078125 56.15625 48.875 40.375 
Q 48.875 40.375 56.5 54.6875 
L 64.5 54.6875 
L 48.734375 25.046875 
L 48.578125 14.359375 
Q 48.578125 11.96875 49.90625 9.96875 
Q 51.421875 7.625 52.984375 7.625 
L 57.328125 7.625 
L 55.859375 0 
L 50.4375 0 
Q 45.84375 0 42.53125 4.109375 
Q 40.96875 6.15625 40.921875 10.453125 
Q 37.75 5.21875 32.28125 0.78125 
Q 29.6875 -1.265625 22.703125 -1.21875 
Q 11.28125 -1.125 7.125 6.203125 
Q 2.875 13.8125 5.515625 27.296875 
Q 8.34375 41.796875 15.765625 48.390625 
Q 24.125 55.765625 33.84375 55.90625 
z
" id="DejaVuSans-Oblique-3b1"/>
     <path d="M 10.59375 45.40625 
L 73.1875 45.40625 
L 73.1875 37.203125 
L 10.59375 37.203125 
z
M 10.59375 25.484375 
L 73.1875 25.484375 
L 73.1875 17.1875 
L 10.59375 17.1875 
z
" id="DejaVuSans-3d"/>
     <path d="M 11.71875 12.40625 
L 22.015625 12.40625 
L 22.015625 4 
L 14.015625 -11.625 
L 7.71875 -11.625 
L 11.71875 4 
z
" id="DejaVuSans-2c"/>
     <path d="M 13.625 3.375 
L 8.9375 -20.796875 
L -0.09375 -20.796875 
L 14.5 54.34375 
Q 18.84375 76.609375 39.65625 76.609375 
Q 60.75 76.609375 57.171875 57.8125 
Q 54.734375 44.4375 45.21875 39.546875 
Q 58.015625 35.15625 55.515625 22.125 
Q 51.125 -1.078125 27.484375 -1.03125 
Q 17.140625 -0.984375 13.625 3.375 
z
M 15.921875 15.09375 
Q 19.671875 6.59375 29.296875 6.640625 
Q 43.359375 6.640625 46.34375 21.96875 
Q 49.03125 35.75 26.171875 34.671875 
L 27.78125 42.96875 
Q 45.453125 42.671875 48.53125 58.59375 
Q 50.640625 69.34375 39.203125 69.28125 
Q 26.421875 69.28125 23.484375 54.046875 
z
" id="DejaVuSans-Oblique-3b2"/>
    </defs>
    <g transform="translate(100.106533 34.366)scale(0.06 -0.06)">
     <use transform="translate(0 0.390625)" xlink:href="#DejaVuSans-Oblique-3b1"/>
     <use transform="translate(85.400391 0.390625)" xlink:href="#DejaVuSans-3d"/>
     <use transform="translate(188.671875 0.390625)" xlink:href="#DejaVuSans-31"/>
     <use transform="translate(252.294922 0.390625)" xlink:href="#DejaVuSans-2c"/>
     <use transform="translate(336.035806 0.390625)" xlink:href="#DejaVuSans-Oblique-3b2"/>
     <use transform="translate(419.336587 0.390625)" xlink:href="#DejaVuSans-3d"/>
     <use transform="translate(522.608071 0.390625)" xlink:href="#DejaVuSans-31"/>
    </g>
   </g>
   <g id="text_15">
    <!-- $M_1$ -->
    <defs>
     <path d="M 16.890625 72.90625 
L 31.6875 72.90625 
L 40.1875 23.78125 
L 68.40625 72.90625 
L 83.59375 72.90625 
L 69.390625 0 
L 59.8125 0 
L 72.21875 63.921875 
L 43.609375 14.015625 
L 33.984375 14.015625 
L 24.703125 64.109375 
L 12.3125 0 
L 2.6875 0 
z
" id="DejaVuSans-Oblique-4d"/>
    </defs>
    <g transform="translate(34.95 20.8)scale(0.12 -0.12)">
     <use transform="translate(0 0.09375)" xlink:href="#DejaVuSans-Oblique-4d"/>
     <use transform="translate(86.279297 -16.3125)scale(0.7)" xlink:href="#DejaVuSans-31"/>
    </g>
   </g>
  </g>
  <g id="axes_2">
   <g id="patch_7">
    <path d="M 184.463333 144.52 
L 293.366667 144.52 
L 293.366667 26.8 
L 184.463333 26.8 
z
" style="fill:#ffffff;"/>
   </g>
   <g id="matplotlib.axis_3">
    <g id="xtick_3">
     <g id="line2d_15">
      <g>
       <use style="stroke:#000000;stroke-width:0.8;" x="185.531013" xlink:href="#md6047a3a59" y="144.52"/>
      </g>
     </g>
     <g id="text_16">
      <!-- 0 -->
      <g transform="translate(183.622263 156.079063)scale(0.06 -0.06)">
       <use xlink:href="#DejaVuSans-30"/>
      </g>
     </g>
    </g>
    <g id="xtick_4">
     <g id="line2d_16">
      <g>
       <use style="stroke:#000000;stroke-width:0.8;" x="292.298987" xlink:href="#md6047a3a59" y="144.52"/>
      </g>
     </g>
     <g id="text_17">
      <!-- 1 -->
      <g transform="translate(290.390237 156.079063)scale(0.06 -0.06)">
       <use xlink:href="#DejaVuSans-31"/>
      </g>
     </g>
    </g>
    <g id="text_18">
     <!-- $\theta$ -->
     <g transform="translate(235.815 168.925312)scale(0.1 -0.1)">
      <use transform="translate(0 0.234375)" xlink:href="#DejaVuSans-Oblique-3b8"/>
     </g>
    </g>
   </g>
   <g id="matplotlib.axis_4">
    <g id="ytick_10">
     <g id="line2d_17">
      <g>
       <use style="stroke:#000000;stroke-width:0.8;" x="184.463333" xlink:href="#mcb3522274b" y="143.141548"/>
      </g>
     </g>
     <g id="text_19">
      <!-- 0 -->
      <g transform="translate(173.645833 145.421079)scale(0.06 -0.06)">
       <use xlink:href="#DejaVuSans-30"/>
      </g>
     </g>
    </g>
    <g id="ytick_11">
     <g id="line2d_18">
      <g>
       <use style="stroke:#000000;stroke-width:0.8;" x="184.463333" xlink:href="#mcb3522274b" y="129.35703"/>
      </g>
     </g>
     <g id="text_20">
      <!-- 1 -->
      <g transform="translate(173.645833 131.636562)scale(0.06 -0.06)">
       <use xlink:href="#DejaVuSans-31"/>
      </g>
     </g>
    </g>
    <g id="ytick_12">
     <g id="line2d_19">
      <g>
       <use style="stroke:#000000;stroke-width:0.8;" x="184.463333" xlink:href="#mcb3522274b" y="115.572512"/>
      </g>
     </g>
     <g id="text_21">
      <!-- 2 -->
      <g transform="translate(173.645833 117.852044)scale(0.06 -0.06)">
       <use xlink:href="#DejaVuSans-32"/>
      </g>
     </g>
    </g>
    <g id="ytick_13">
     <g id="line2d_20">
      <g>
       <use style="stroke:#000000;stroke-width:0.8;" x="184.463333" xlink:href="#mcb3522274b" y="101.787995"/>
      </g>
     </g>
     <g id="text_22">
      <!-- 3 -->
      <g transform="translate(173.645833 104.067526)scale(0.06 -0.06)">
       <use xlink:href="#DejaVuSans-33"/>
      </g>
     </g>
    </g>
    <g id="ytick_14">
     <g id="line2d_21">
      <g>
       <use style="stroke:#000000;stroke-width:0.8;" x="184.463333" xlink:href="#mcb3522274b" y="88.003477"/>
      </g>
     </g>
     <g id="text_23">
      <!-- 4 -->
      <g transform="translate(173.645833 90.283008)scale(0.06 -0.06)">
       <use xlink:href="#DejaVuSans-34"/>
      </g>
     </g>
    </g>
    <g id="ytick_15">
     <g id="line2d_22">
      <g>
       <use style="stroke:#000000;stroke-width:0.8;" x="184.463333" xlink:href="#mcb3522274b" y="74.218959"/>
      </g>
     </g>
     <g id="text_24">
      <!-- 5 -->
      <g transform="translate(173.645833 76.49849)scale(0.06 -0.06)">
       <use xlink:href="#DejaVuSans-35"/>
      </g>
     </g>
    </g>
    <g id="ytick_16">
     <g id="line2d_23">
      <g>
       <use style="stroke:#000000;stroke-width:0.8;" x="184.463333" xlink:href="#mcb3522274b" y="60.434441"/>
      </g>
     </g>
     <g id="text_25">
      <!-- 6 -->
      <g transform="translate(173.645833 62.713972)scale(0.06 -0.06)">
       <use xlink:href="#DejaVuSans-36"/>
      </g>
     </g>
    </g>
    <g id="ytick_17">
     <g id="line2d_24">
      <g>
       <use style="stroke:#000000;stroke-width:0.8;" x="184.463333" xlink:href="#mcb3522274b" y="46.649923"/>
      </g>
     </g>
     <g id="text_26">
      <!-- 7 -->
      <g transform="translate(173.645833 48.929454)scale(0.06 -0.06)">
       <use xlink:href="#DejaVuSans-37"/>
      </g>
     </g>
    </g>
    <g id="ytick_18">
     <g id="line2d_25">
      <g>
       <use style="stroke:#000000;stroke-width:0.8;" x="184.463333" xlink:href="#mcb3522274b" y="32.865405"/>
      </g>
     </g>
     <g id="text_27">
      <!-- 8 -->
      <g transform="translate(173.645833 35.144936)scale(0.06 -0.06)">
       <use xlink:href="#DejaVuSans-38"/>
      </g>
     </g>
    </g>
    <g id="text_28">
     <!-- Density -->
     <g transform="translate(167.566146 104.668594)rotate(-90)scale(0.1 -0.1)">
      <use xlink:href="#DejaVuSans-44"/>
      <use x="77.001953" xlink:href="#DejaVuSans-65"/>
      <use x="138.525391" xlink:href="#DejaVuSans-6e"/>
      <use x="201.904297" xlink:href="#DejaVuSans-73"/>
      <use x="254.003906" xlink:href="#DejaVuSans-69"/>
      <use x="281.787109" xlink:href="#DejaVuSans-74"/>
      <use x="320.996094" xlink:href="#DejaVuSans-79"/>
     </g>
    </g>
   </g>
   <g id="line2d_26">
    <path clip-path="url(#p7be8c23296)" d="M 185.531013 143.141548 
L 219.730965 143.031393 
L 221.334087 142.785374 
L 222.402836 142.415676 
L 223.257835 141.907366 
L 224.005959 141.230877 
L 224.754083 140.256353 
L 225.502206 138.889492 
L 226.25033 137.022406 
L 226.998454 134.538253 
L 227.746578 131.318764 
L 228.601577 126.599726 
L 229.456576 120.652274 
L 230.41845 112.422288 
L 231.594073 100.257247 
L 233.197196 80.909006 
L 235.655317 51.212311 
L 236.617191 42.146743 
L 237.365315 36.908187 
L 238.006564 33.927561 
L 238.434063 32.783297 
L 238.754688 32.384474 
L 238.968437 32.340074 
L 239.182187 32.473223 
L 239.502812 33.004256 
L 239.930311 34.320937 
L 240.464685 36.908187 
L 241.105934 41.291581 
L 241.960933 49.004728 
L 243.029682 60.883558 
L 247.41155 112.422288 
L 248.480299 121.465724 
L 249.442173 127.890634 
L 250.404046 132.795942 
L 251.259045 136.040294 
L 252.114044 138.412077 
L 252.969043 140.087493 
L 253.824041 141.230877 
L 254.67904 141.984463 
L 255.640914 142.509259 
L 256.709662 142.834688 
L 258.20591 143.040158 
L 260.770907 143.130047 
L 272.847764 143.141548 
L 292.298987 143.141548 
L 292.298987 143.141548 
" style="fill:none;stroke:#1f77b4;stroke-dasharray:1,1.65;stroke-dashoffset:0;"/>
   </g>
   <g id="line2d_27">
    <path clip-path="url(#p7be8c23296)" d="M 185.637888 52.690683 
L 185.851638 84.808764 
L 186.172262 98.880189 
L 186.599762 107.001692 
L 187.134136 112.35008 
L 187.66851 115.641094 
L 188.309759 118.319909 
L 189.057883 120.512384 
L 189.912882 122.325169 
L 190.874756 123.840964 
L 191.943504 125.122236 
L 193.226002 126.303178 
L 194.72225 127.362629 
L 196.432248 128.29902 
L 198.46287 129.160073 
L 200.920991 129.960999 
L 203.913487 130.700661 
L 207.654107 131.38752 
L 212.249725 131.996134 
L 217.914092 132.513728 
L 224.860957 132.915353 
L 232.983446 133.155479 
L 241.854058 133.192904 
L 250.510921 133.011003 
L 258.20591 132.632942 
L 264.511526 132.110473 
L 269.641519 131.469671 
L 273.702763 130.746059 
L 276.909009 129.960999 
L 279.474005 129.11997 
L 281.611502 128.194306 
L 283.3215 127.227349 
L 284.817748 126.127038 
L 286.100246 124.891757 
L 287.168994 123.539735 
L 288.023993 122.127317 
L 288.772117 120.512384 
L 289.520241 118.319909 
L 290.16149 115.641094 
L 290.695864 112.35008 
L 291.123364 108.339477 
L 291.443988 103.659517 
L 291.764613 95.550816 
L 291.978362 84.808764 
L 292.085237 74.565117 
L 292.192112 52.690683 
L 292.192112 52.690683 
" style="fill:none;stroke:#1f77b4;stroke-dasharray:3.7,1.6;stroke-dashoffset:0;"/>
   </g>
   <g id="line2d_28">
    <path clip-path="url(#p7be8c23296)" d="M 185.531013 143.141548 
L 219.62409 143.034744 
L 221.227213 142.796479 
L 222.295961 142.438483 
L 223.15096 141.946194 
L 223.899084 141.290833 
L 224.647208 140.346341 
L 225.395332 139.020828 
L 226.143456 137.20887 
L 226.89158 134.795852 
L 227.639703 131.665103 
L 228.494702 127.069647 
L 229.349701 121.267654 
L 230.311575 113.220816 
L 231.487198 101.288027 
L 232.983446 83.540284 
L 235.655317 51.438384 
L 236.617191 42.470883 
L 237.365315 37.291971 
L 238.006564 34.346199 
L 238.434063 33.215487 
L 238.754688 32.82141 
L 238.968437 32.777539 
L 239.182187 32.909102 
L 239.502812 33.433822 
L 239.930311 34.734938 
L 240.464685 37.291971 
L 241.105934 41.625313 
L 241.960933 49.254055 
L 243.029682 61.012845 
L 247.518425 113.220816 
L 248.587174 122.061867 
L 249.549047 128.327486 
L 250.404046 132.639447 
L 251.259045 135.911143 
L 252.114044 138.310377 
L 252.969043 140.010886 
L 253.824041 141.175588 
L 254.67904 141.946194 
L 255.640914 142.485181 
L 256.709662 142.821155 
L 258.20591 143.034744 
L 260.770907 143.12922 
L 272.206515 143.141548 
L 292.298987 143.141548 
L 292.298987 143.141548 
" style="fill:none;stroke:#1f77b4;stroke-linecap:square;"/>
   </g>
   <g id="patch_8">
    <path d="M 184.463333 144.52 
L 184.463333 26.8 
" style="fill:none;stroke:#000000;stroke-linecap:square;stroke-linejoin:miter;stroke-width:0.8;"/>
   </g>
   <g id="patch_9">
    <path d="M 293.366667 144.52 
L 293.366667 26.8 
" style="fill:none;stroke:#000000;stroke-linecap:square;stroke-linejoin:miter;stroke-width:0.8;"/>
   </g>
   <g id="patch_10">
    <path d="M 184.463333 144.52 
L 293.366667 144.52 
" style="fill:none;stroke:#000000;stroke-linecap:square;stroke-linejoin:miter;stroke-width:0.8;"/>
   </g>
   <g id="patch_11">
    <path d="M 184.463333 26.8 
L 293.366667 26.8 
" style="fill:none;stroke:#000000;stroke-linecap:square;stroke-linejoin:miter;stroke-width:0.8;"/>
   </g>
   <g id="text_29">
    <!-- $\alpha=0.6,\/\/\beta=0.6$ -->
    <defs>
     <path d="M 10.6875 12.40625 
L 21 12.40625 
L 21 0 
L 10.6875 0 
z
" id="DejaVuSans-2e"/>
    </defs>
    <g transform="translate(243.889867 34.366)scale(0.06 -0.06)">
     <use transform="translate(0 0.390625)" xlink:href="#DejaVuSans-Oblique-3b1"/>
     <use transform="translate(85.400391 0.390625)" xlink:href="#DejaVuSans-3d"/>
     <use transform="translate(188.671875 0.390625)" xlink:href="#DejaVuSans-30"/>
     <use transform="translate(252.294922 0.390625)" xlink:href="#DejaVuSans-2e"/>
     <use transform="translate(284.082031 0.390625)" xlink:href="#DejaVuSans-36"/>
     <use transform="translate(347.705078 0.390625)" xlink:href="#DejaVuSans-2c"/>
     <use transform="translate(431.445962 0.390625)" xlink:href="#DejaVuSans-Oblique-3b2"/>
     <use transform="translate(514.746743 0.390625)" xlink:href="#DejaVuSans-3d"/>
     <use transform="translate(618.018228 0.390625)" xlink:href="#DejaVuSans-30"/>
     <use transform="translate(681.641274 0.390625)" xlink:href="#DejaVuSans-2e"/>
     <use transform="translate(713.428384 0.390625)" xlink:href="#DejaVuSans-36"/>
    </g>
   </g>
   <g id="text_30">
    <!-- $M_2$ -->
    <g transform="translate(184.463333 20.8)scale(0.12 -0.12)">
     <use transform="translate(0 0.09375)" xlink:href="#DejaVuSans-Oblique-4d"/>
     <use transform="translate(86.279297 -16.3125)scale(0.7)" xlink:href="#DejaVuSans-32"/>
    </g>
   </g>
   <g id="legend_1">
    <g id="patch_12">
     <path d="M 300.811833 74.8 
L 418.211833 74.8 
Q 420.211833 74.8 420.211833 72.8 
L 420.211833 28.8 
Q 420.211833 26.8 418.211833 26.8 
L 300.811833 26.8 
Q 298.811833 26.8 298.811833 28.8 
L 298.811833 72.8 
Q 298.811833 74.8 300.811833 74.8 
z
" style="fill:#ffffff;opacity:0.8;stroke:#cccccc;stroke-linejoin:miter;"/>
    </g>
    <g id="line2d_29">
     <path d="M 302.811833 35 
L 322.811833 35 
" style="fill:none;stroke:#1f77b4;stroke-dasharray:1,1.65;stroke-dashoffset:0;"/>
    </g>
    <g id="line2d_30"/>
    <g id="text_31">
     <!-- $Likelihood\/\/p(D|\theta$) -->
     <defs>
      <path d="M 16.796875 72.90625 
L 26.703125 72.90625 
L 14.203125 8.203125 
L 49.703125 8.203125 
L 48.09375 0 
L 2.6875 0 
z
" id="DejaVuSans-Oblique-4c"/>
      <path d="M 18.3125 75.984375 
L 27.296875 75.984375 
L 25.09375 64.59375 
L 16.109375 64.59375 
z
M 14.203125 54.6875 
L 23.1875 54.6875 
L 12.5 0 
L 3.515625 0 
z
" id="DejaVuSans-Oblique-69"/>
      <path d="M 18.3125 75.984375 
L 27.296875 75.984375 
L 18.703125 31.6875 
L 49.515625 54.6875 
L 61.1875 54.6875 
L 26.8125 28.515625 
L 51.90625 0 
L 41.015625 0 
L 17.671875 26.703125 
L 12.5 0 
L 3.515625 0 
z
" id="DejaVuSans-Oblique-6b"/>
      <path d="M 48.09375 32.234375 
Q 48.25 33.015625 48.3125 33.84375 
Q 48.390625 34.671875 48.390625 35.5 
Q 48.390625 41.453125 44.890625 44.921875 
Q 41.40625 48.390625 35.40625 48.390625 
Q 28.71875 48.390625 23.578125 44.15625 
Q 18.453125 39.9375 15.828125 32.171875 
z
M 55.90625 25.203125 
L 14.109375 25.203125 
Q 13.8125 23.34375 13.71875 22.265625 
Q 13.625 21.1875 13.625 20.40625 
Q 13.625 13.625 17.796875 9.90625 
Q 21.96875 6.203125 29.59375 6.203125 
Q 35.453125 6.203125 40.671875 7.515625 
Q 45.90625 8.84375 50.390625 11.375 
L 48.6875 2.484375 
Q 43.84375 0.53125 38.6875 -0.4375 
Q 33.546875 -1.421875 28.21875 -1.421875 
Q 16.84375 -1.421875 10.71875 4.015625 
Q 4.59375 9.46875 4.59375 19.484375 
Q 4.59375 28.03125 7.640625 35.375 
Q 10.6875 42.71875 16.609375 48.484375 
Q 20.40625 52.09375 25.65625 54.046875 
Q 30.90625 56 36.8125 56 
Q 46.09375 56 51.578125 50.4375 
Q 57.078125 44.875 57.078125 35.5 
Q 57.078125 33.25 56.78125 30.6875 
Q 56.5 28.125 55.90625 25.203125 
z
" id="DejaVuSans-Oblique-65"/>
      <path d="M 18.3125 75.984375 
L 27.296875 75.984375 
L 12.5 0 
L 3.515625 0 
z
" id="DejaVuSans-Oblique-6c"/>
      <path d="M 55.71875 33.015625 
L 49.3125 0 
L 40.28125 0 
L 46.6875 32.671875 
Q 47.125 34.96875 47.359375 36.71875 
Q 47.609375 38.484375 47.609375 39.5 
Q 47.609375 43.609375 45.015625 45.890625 
Q 42.4375 48.1875 37.796875 48.1875 
Q 30.5625 48.1875 25.265625 43.296875 
Q 19.96875 38.421875 18.40625 30.328125 
L 12.5 0 
L 3.515625 0 
L 18.3125 75.984375 
L 27.296875 75.984375 
L 21.484375 46.09375 
Q 24.90625 50.6875 30.21875 53.34375 
Q 35.546875 56 41.40625 56 
Q 48.640625 56 52.609375 52.09375 
Q 56.59375 48.1875 56.59375 41.109375 
Q 56.59375 39.359375 56.375 37.359375 
Q 56.15625 35.359375 55.71875 33.015625 
z
" id="DejaVuSans-Oblique-68"/>
      <path d="M 25.390625 -1.421875 
Q 15.765625 -1.421875 10.171875 4.515625 
Q 4.59375 10.453125 4.59375 20.703125 
Q 4.59375 26.65625 6.515625 32.828125 
Q 8.453125 39.015625 11.53125 43.21875 
Q 16.359375 49.75 22.3125 52.875 
Q 28.265625 56 35.796875 56 
Q 45.125 56 50.859375 50.1875 
Q 56.59375 44.390625 56.59375 35.015625 
Q 56.59375 28.515625 54.6875 22.0625 
Q 52.78125 15.625 49.703125 11.375 
Q 44.921875 4.828125 38.96875 1.703125 
Q 33.015625 -1.421875 25.390625 -1.421875 
z
M 13.921875 21 
Q 13.921875 13.578125 17.015625 9.890625 
Q 20.125 6.203125 26.421875 6.203125 
Q 35.453125 6.203125 41.375 14.078125 
Q 47.3125 21.96875 47.3125 34.078125 
Q 47.3125 41.15625 44.140625 44.765625 
Q 40.96875 48.390625 34.8125 48.390625 
Q 29.734375 48.390625 25.78125 46.015625 
Q 21.828125 43.65625 18.703125 38.8125 
Q 16.40625 35.203125 15.15625 30.5625 
Q 13.921875 25.921875 13.921875 21 
z
" id="DejaVuSans-Oblique-6f"/>
      <path d="M 41.796875 8.203125 
Q 38.1875 3.46875 33.25 1.015625 
Q 28.328125 -1.421875 22.3125 -1.421875 
Q 14.109375 -1.421875 9.34375 4.171875 
Q 4.59375 9.765625 4.59375 19.484375 
Q 4.59375 27.59375 7.46875 34.9375 
Q 10.359375 42.28125 15.828125 48.09375 
Q 19.4375 51.953125 23.96875 53.96875 
Q 28.515625 56 33.5 56 
Q 38.765625 56 42.796875 53.453125 
Q 46.828125 50.921875 49.03125 46.1875 
L 54.890625 75.984375 
L 63.921875 75.984375 
L 49.125 0 
L 40.09375 0 
z
M 13.921875 21.09375 
Q 13.921875 14.015625 17.109375 10.0625 
Q 20.3125 6.109375 25.984375 6.109375 
Q 30.171875 6.109375 33.765625 8.125 
Q 37.359375 10.15625 40.09375 14.109375 
Q 42.96875 18.21875 44.625 23.578125 
Q 46.296875 28.953125 46.296875 34.1875 
Q 46.296875 40.96875 43.09375 44.765625 
Q 39.890625 48.578125 34.28125 48.578125 
Q 30.03125 48.578125 26.359375 46.578125 
Q 22.703125 44.578125 20.125 40.828125 
Q 17.28125 36.765625 15.59375 31.390625 
Q 13.921875 26.03125 13.921875 21.09375 
z
" id="DejaVuSans-Oblique-64"/>
      <path d="M 49.609375 33.6875 
Q 49.609375 40.875 46.484375 44.671875 
Q 43.359375 48.484375 37.5 48.484375 
Q 33.5 48.484375 29.859375 46.4375 
Q 26.21875 44.390625 23.390625 40.484375 
Q 20.609375 36.625 18.9375 31.15625 
Q 17.28125 25.6875 17.28125 20.3125 
Q 17.28125 13.484375 20.40625 9.796875 
Q 23.53125 6.109375 29.296875 6.109375 
Q 33.546875 6.109375 37.1875 8.109375 
Q 40.828125 10.109375 43.40625 13.921875 
Q 46.1875 17.921875 47.890625 23.34375 
Q 49.609375 28.765625 49.609375 33.6875 
z
M 21.78125 46.390625 
Q 25.390625 51.125 30.296875 53.5625 
Q 35.203125 56 41.21875 56 
Q 49.609375 56 54.25 50.5 
Q 58.890625 45.015625 58.890625 35.109375 
Q 58.890625 27 56 19.65625 
Q 53.125 12.3125 47.703125 6.5 
Q 44.09375 2.640625 39.546875 0.609375 
Q 35.015625 -1.421875 29.984375 -1.421875 
Q 24.171875 -1.421875 20.21875 1 
Q 16.265625 3.421875 14.3125 8.203125 
L 8.6875 -20.796875 
L -0.296875 -20.796875 
L 14.40625 54.6875 
L 23.390625 54.6875 
z
" id="DejaVuSans-Oblique-70"/>
      <path d="M 31 75.875 
Q 24.46875 64.65625 21.28125 53.65625 
Q 18.109375 42.671875 18.109375 31.390625 
Q 18.109375 20.125 21.3125 9.0625 
Q 24.515625 -2 31 -13.1875 
L 23.1875 -13.1875 
Q 15.875 -1.703125 12.234375 9.375 
Q 8.59375 20.453125 8.59375 31.390625 
Q 8.59375 42.28125 12.203125 53.3125 
Q 15.828125 64.359375 23.1875 75.875 
z
" id="DejaVuSans-28"/>
      <path d="M 16.890625 72.90625 
L 38.09375 72.90625 
Q 54.984375 72.90625 63.59375 65.75 
Q 72.21875 58.59375 72.21875 44.484375 
Q 72.21875 35.15625 68.9375 26.53125 
Q 65.671875 17.921875 59.90625 12.015625 
Q 54.109375 5.953125 45.171875 2.96875 
Q 36.234375 0 24.03125 0 
L 2.6875 0 
z
M 25.203125 64.796875 
L 14.203125 8.109375 
L 27.09375 8.109375 
Q 43.65625 8.109375 52.734375 17.625 
Q 61.8125 27.15625 61.8125 44.484375 
Q 61.8125 54.984375 55.953125 59.890625 
Q 50.09375 64.796875 37.59375 64.796875 
z
" id="DejaVuSans-Oblique-44"/>
      <path d="M 21 76.421875 
L 21 -23.578125 
L 12.703125 -23.578125 
L 12.703125 76.421875 
z
" id="DejaVuSans-7c"/>
      <path d="M 8.015625 75.875 
L 15.828125 75.875 
Q 23.140625 64.359375 26.78125 53.3125 
Q 30.421875 42.28125 30.421875 31.390625 
Q 30.421875 20.453125 26.78125 9.375 
Q 23.140625 -1.703125 15.828125 -13.1875 
L 8.015625 -13.1875 
Q 14.5 -2 17.703125 9.0625 
Q 20.90625 20.125 20.90625 31.390625 
Q 20.90625 42.671875 17.703125 53.65625 
Q 14.5 64.65625 8.015625 75.875 
z
" id="DejaVuSans-29"/>
     </defs>
     <g transform="translate(330.811833 38.5)scale(0.1 -0.1)">
      <use transform="translate(0 0.234375)" xlink:href="#DejaVuSans-Oblique-4c"/>
      <use transform="translate(55.712891 0.234375)" xlink:href="#DejaVuSans-Oblique-69"/>
      <use transform="translate(83.496094 0.234375)" xlink:href="#DejaVuSans-Oblique-6b"/>
      <use transform="translate(141.40625 0.234375)" xlink:href="#DejaVuSans-Oblique-65"/>
      <use transform="translate(202.929688 0.234375)" xlink:href="#DejaVuSans-Oblique-6c"/>
      <use transform="translate(230.712891 0.234375)" xlink:href="#DejaVuSans-Oblique-69"/>
      <use transform="translate(258.496094 0.234375)" xlink:href="#DejaVuSans-Oblique-68"/>
      <use transform="translate(321.875 0.234375)" xlink:href="#DejaVuSans-Oblique-6f"/>
      <use transform="translate(383.056641 0.234375)" xlink:href="#DejaVuSans-Oblique-6f"/>
      <use transform="translate(444.238281 0.234375)" xlink:href="#DejaVuSans-Oblique-64"/>
      <use transform="translate(540.186196 0.234375)" xlink:href="#DejaVuSans-Oblique-70"/>
      <use transform="translate(603.662759 0.234375)" xlink:href="#DejaVuSans-28"/>
      <use transform="translate(642.676431 0.234375)" xlink:href="#DejaVuSans-Oblique-44"/>
      <use transform="translate(719.678384 0.234375)" xlink:href="#DejaVuSans-7c"/>
      <use transform="translate(753.36979 0.234375)" xlink:href="#DejaVuSans-Oblique-3b8"/>
      <use transform="translate(814.551431 0.234375)" xlink:href="#DejaVuSans-29"/>
     </g>
    </g>
    <g id="line2d_31">
     <path d="M 302.811833 50.1 
L 322.811833 50.1 
" style="fill:none;stroke:#1f77b4;stroke-dasharray:3.7,1.6;stroke-dashoffset:0;"/>
    </g>
    <g id="line2d_32"/>
    <g id="text_32">
     <!-- $Prior\/\/p(\theta)$ -->
     <defs>
      <path d="M 16.890625 72.90625 
L 39.703125 72.90625 
Q 49.65625 72.90625 54.875 68.265625 
Q 60.109375 63.625 60.109375 54.6875 
Q 60.109375 42.671875 52.390625 35.984375 
Q 44.671875 29.296875 30.71875 29.296875 
L 18.3125 29.296875 
L 12.59375 0 
L 2.6875 0 
z
M 25.203125 64.796875 
L 19.921875 37.40625 
L 32.328125 37.40625 
Q 40.71875 37.40625 45.203125 41.703125 
Q 49.703125 46 49.703125 54 
Q 49.703125 59.125 46.65625 61.953125 
Q 43.609375 64.796875 38.09375 64.796875 
z
" id="DejaVuSans-Oblique-50"/>
      <path d="M 44.578125 46.390625 
Q 43.21875 47.125 41.453125 47.515625 
Q 39.703125 47.90625 37.703125 47.90625 
Q 30.515625 47.90625 25.140625 42.453125 
Q 19.78125 37.015625 18.015625 27.875 
L 12.5 0 
L 3.515625 0 
L 14.203125 54.6875 
L 23.1875 54.6875 
L 21.484375 46.1875 
Q 25.046875 50.921875 30 53.453125 
Q 34.96875 56 40.578125 56 
Q 42.046875 56 43.453125 55.828125 
Q 44.875 55.671875 46.296875 55.28125 
z
" id="DejaVuSans-Oblique-72"/>
     </defs>
     <g transform="translate(330.811833 53.6)scale(0.1 -0.1)">
      <use transform="translate(0 0.234375)" xlink:href="#DejaVuSans-Oblique-50"/>
      <use transform="translate(60.302734 0.234375)" xlink:href="#DejaVuSans-Oblique-72"/>
      <use transform="translate(101.416016 0.234375)" xlink:href="#DejaVuSans-Oblique-69"/>
      <use transform="translate(129.199219 0.234375)" xlink:href="#DejaVuSans-Oblique-6f"/>
      <use transform="translate(190.380859 0.234375)" xlink:href="#DejaVuSans-Oblique-72"/>
      <use transform="translate(263.965493 0.234375)" xlink:href="#DejaVuSans-Oblique-70"/>
      <use transform="translate(327.442056 0.234375)" xlink:href="#DejaVuSans-28"/>
      <use transform="translate(366.455728 0.234375)" xlink:href="#DejaVuSans-Oblique-3b8"/>
      <use transform="translate(427.637368 0.234375)" xlink:href="#DejaVuSans-29"/>
     </g>
    </g>
    <g id="line2d_33">
     <path d="M 302.811833 64.9 
L 322.811833 64.9 
" style="fill:none;stroke:#1f77b4;stroke-linecap:square;"/>
    </g>
    <g id="line2d_34"/>
    <g id="text_33">
     <!-- $Posterior\/\/p(\theta|D)$ -->
     <defs>
      <path d="M 50 53.078125 
L 48.296875 44.578125 
Q 44.734375 46.53125 40.765625 47.5 
Q 36.8125 48.484375 32.625 48.484375 
Q 25.53125 48.484375 21.453125 46.0625 
Q 17.390625 43.65625 17.390625 39.5 
Q 17.390625 34.671875 26.859375 32.078125 
Q 27.59375 31.890625 27.9375 31.78125 
L 30.8125 30.90625 
Q 39.796875 28.421875 42.796875 25.6875 
Q 45.796875 22.953125 45.796875 18.21875 
Q 45.796875 9.515625 38.890625 4.046875 
Q 31.984375 -1.421875 20.796875 -1.421875 
Q 16.453125 -1.421875 11.671875 -0.578125 
Q 6.890625 0.25 1.125 2 
L 2.875 11.28125 
Q 7.8125 8.734375 12.59375 7.421875 
Q 17.390625 6.109375 21.78125 6.109375 
Q 28.375 6.109375 32.5 8.9375 
Q 36.625 11.765625 36.625 16.109375 
Q 36.625 20.796875 25.78125 23.6875 
L 24.859375 23.921875 
L 21.78125 24.703125 
Q 14.9375 26.515625 11.765625 29.46875 
Q 8.59375 32.421875 8.59375 37.015625 
Q 8.59375 45.75 15.15625 50.875 
Q 21.734375 56 33.015625 56 
Q 37.453125 56 41.671875 55.265625 
Q 45.90625 54.546875 50 53.078125 
z
" id="DejaVuSans-Oblique-73"/>
      <path d="M 42.28125 54.6875 
L 40.921875 47.703125 
L 23 47.703125 
L 17.1875 18.015625 
Q 16.890625 16.359375 16.75 15.234375 
Q 16.609375 14.109375 16.609375 13.484375 
Q 16.609375 10.359375 18.484375 8.9375 
Q 20.359375 7.515625 24.515625 7.515625 
L 33.59375 7.515625 
L 32.078125 0 
L 23.484375 0 
Q 15.484375 0 11.546875 3.125 
Q 7.625 6.25 7.625 12.59375 
Q 7.625 13.71875 7.765625 15.0625 
Q 7.90625 16.40625 8.203125 18.015625 
L 14.015625 47.703125 
L 6.390625 47.703125 
L 7.8125 54.6875 
L 15.28125 54.6875 
L 18.3125 70.21875 
L 27.296875 70.21875 
L 24.3125 54.6875 
z
" id="DejaVuSans-Oblique-74"/>
     </defs>
     <g transform="translate(330.811833 68.4)scale(0.1 -0.1)">
      <use transform="translate(0 0.234375)" xlink:href="#DejaVuSans-Oblique-50"/>
      <use transform="translate(60.302734 0.234375)" xlink:href="#DejaVuSans-Oblique-6f"/>
      <use transform="translate(121.484375 0.234375)" xlink:href="#DejaVuSans-Oblique-73"/>
      <use transform="translate(173.583984 0.234375)" xlink:href="#DejaVuSans-Oblique-74"/>
      <use transform="translate(212.792969 0.234375)" xlink:href="#DejaVuSans-Oblique-65"/>
      <use transform="translate(274.316406 0.234375)" xlink:href="#DejaVuSans-Oblique-72"/>
      <use transform="translate(315.429688 0.234375)" xlink:href="#DejaVuSans-Oblique-69"/>
      <use transform="translate(343.212891 0.234375)" xlink:href="#DejaVuSans-Oblique-6f"/>
      <use transform="translate(404.394531 0.234375)" xlink:href="#DejaVuSans-Oblique-72"/>
      <use transform="translate(477.979165 0.234375)" xlink:href="#DejaVuSans-Oblique-70"/>
      <use transform="translate(541.455728 0.234375)" xlink:href="#DejaVuSans-28"/>
      <use transform="translate(580.469399 0.234375)" xlink:href="#DejaVuSans-Oblique-3b8"/>
      <use transform="translate(641.65104 0.234375)" xlink:href="#DejaVuSans-7c"/>
      <use transform="translate(675.342446 0.234375)" xlink:href="#DejaVuSans-Oblique-44"/>
      <use transform="translate(752.344399 0.234375)" xlink:href="#DejaVuSans-29"/>
     </g>
    </g>
   </g>
  </g>
  <g id="axes_3"/>
  <g id="axes_4">
   <g id="patch_13">
    <path d="M 34.95 307.32 
L 143.853333 307.32 
L 143.853333 189.6 
L 34.95 189.6 
z
" style="fill:#ffffff;"/>
   </g>
   <g id="matplotlib.axis_5">
    <g id="xtick_5">
     <g id="line2d_35">
      <g>
       <use style="stroke:#000000;stroke-width:0.8;" x="36.01768" xlink:href="#md6047a3a59" y="307.32"/>
      </g>
     </g>
     <g id="text_34">
      <!-- 0 -->
      <g transform="translate(34.10893 318.879062)scale(0.06 -0.06)">
       <use xlink:href="#DejaVuSans-30"/>
      </g>
     </g>
    </g>
    <g id="xtick_6">
     <g id="line2d_36">
      <g>
       <use style="stroke:#000000;stroke-width:0.8;" x="142.785654" xlink:href="#md6047a3a59" y="307.32"/>
      </g>
     </g>
     <g id="text_35">
      <!-- 1 -->
      <g transform="translate(140.876904 318.879062)scale(0.06 -0.06)">
       <use xlink:href="#DejaVuSans-31"/>
      </g>
     </g>
    </g>
    <g id="text_36">
     <!-- $\theta$ -->
     <g transform="translate(86.301667 331.725312)scale(0.1 -0.1)">
      <use transform="translate(0 0.234375)" xlink:href="#DejaVuSans-Oblique-3b8"/>
     </g>
    </g>
   </g>
   <g id="matplotlib.axis_6">
    <g id="ytick_19">
     <g id="line2d_37">
      <g>
       <use style="stroke:#000000;stroke-width:0.8;" x="34.95" xlink:href="#mcb3522274b" y="305.992272"/>
      </g>
     </g>
     <g id="text_37">
      <!-- 0 -->
      <g transform="translate(24.1325 308.271804)scale(0.06 -0.06)">
       <use xlink:href="#DejaVuSans-30"/>
      </g>
     </g>
    </g>
    <g id="ytick_20">
     <g id="line2d_38">
      <g>
       <use style="stroke:#000000;stroke-width:0.8;" x="34.95" xlink:href="#mcb3522274b" y="292.714997"/>
      </g>
     </g>
     <g id="text_38">
      <!-- 1 -->
      <g transform="translate(24.1325 294.994528)scale(0.06 -0.06)">
       <use xlink:href="#DejaVuSans-31"/>
      </g>
     </g>
    </g>
    <g id="ytick_21">
     <g id="line2d_39">
      <g>
       <use style="stroke:#000000;stroke-width:0.8;" x="34.95" xlink:href="#mcb3522274b" y="279.437722"/>
      </g>
     </g>
     <g id="text_39">
      <!-- 2 -->
      <g transform="translate(24.1325 281.717253)scale(0.06 -0.06)">
       <use xlink:href="#DejaVuSans-32"/>
      </g>
     </g>
    </g>
    <g id="ytick_22">
     <g id="line2d_40">
      <g>
       <use style="stroke:#000000;stroke-width:0.8;" x="34.95" xlink:href="#mcb3522274b" y="266.160446"/>
      </g>
     </g>
     <g id="text_40">
      <!-- 3 -->
      <g transform="translate(24.1325 268.439978)scale(0.06 -0.06)">
       <use xlink:href="#DejaVuSans-33"/>
      </g>
     </g>
    </g>
    <g id="ytick_23">
     <g id="line2d_41">
      <g>
       <use style="stroke:#000000;stroke-width:0.8;" x="34.95" xlink:href="#mcb3522274b" y="252.883171"/>
      </g>
     </g>
     <g id="text_41">
      <!-- 4 -->
      <g transform="translate(24.1325 255.162702)scale(0.06 -0.06)">
       <use xlink:href="#DejaVuSans-34"/>
      </g>
     </g>
    </g>
    <g id="ytick_24">
     <g id="line2d_42">
      <g>
       <use style="stroke:#000000;stroke-width:0.8;" x="34.95" xlink:href="#mcb3522274b" y="239.605896"/>
      </g>
     </g>
     <g id="text_42">
      <!-- 5 -->
      <g transform="translate(24.1325 241.885427)scale(0.06 -0.06)">
       <use xlink:href="#DejaVuSans-35"/>
      </g>
     </g>
    </g>
    <g id="ytick_25">
     <g id="line2d_43">
      <g>
       <use style="stroke:#000000;stroke-width:0.8;" x="34.95" xlink:href="#mcb3522274b" y="226.32862"/>
      </g>
     </g>
     <g id="text_43">
      <!-- 6 -->
      <g transform="translate(24.1325 228.608151)scale(0.06 -0.06)">
       <use xlink:href="#DejaVuSans-36"/>
      </g>
     </g>
    </g>
    <g id="ytick_26">
     <g id="line2d_44">
      <g>
       <use style="stroke:#000000;stroke-width:0.8;" x="34.95" xlink:href="#mcb3522274b" y="213.051345"/>
      </g>
     </g>
     <g id="text_44">
      <!-- 7 -->
      <g transform="translate(24.1325 215.330876)scale(0.06 -0.06)">
       <use xlink:href="#DejaVuSans-37"/>
      </g>
     </g>
    </g>
    <g id="ytick_27">
     <g id="line2d_45">
      <g>
       <use style="stroke:#000000;stroke-width:0.8;" x="34.95" xlink:href="#mcb3522274b" y="199.77407"/>
      </g>
     </g>
     <g id="text_45">
      <!-- 8 -->
      <g transform="translate(24.1325 202.053601)scale(0.06 -0.06)">
       <use xlink:href="#DejaVuSans-38"/>
      </g>
     </g>
    </g>
    <g id="text_46">
     <!-- Density -->
     <g transform="translate(18.052813 267.468594)rotate(-90)scale(0.1 -0.1)">
      <use xlink:href="#DejaVuSans-44"/>
      <use x="77.001953" xlink:href="#DejaVuSans-65"/>
      <use x="138.525391" xlink:href="#DejaVuSans-6e"/>
      <use x="201.904297" xlink:href="#DejaVuSans-73"/>
      <use x="254.003906" xlink:href="#DejaVuSans-69"/>
      <use x="281.787109" xlink:href="#DejaVuSans-74"/>
      <use x="320.996094" xlink:href="#DejaVuSans-79"/>
     </g>
    </g>
   </g>
   <g id="line2d_46">
    <path clip-path="url(#pbcc99aede9)" d="M 36.01768 305.992272 
L 70.217631 305.886171 
L 71.820754 305.649205 
L 72.889503 305.293111 
L 73.744501 304.803506 
L 74.5995 304.03735 
L 75.347624 303.0506 
L 76.095748 301.671829 
L 76.843872 299.795554 
L 77.591996 297.308524 
L 78.446995 293.57331 
L 79.301993 288.741489 
L 80.263867 281.862914 
L 81.332616 272.385989 
L 82.615114 258.733805 
L 86.996983 209.56952 
L 87.745107 204.281967 
L 88.386356 201.176041 
L 88.813855 199.907811 
L 89.13448 199.396319 
L 89.455104 199.268069 
L 89.668854 199.396319 
L 89.989478 199.907811 
L 90.416978 201.176041 
L 90.951352 203.668085 
L 91.592601 207.890179 
L 92.4476 215.319498 
L 93.516348 226.761211 
L 97.898217 276.403419 
L 98.966966 285.114075 
L 99.928839 291.302561 
L 100.890713 296.027364 
L 101.745712 299.15233 
L 102.60071 301.436836 
L 103.455709 303.0506 
L 104.310708 304.15191 
L 105.165707 304.877766 
L 106.12758 305.38325 
L 107.303204 305.718158 
L 108.906327 305.909684 
L 111.898822 305.986211 
L 132.953168 305.992272 
L 142.785654 305.992272 
L 142.785654 305.992272 
" style="fill:none;stroke:#1f77b4;stroke-dasharray:1,1.65;stroke-dashoffset:0;"/>
   </g>
   <g id="line2d_47">
    <path clip-path="url(#pbcc99aede9)" d="M 36.01768 305.992272 
L 42.85767 305.884156 
L 45.636416 305.614569 
L 47.987663 305.170991 
L 50.12516 304.545841 
L 52.155782 303.725454 
L 54.186404 302.666141 
L 56.217026 301.360866 
L 58.354523 299.725858 
L 60.70577 297.639736 
L 63.377641 294.955535 
L 66.690761 291.290383 
L 75.881998 280.927817 
L 78.446995 278.483349 
L 80.584492 276.739855 
L 82.508239 275.443128 
L 84.325111 274.483706 
L 86.035109 273.834415 
L 87.638232 273.46011 
L 89.241354 273.318906 
L 90.844477 273.413093 
L 92.4476 273.741143 
L 94.050723 274.297744 
L 95.76072 275.133152 
L 97.577593 276.277185 
L 99.50134 277.750531 
L 101.745712 279.765131 
L 104.310708 282.379932 
L 107.730703 286.208411 
L 115.639442 295.180782 
L 118.418188 297.940667 
L 120.87631 300.073617 
L 123.120681 301.728173 
L 125.258178 303.027121 
L 127.288801 304.0097 
L 129.426298 304.791083 
L 131.563794 305.337587 
L 133.915041 305.710551 
L 136.693787 305.922187 
L 140.968781 305.991618 
L 142.785654 305.992272 
L 142.785654 305.992272 
" style="fill:none;stroke:#1f77b4;stroke-dasharray:3.7,1.6;stroke-dashoffset:0;"/>
   </g>
   <g id="line2d_48">
    <path clip-path="url(#pbcc99aede9)" d="M 36.01768 305.992272 
L 70.85888 305.885247 
L 72.462003 305.632639 
L 73.530752 305.243138 
L 74.38575 304.698839 
L 75.133874 303.965971 
L 75.881998 302.900439 
L 76.630122 301.394638 
L 77.378246 299.325831 
L 78.12637 296.56228 
L 78.874494 292.973045 
L 79.729493 287.71159 
L 80.691366 280.172315 
L 81.760115 269.748072 
L 83.042613 254.752487 
L 86.890108 207.638325 
L 87.745107 200.756099 
L 88.386356 197.281215 
L 88.813855 195.859947 
L 89.13448 195.286347 
L 89.455104 195.142489 
L 89.668854 195.286347 
L 89.989478 195.859947 
L 90.416978 197.281215 
L 90.951352 200.069958 
L 91.592601 204.782271 
L 92.4476 213.034448 
L 93.623223 226.989673 
L 97.256968 271.998991 
L 98.325717 282.000244 
L 99.28759 289.150205 
L 100.249464 294.620386 
L 101.104463 298.234309 
L 101.959461 300.866662 
L 102.707585 302.520259 
L 103.455709 303.69986 
L 104.203833 304.51782 
L 105.058832 305.130654 
L 106.020706 305.54134 
L 107.303204 305.815597 
L 109.226951 305.955594 
L 114.036319 305.992004 
L 142.785654 305.992272 
L 142.785654 305.992272 
" style="fill:none;stroke:#1f77b4;stroke-linecap:square;"/>
   </g>
   <g id="patch_14">
    <path d="M 34.95 307.32 
L 34.95 189.6 
" style="fill:none;stroke:#000000;stroke-linecap:square;stroke-linejoin:miter;stroke-width:0.8;"/>
   </g>
   <g id="patch_15">
    <path d="M 143.853333 307.32 
L 143.853333 189.6 
" style="fill:none;stroke:#000000;stroke-linecap:square;stroke-linejoin:miter;stroke-width:0.8;"/>
   </g>
   <g id="patch_16">
    <path d="M 34.95 307.32 
L 143.853333 307.32 
" style="fill:none;stroke:#000000;stroke-linecap:square;stroke-linejoin:miter;stroke-width:0.8;"/>
   </g>
   <g id="patch_17">
    <path d="M 34.95 189.6 
L 143.853333 189.6 
" style="fill:none;stroke:#000000;stroke-linecap:square;stroke-linejoin:miter;stroke-width:0.8;"/>
   </g>
   <g id="text_47">
    <!-- $\alpha=5,\/\/\beta=5$ -->
    <g transform="translate(100.106533 197.166)scale(0.06 -0.06)">
     <use transform="translate(0 0.390625)" xlink:href="#DejaVuSans-Oblique-3b1"/>
     <use transform="translate(85.400391 0.390625)" xlink:href="#DejaVuSans-3d"/>
     <use transform="translate(188.671875 0.390625)" xlink:href="#DejaVuSans-35"/>
     <use transform="translate(252.294922 0.390625)" xlink:href="#DejaVuSans-2c"/>
     <use transform="translate(336.035806 0.390625)" xlink:href="#DejaVuSans-Oblique-3b2"/>
     <use transform="translate(419.336587 0.390625)" xlink:href="#DejaVuSans-3d"/>
     <use transform="translate(522.608071 0.390625)" xlink:href="#DejaVuSans-35"/>
    </g>
   </g>
   <g id="text_48">
    <!-- $M_3$ -->
    <g transform="translate(34.95 183.6)scale(0.12 -0.12)">
     <use transform="translate(0 0.09375)" xlink:href="#DejaVuSans-Oblique-4d"/>
     <use transform="translate(86.279297 -16.3125)scale(0.7)" xlink:href="#DejaVuSans-33"/>
    </g>
   </g>
  </g>
  <g id="axes_5">
   <g id="patch_18">
    <path d="M 184.463333 307.32 
L 293.366667 307.32 
L 293.366667 189.6 
L 184.463333 189.6 
z
" style="fill:#ffffff;"/>
   </g>
   <g id="matplotlib.axis_7">
    <g id="xtick_7">
     <g id="line2d_49">
      <g>
       <use style="stroke:#000000;stroke-width:0.8;" x="185.531013" xlink:href="#md6047a3a59" y="307.32"/>
      </g>
     </g>
     <g id="text_49">
      <!-- 0 -->
      <g transform="translate(183.622263 318.879062)scale(0.06 -0.06)">
       <use xlink:href="#DejaVuSans-30"/>
      </g>
     </g>
    </g>
    <g id="xtick_8">
     <g id="line2d_50">
      <g>
       <use style="stroke:#000000;stroke-width:0.8;" x="292.298987" xlink:href="#md6047a3a59" y="307.32"/>
      </g>
     </g>
     <g id="text_50">
      <!-- 1 -->
      <g transform="translate(290.390237 318.879062)scale(0.06 -0.06)">
       <use xlink:href="#DejaVuSans-31"/>
      </g>
     </g>
    </g>
    <g id="text_51">
     <!-- $\theta$ -->
     <g transform="translate(235.815 331.725312)scale(0.1 -0.1)">
      <use transform="translate(0 0.234375)" xlink:href="#DejaVuSans-Oblique-3b8"/>
     </g>
    </g>
   </g>
   <g id="matplotlib.axis_8">
    <g id="ytick_28">
     <g id="line2d_51">
      <g>
       <use style="stroke:#000000;stroke-width:0.8;" x="184.463333" xlink:href="#mcb3522274b" y="305.968655"/>
      </g>
     </g>
     <g id="text_52">
      <!-- 0 -->
      <g transform="translate(173.645833 308.248187)scale(0.06 -0.06)">
       <use xlink:href="#DejaVuSans-30"/>
      </g>
     </g>
    </g>
    <g id="ytick_29">
     <g id="line2d_52">
      <g>
       <use style="stroke:#000000;stroke-width:0.8;" x="184.463333" xlink:href="#mcb3522274b" y="292.455209"/>
      </g>
     </g>
     <g id="text_53">
      <!-- 1 -->
      <g transform="translate(173.645833 294.73474)scale(0.06 -0.06)">
       <use xlink:href="#DejaVuSans-31"/>
      </g>
     </g>
    </g>
    <g id="ytick_30">
     <g id="line2d_53">
      <g>
       <use style="stroke:#000000;stroke-width:0.8;" x="184.463333" xlink:href="#mcb3522274b" y="278.941762"/>
      </g>
     </g>
     <g id="text_54">
      <!-- 2 -->
      <g transform="translate(173.645833 281.221293)scale(0.06 -0.06)">
       <use xlink:href="#DejaVuSans-32"/>
      </g>
     </g>
    </g>
    <g id="ytick_31">
     <g id="line2d_54">
      <g>
       <use style="stroke:#000000;stroke-width:0.8;" x="184.463333" xlink:href="#mcb3522274b" y="265.428315"/>
      </g>
     </g>
     <g id="text_55">
      <!-- 3 -->
      <g transform="translate(173.645833 267.707847)scale(0.06 -0.06)">
       <use xlink:href="#DejaVuSans-33"/>
      </g>
     </g>
    </g>
    <g id="ytick_32">
     <g id="line2d_55">
      <g>
       <use style="stroke:#000000;stroke-width:0.8;" x="184.463333" xlink:href="#mcb3522274b" y="251.914869"/>
      </g>
     </g>
     <g id="text_56">
      <!-- 4 -->
      <g transform="translate(173.645833 254.1944)scale(0.06 -0.06)">
       <use xlink:href="#DejaVuSans-34"/>
      </g>
     </g>
    </g>
    <g id="ytick_33">
     <g id="line2d_56">
      <g>
       <use style="stroke:#000000;stroke-width:0.8;" x="184.463333" xlink:href="#mcb3522274b" y="238.401422"/>
      </g>
     </g>
     <g id="text_57">
      <!-- 5 -->
      <g transform="translate(173.645833 240.680953)scale(0.06 -0.06)">
       <use xlink:href="#DejaVuSans-35"/>
      </g>
     </g>
    </g>
    <g id="ytick_34">
     <g id="line2d_57">
      <g>
       <use style="stroke:#000000;stroke-width:0.8;" x="184.463333" xlink:href="#mcb3522274b" y="224.887976"/>
      </g>
     </g>
     <g id="text_58">
      <!-- 6 -->
      <g transform="translate(173.645833 227.167507)scale(0.06 -0.06)">
       <use xlink:href="#DejaVuSans-36"/>
      </g>
     </g>
    </g>
    <g id="ytick_35">
     <g id="line2d_58">
      <g>
       <use style="stroke:#000000;stroke-width:0.8;" x="184.463333" xlink:href="#mcb3522274b" y="211.374529"/>
      </g>
     </g>
     <g id="text_59">
      <!-- 7 -->
      <g transform="translate(173.645833 213.65406)scale(0.06 -0.06)">
       <use xlink:href="#DejaVuSans-37"/>
      </g>
     </g>
    </g>
    <g id="ytick_36">
     <g id="line2d_59">
      <g>
       <use style="stroke:#000000;stroke-width:0.8;" x="184.463333" xlink:href="#mcb3522274b" y="197.861082"/>
      </g>
     </g>
     <g id="text_60">
      <!-- 8 -->
      <g transform="translate(173.645833 200.140614)scale(0.06 -0.06)">
       <use xlink:href="#DejaVuSans-38"/>
      </g>
     </g>
    </g>
    <g id="text_61">
     <!-- Density -->
     <g transform="translate(167.566146 267.468594)rotate(-90)scale(0.1 -0.1)">
      <use xlink:href="#DejaVuSans-44"/>
      <use x="77.001953" xlink:href="#DejaVuSans-65"/>
      <use x="138.525391" xlink:href="#DejaVuSans-6e"/>
      <use x="201.904297" xlink:href="#DejaVuSans-73"/>
      <use x="254.003906" xlink:href="#DejaVuSans-69"/>
      <use x="281.787109" xlink:href="#DejaVuSans-74"/>
      <use x="320.996094" xlink:href="#DejaVuSans-79"/>
     </g>
    </g>
   </g>
   <g id="line2d_60">
    <path clip-path="url(#p3eeff08d4b)" d="M 185.531013 305.968655 
L 219.730965 305.860666 
L 221.334087 305.619485 
L 222.402836 305.257057 
L 223.257835 304.758743 
L 224.005959 304.095557 
L 224.754083 303.140197 
L 225.502206 301.800215 
L 226.25033 299.969845 
L 226.998454 297.534543 
L 227.746578 294.378365 
L 228.601577 289.752127 
L 229.456576 283.921631 
L 230.41845 275.853487 
L 231.594073 263.92767 
L 233.197196 244.95991 
L 235.655317 215.847198 
L 236.617191 206.959903 
L 237.365315 201.824363 
L 238.006564 198.902351 
L 238.434063 197.780589 
L 238.754688 197.389609 
L 238.968437 197.346081 
L 239.182187 197.476613 
L 239.502812 197.997203 
L 239.930311 199.287991 
L 240.464685 201.824363 
L 241.105934 206.121558 
L 241.960933 213.683027 
L 243.029682 225.328261 
L 247.41155 275.853487 
L 248.480299 284.719084 
L 249.442173 291.017649 
L 250.404046 295.826494 
L 251.259045 299.007047 
L 252.114044 301.332188 
L 252.969043 302.974657 
L 253.824041 304.095557 
L 254.67904 304.834324 
L 255.640914 305.3488 
L 256.816537 305.689665 
L 258.41966 305.884598 
L 261.305281 305.961822 
L 280.222129 305.968655 
L 292.298987 305.968655 
L 292.298987 305.968655 
" style="fill:none;stroke:#1f77b4;stroke-dasharray:1,1.65;stroke-dashoffset:0;"/>
   </g>
   <g id="line2d_61">
    <path clip-path="url(#p3eeff08d4b)" d="M 185.531013 238.401422 
L 188.523509 245.663964 
L 191.40913 252.096772 
L 194.294751 258.000665 
L 197.180372 263.405462 
L 200.065992 268.340116 
L 202.951613 272.832716 
L 205.837234 276.910485 
L 208.722855 280.599781 
L 211.608476 283.926098 
L 214.494097 286.914061 
L 217.379718 289.587435 
L 220.372214 292.052014 
L 223.36471 294.22744 
L 226.46408 296.200849 
L 229.563451 297.914378 
L 232.769696 299.438929 
L 236.189691 300.815047 
L 239.716561 301.993679 
L 243.457181 303.009696 
L 247.518425 303.87777 
L 251.900294 304.583682 
L 256.816537 305.144467 
L 262.480904 305.557609 
L 269.320894 305.823702 
L 278.832756 305.951557 
L 292.298987 305.968655 
L 292.298987 305.968655 
" style="fill:none;stroke:#1f77b4;stroke-dasharray:3.7,1.6;stroke-dashoffset:0;"/>
   </g>
   <g id="line2d_62">
    <path clip-path="url(#p3eeff08d4b)" d="M 185.531013 305.968655 
L 218.127842 305.865865 
L 219.730965 305.620307 
L 220.799713 305.240448 
L 221.654712 304.708972 
L 222.402836 303.993048 
L 223.15096 302.952096 
L 223.899084 301.48132 
L 224.647208 299.461336 
L 225.395332 296.764094 
L 226.143456 293.262259 
L 226.998454 288.130121 
L 227.960328 280.775452 
L 229.029076 270.598241 
L 230.311575 255.923698 
L 234.372819 207.040707 
L 235.227818 200.427207 
L 235.869067 197.119592 
L 236.296566 195.784917 
L 236.617191 195.260551 
L 236.937815 195.15115 
L 237.151565 195.309347 
L 237.47219 195.891118 
L 237.899689 197.298129 
L 238.434063 200.029516 
L 239.075312 204.619922 
L 239.930311 212.637861 
L 241.105934 226.199971 
L 244.846554 271.543408 
L 246.022177 282.270448 
L 246.984051 289.192362 
L 247.945925 294.51914 
L 248.800924 298.066766 
L 249.655922 300.676332 
L 250.510921 302.530928 
L 251.259045 303.671505 
L 252.114044 304.562305 
L 252.969043 305.135362 
L 253.930916 305.524386 
L 255.213414 305.789298 
L 257.137162 305.929222 
L 261.839655 305.968248 
L 292.298987 305.968655 
L 292.298987 305.968655 
" style="fill:none;stroke:#1f77b4;stroke-linecap:square;"/>
   </g>
   <g id="patch_19">
    <path d="M 184.463333 307.32 
L 184.463333 189.6 
" style="fill:none;stroke:#000000;stroke-linecap:square;stroke-linejoin:miter;stroke-width:0.8;"/>
   </g>
   <g id="patch_20">
    <path d="M 293.366667 307.32 
L 293.366667 189.6 
" style="fill:none;stroke:#000000;stroke-linecap:square;stroke-linejoin:miter;stroke-width:0.8;"/>
   </g>
   <g id="patch_21">
    <path d="M 184.463333 307.32 
L 293.366667 307.32 
" style="fill:none;stroke:#000000;stroke-linecap:square;stroke-linejoin:miter;stroke-width:0.8;"/>
   </g>
   <g id="patch_22">
    <path d="M 184.463333 189.6 
L 293.366667 189.6 
" style="fill:none;stroke:#000000;stroke-linecap:square;stroke-linejoin:miter;stroke-width:0.8;"/>
   </g>
   <g id="text_62">
    <!-- $\alpha=1,\/\/\beta=5$ -->
    <g transform="translate(249.619867 197.166)scale(0.06 -0.06)">
     <use transform="translate(0 0.390625)" xlink:href="#DejaVuSans-Oblique-3b1"/>
     <use transform="translate(85.400391 0.390625)" xlink:href="#DejaVuSans-3d"/>
     <use transform="translate(188.671875 0.390625)" xlink:href="#DejaVuSans-31"/>
     <use transform="translate(252.294922 0.390625)" xlink:href="#DejaVuSans-2c"/>
     <use transform="translate(336.035806 0.390625)" xlink:href="#DejaVuSans-Oblique-3b2"/>
     <use transform="translate(419.336587 0.390625)" xlink:href="#DejaVuSans-3d"/>
     <use transform="translate(522.608071 0.390625)" xlink:href="#DejaVuSans-35"/>
    </g>
   </g>
   <g id="text_63">
    <!-- $M_4$ -->
    <g transform="translate(184.463333 183.6)scale(0.12 -0.12)">
     <use transform="translate(0 0.09375)" xlink:href="#DejaVuSans-Oblique-4d"/>
     <use transform="translate(86.279297 -16.3125)scale(0.7)" xlink:href="#DejaVuSans-34"/>
    </g>
   </g>
  </g>
  <g id="axes_6">
   <g id="patch_23">
    <path d="M 333.976667 307.32 
L 442.88 307.32 
L 442.88 189.6 
L 333.976667 189.6 
z
" style="fill:#ffffff;"/>
   </g>
   <g id="patch_24">
    <path clip-path="url(#p121f806993)" d="M 338.926818 307.32 
L 359.769561 307.32 
L 359.769561 260.001166 
L 338.926818 260.001166 
z
" style="fill:#1f77b4;"/>
   </g>
   <g id="patch_25">
    <path clip-path="url(#p121f806993)" d="M 364.980247 307.32 
L 385.82299 307.32 
L 385.82299 273.074994 
L 364.980247 273.074994 
z
" style="fill:#1f77b4;"/>
   </g>
   <g id="patch_26">
    <path clip-path="url(#p121f806993)" d="M 391.033676 307.32 
L 411.876419 307.32 
L 411.876419 195.205714 
L 391.033676 195.205714 
z
" style="fill:#1f77b4;"/>
   </g>
   <g id="patch_27">
    <path clip-path="url(#p121f806993)" d="M 417.087105 307.32 
L 437.929848 307.32 
L 437.929848 291.667376 
L 417.087105 291.667376 
z
" style="fill:#1f77b4;"/>
   </g>
   <g id="matplotlib.axis_9">
    <g id="xtick_9">
     <g id="line2d_63">
      <g>
       <use style="stroke:#000000;stroke-width:0.8;" x="349.34819" xlink:href="#md6047a3a59" y="307.32"/>
      </g>
     </g>
     <g id="text_64">
      <!-- $M_1$ -->
      <g transform="translate(345.32819 318.879062)scale(0.06 -0.06)">
       <use transform="translate(0 0.09375)" xlink:href="#DejaVuSans-Oblique-4d"/>
       <use transform="translate(86.279297 -16.3125)scale(0.7)" xlink:href="#DejaVuSans-31"/>
      </g>
     </g>
    </g>
    <g id="xtick_10">
     <g id="line2d_64">
      <g>
       <use style="stroke:#000000;stroke-width:0.8;" x="375.401619" xlink:href="#md6047a3a59" y="307.32"/>
      </g>
     </g>
     <g id="text_65">
      <!-- $M_2$ -->
      <g transform="translate(371.381619 318.879062)scale(0.06 -0.06)">
       <use transform="translate(0 0.09375)" xlink:href="#DejaVuSans-Oblique-4d"/>
       <use transform="translate(86.279297 -16.3125)scale(0.7)" xlink:href="#DejaVuSans-32"/>
      </g>
     </g>
    </g>
    <g id="xtick_11">
     <g id="line2d_65">
      <g>
       <use style="stroke:#000000;stroke-width:0.8;" x="401.455048" xlink:href="#md6047a3a59" y="307.32"/>
      </g>
     </g>
     <g id="text_66">
      <!-- $M_3$ -->
      <g transform="translate(397.435048 318.879062)scale(0.06 -0.06)">
       <use transform="translate(0 0.09375)" xlink:href="#DejaVuSans-Oblique-4d"/>
       <use transform="translate(86.279297 -16.3125)scale(0.7)" xlink:href="#DejaVuSans-33"/>
      </g>
     </g>
    </g>
    <g id="xtick_12">
     <g id="line2d_66">
      <g>
       <use style="stroke:#000000;stroke-width:0.8;" x="427.508477" xlink:href="#md6047a3a59" y="307.32"/>
      </g>
     </g>
     <g id="text_67">
      <!-- $M_4$ -->
      <g transform="translate(423.488477 318.879062)scale(0.06 -0.06)">
       <use transform="translate(0 0.09375)" xlink:href="#DejaVuSans-Oblique-4d"/>
       <use transform="translate(86.279297 -16.3125)scale(0.7)" xlink:href="#DejaVuSans-34"/>
      </g>
     </g>
    </g>
   </g>
   <g id="matplotlib.axis_10">
    <g id="ytick_37">
     <g id="line2d_67">
      <g>
       <use style="stroke:#000000;stroke-width:0.8;" x="333.976667" xlink:href="#mcb3522274b" y="307.32"/>
      </g>
     </g>
     <g id="text_68">
      <!-- 0.000 -->
      <g transform="translate(309.799792 309.599531)scale(0.06 -0.06)">
       <use xlink:href="#DejaVuSans-30"/>
       <use x="63.623047" xlink:href="#DejaVuSans-2e"/>
       <use x="95.410156" xlink:href="#DejaVuSans-30"/>
       <use x="159.033203" xlink:href="#DejaVuSans-30"/>
       <use x="222.65625" xlink:href="#DejaVuSans-30"/>
      </g>
     </g>
    </g>
    <g id="ytick_38">
     <g id="line2d_68">
      <g>
       <use style="stroke:#000000;stroke-width:0.8;" x="333.976667" xlink:href="#mcb3522274b" y="283.423989"/>
      </g>
     </g>
     <g id="text_69">
      <!-- 0.005 -->
      <g transform="translate(309.799792 285.70352)scale(0.06 -0.06)">
       <use xlink:href="#DejaVuSans-30"/>
       <use x="63.623047" xlink:href="#DejaVuSans-2e"/>
       <use x="95.410156" xlink:href="#DejaVuSans-30"/>
       <use x="159.033203" xlink:href="#DejaVuSans-30"/>
       <use x="222.65625" xlink:href="#DejaVuSans-35"/>
      </g>
     </g>
    </g>
    <g id="ytick_39">
     <g id="line2d_69">
      <g>
       <use style="stroke:#000000;stroke-width:0.8;" x="333.976667" xlink:href="#mcb3522274b" y="259.527977"/>
      </g>
     </g>
     <g id="text_70">
      <!-- 0.010 -->
      <g transform="translate(309.799792 261.807509)scale(0.06 -0.06)">
       <use xlink:href="#DejaVuSans-30"/>
       <use x="63.623047" xlink:href="#DejaVuSans-2e"/>
       <use x="95.410156" xlink:href="#DejaVuSans-30"/>
       <use x="159.033203" xlink:href="#DejaVuSans-31"/>
       <use x="222.65625" xlink:href="#DejaVuSans-30"/>
      </g>
     </g>
    </g>
    <g id="ytick_40">
     <g id="line2d_70">
      <g>
       <use style="stroke:#000000;stroke-width:0.8;" x="333.976667" xlink:href="#mcb3522274b" y="235.631966"/>
      </g>
     </g>
     <g id="text_71">
      <!-- 0.015 -->
      <g transform="translate(309.799792 237.911497)scale(0.06 -0.06)">
       <use xlink:href="#DejaVuSans-30"/>
       <use x="63.623047" xlink:href="#DejaVuSans-2e"/>
       <use x="95.410156" xlink:href="#DejaVuSans-30"/>
       <use x="159.033203" xlink:href="#DejaVuSans-31"/>
       <use x="222.65625" xlink:href="#DejaVuSans-35"/>
      </g>
     </g>
    </g>
    <g id="ytick_41">
     <g id="line2d_71">
      <g>
       <use style="stroke:#000000;stroke-width:0.8;" x="333.976667" xlink:href="#mcb3522274b" y="211.735955"/>
      </g>
     </g>
     <g id="text_72">
      <!-- 0.020 -->
      <g transform="translate(309.799792 214.015486)scale(0.06 -0.06)">
       <use xlink:href="#DejaVuSans-30"/>
       <use x="63.623047" xlink:href="#DejaVuSans-2e"/>
       <use x="95.410156" xlink:href="#DejaVuSans-30"/>
       <use x="159.033203" xlink:href="#DejaVuSans-32"/>
       <use x="222.65625" xlink:href="#DejaVuSans-30"/>
      </g>
     </g>
    </g>
    <g id="text_73">
     <!-- P(D) -->
     <defs>
      <path d="M 19.671875 64.796875 
L 19.671875 37.40625 
L 32.078125 37.40625 
Q 38.96875 37.40625 42.71875 40.96875 
Q 46.484375 44.53125 46.484375 51.125 
Q 46.484375 57.671875 42.71875 61.234375 
Q 38.96875 64.796875 32.078125 64.796875 
z
M 9.8125 72.90625 
L 32.078125 72.90625 
Q 44.34375 72.90625 50.609375 67.359375 
Q 56.890625 61.8125 56.890625 51.125 
Q 56.890625 40.328125 50.609375 34.8125 
Q 44.34375 29.296875 32.078125 29.296875 
L 19.671875 29.296875 
L 19.671875 0 
L 9.8125 0 
z
" id="DejaVuSans-50"/>
     </defs>
     <g transform="translate(303.720104 259.226406)rotate(-90)scale(0.1 -0.1)">
      <use xlink:href="#DejaVuSans-50"/>
      <use x="60.302734" xlink:href="#DejaVuSans-28"/>
      <use x="99.316406" xlink:href="#DejaVuSans-44"/>
      <use x="176.318359" xlink:href="#DejaVuSans-29"/>
     </g>
    </g>
   </g>
   <g id="patch_28">
    <path d="M 333.976667 307.32 
L 333.976667 189.6 
" style="fill:none;stroke:#000000;stroke-linecap:square;stroke-linejoin:miter;stroke-width:0.8;"/>
   </g>
   <g id="patch_29">
    <path d="M 442.88 307.32 
L 442.88 189.6 
" style="fill:none;stroke:#000000;stroke-linecap:square;stroke-linejoin:miter;stroke-width:0.8;"/>
   </g>
   <g id="patch_30">
    <path d="M 333.976667 307.32 
L 442.88 307.32 
" style="fill:none;stroke:#000000;stroke-linecap:square;stroke-linejoin:miter;stroke-width:0.8;"/>
   </g>
   <g id="patch_31">
    <path d="M 333.976667 189.6 
L 442.88 189.6 
" style="fill:none;stroke:#000000;stroke-linecap:square;stroke-linejoin:miter;stroke-width:0.8;"/>
   </g>
   <g id="text_74">
    <!-- Marginal Likelihoods -->
    <defs>
     <path d="M 9.8125 72.90625 
L 24.515625 72.90625 
L 43.109375 23.296875 
L 61.8125 72.90625 
L 76.515625 72.90625 
L 76.515625 0 
L 66.890625 0 
L 66.890625 64.015625 
L 48.09375 14.015625 
L 38.1875 14.015625 
L 19.390625 64.015625 
L 19.390625 0 
L 9.8125 0 
z
" id="DejaVuSans-4d"/>
     <path d="M 34.28125 27.484375 
Q 23.390625 27.484375 19.1875 25 
Q 14.984375 22.515625 14.984375 16.5 
Q 14.984375 11.71875 18.140625 8.90625 
Q 21.296875 6.109375 26.703125 6.109375 
Q 34.1875 6.109375 38.703125 11.40625 
Q 43.21875 16.703125 43.21875 25.484375 
L 43.21875 27.484375 
z
M 52.203125 31.203125 
L 52.203125 0 
L 43.21875 0 
L 43.21875 8.296875 
Q 40.140625 3.328125 35.546875 0.953125 
Q 30.953125 -1.421875 24.3125 -1.421875 
Q 15.921875 -1.421875 10.953125 3.296875 
Q 6 8.015625 6 15.921875 
Q 6 25.140625 12.171875 29.828125 
Q 18.359375 34.515625 30.609375 34.515625 
L 43.21875 34.515625 
L 43.21875 35.40625 
Q 43.21875 41.609375 39.140625 45 
Q 35.0625 48.390625 27.6875 48.390625 
Q 23 48.390625 18.546875 47.265625 
Q 14.109375 46.140625 10.015625 43.890625 
L 10.015625 52.203125 
Q 14.9375 54.109375 19.578125 55.046875 
Q 24.21875 56 28.609375 56 
Q 40.484375 56 46.34375 49.84375 
Q 52.203125 43.703125 52.203125 31.203125 
z
" id="DejaVuSans-61"/>
     <path d="M 41.109375 46.296875 
Q 39.59375 47.171875 37.8125 47.578125 
Q 36.03125 48 33.890625 48 
Q 26.265625 48 22.1875 43.046875 
Q 18.109375 38.09375 18.109375 28.8125 
L 18.109375 0 
L 9.078125 0 
L 9.078125 54.6875 
L 18.109375 54.6875 
L 18.109375 46.1875 
Q 20.953125 51.171875 25.484375 53.578125 
Q 30.03125 56 36.53125 56 
Q 37.453125 56 38.578125 55.875 
Q 39.703125 55.765625 41.0625 55.515625 
z
" id="DejaVuSans-72"/>
     <path d="M 45.40625 27.984375 
Q 45.40625 37.75 41.375 43.109375 
Q 37.359375 48.484375 30.078125 48.484375 
Q 22.859375 48.484375 18.828125 43.109375 
Q 14.796875 37.75 14.796875 27.984375 
Q 14.796875 18.265625 18.828125 12.890625 
Q 22.859375 7.515625 30.078125 7.515625 
Q 37.359375 7.515625 41.375 12.890625 
Q 45.40625 18.265625 45.40625 27.984375 
z
M 54.390625 6.78125 
Q 54.390625 -7.171875 48.1875 -13.984375 
Q 42 -20.796875 29.203125 -20.796875 
Q 24.46875 -20.796875 20.265625 -20.09375 
Q 16.0625 -19.390625 12.109375 -17.921875 
L 12.109375 -9.1875 
Q 16.0625 -11.328125 19.921875 -12.34375 
Q 23.78125 -13.375 27.78125 -13.375 
Q 36.625 -13.375 41.015625 -8.765625 
Q 45.40625 -4.15625 45.40625 5.171875 
L 45.40625 9.625 
Q 42.625 4.78125 38.28125 2.390625 
Q 33.9375 0 27.875 0 
Q 17.828125 0 11.671875 7.65625 
Q 5.515625 15.328125 5.515625 27.984375 
Q 5.515625 40.671875 11.671875 48.328125 
Q 17.828125 56 27.875 56 
Q 33.9375 56 38.28125 53.609375 
Q 42.625 51.21875 45.40625 46.390625 
L 45.40625 54.6875 
L 54.390625 54.6875 
z
" id="DejaVuSans-67"/>
     <path d="M 9.421875 75.984375 
L 18.40625 75.984375 
L 18.40625 0 
L 9.421875 0 
z
" id="DejaVuSans-6c"/>
     <path id="DejaVuSans-20"/>
     <path d="M 9.8125 72.90625 
L 19.671875 72.90625 
L 19.671875 8.296875 
L 55.171875 8.296875 
L 55.171875 0 
L 9.8125 0 
z
" id="DejaVuSans-4c"/>
     <path d="M 9.078125 75.984375 
L 18.109375 75.984375 
L 18.109375 31.109375 
L 44.921875 54.6875 
L 56.390625 54.6875 
L 27.390625 29.109375 
L 57.625 0 
L 45.90625 0 
L 18.109375 26.703125 
L 18.109375 0 
L 9.078125 0 
z
" id="DejaVuSans-6b"/>
     <path d="M 54.890625 33.015625 
L 54.890625 0 
L 45.90625 0 
L 45.90625 32.71875 
Q 45.90625 40.484375 42.875 44.328125 
Q 39.84375 48.1875 33.796875 48.1875 
Q 26.515625 48.1875 22.3125 43.546875 
Q 18.109375 38.921875 18.109375 30.90625 
L 18.109375 0 
L 9.078125 0 
L 9.078125 75.984375 
L 18.109375 75.984375 
L 18.109375 46.1875 
Q 21.34375 51.125 25.703125 53.5625 
Q 30.078125 56 35.796875 56 
Q 45.21875 56 50.046875 50.171875 
Q 54.890625 44.34375 54.890625 33.015625 
z
" id="DejaVuSans-68"/>
     <path d="M 30.609375 48.390625 
Q 23.390625 48.390625 19.1875 42.75 
Q 14.984375 37.109375 14.984375 27.296875 
Q 14.984375 17.484375 19.15625 11.84375 
Q 23.34375 6.203125 30.609375 6.203125 
Q 37.796875 6.203125 41.984375 11.859375 
Q 46.1875 17.53125 46.1875 27.296875 
Q 46.1875 37.015625 41.984375 42.703125 
Q 37.796875 48.390625 30.609375 48.390625 
z
M 30.609375 56 
Q 42.328125 56 49.015625 48.375 
Q 55.71875 40.765625 55.71875 27.296875 
Q 55.71875 13.875 49.015625 6.21875 
Q 42.328125 -1.421875 30.609375 -1.421875 
Q 18.84375 -1.421875 12.171875 6.21875 
Q 5.515625 13.875 5.515625 27.296875 
Q 5.515625 40.765625 12.171875 48.375 
Q 18.84375 56 30.609375 56 
z
" id="DejaVuSans-6f"/>
     <path d="M 45.40625 46.390625 
L 45.40625 75.984375 
L 54.390625 75.984375 
L 54.390625 0 
L 45.40625 0 
L 45.40625 8.203125 
Q 42.578125 3.328125 38.25 0.953125 
Q 33.9375 -1.421875 27.875 -1.421875 
Q 17.96875 -1.421875 11.734375 6.484375 
Q 5.515625 14.40625 5.515625 27.296875 
Q 5.515625 40.1875 11.734375 48.09375 
Q 17.96875 56 27.875 56 
Q 33.9375 56 38.25 53.625 
Q 42.578125 51.265625 45.40625 46.390625 
z
M 14.796875 27.296875 
Q 14.796875 17.390625 18.875 11.75 
Q 22.953125 6.109375 30.078125 6.109375 
Q 37.203125 6.109375 41.296875 11.75 
Q 45.40625 17.390625 45.40625 27.296875 
Q 45.40625 37.203125 41.296875 42.84375 
Q 37.203125 48.484375 30.078125 48.484375 
Q 22.953125 48.484375 18.875 42.84375 
Q 14.796875 37.203125 14.796875 27.296875 
z
" id="DejaVuSans-64"/>
    </defs>
    <g transform="translate(337.23224 183.6)scale(0.1 -0.1)">
     <use xlink:href="#DejaVuSans-4d"/>
     <use x="86.279297" xlink:href="#DejaVuSans-61"/>
     <use x="147.558594" xlink:href="#DejaVuSans-72"/>
     <use x="188.65625" xlink:href="#DejaVuSans-67"/>
     <use x="252.132812" xlink:href="#DejaVuSans-69"/>
     <use x="279.916016" xlink:href="#DejaVuSans-6e"/>
     <use x="343.294922" xlink:href="#DejaVuSans-61"/>
     <use x="404.574219" xlink:href="#DejaVuSans-6c"/>
     <use x="432.357422" xlink:href="#DejaVuSans-20"/>
     <use x="464.144531" xlink:href="#DejaVuSans-4c"/>
     <use x="519.857422" xlink:href="#DejaVuSans-69"/>
     <use x="547.640625" xlink:href="#DejaVuSans-6b"/>
     <use x="605.503906" xlink:href="#DejaVuSans-65"/>
     <use x="667.027344" xlink:href="#DejaVuSans-6c"/>
     <use x="694.810547" xlink:href="#DejaVuSans-69"/>
     <use x="722.59375" xlink:href="#DejaVuSans-68"/>
     <use x="785.972656" xlink:href="#DejaVuSans-6f"/>
     <use x="847.154297" xlink:href="#DejaVuSans-6f"/>
     <use x="908.335938" xlink:href="#DejaVuSans-64"/>
     <use x="971.8125" xlink:href="#DejaVuSans-73"/>
    </g>
   </g>
  </g>
 </g>
 <defs>
  <clipPath id="p006e9b53d9">
   <rect height="117.72" width="108.903333" x="34.95" y="26.8"/>
  </clipPath>
  <clipPath id="p7be8c23296">
   <rect height="117.72" width="108.903333" x="184.463333" y="26.8"/>
  </clipPath>
  <clipPath id="pbcc99aede9">
   <rect height="117.72" width="108.903333" x="34.95" y="189.6"/>
  </clipPath>
  <clipPath id="p3eeff08d4b">
   <rect height="117.72" width="108.903333" x="184.463333" y="189.6"/>
  </clipPath>
  <clipPath id="p121f806993">
   <rect height="117.72" width="108.903333" x="333.976667" y="189.6"/>
  </clipPath>
 </defs>
</svg>
